SplineFontDB: 3.0
FontName: AmiriText-Regular
FullName: Amiri Text Regular
FamilyName: Amiri Text
Weight: Regular
Copyright: Copyright (C) 2010  Khaled Hosny <khaledhosny@elug.org>
UComments: "2010-5-8: Created." 
Version: 000.001
ItalicAngle: 0
UnderlinePosition: -100
UnderlineWidth: 50
Ascent: 800
Descent: 200
LayerCount: 2
Layer: 0 0 "Back"  1
Layer: 1 0 "Fore"  0
XUID: [1021 862 584604386 637949]
FSType: 8
OS2Version: 0
OS2_WeightWidthSlopeOnly: 0
OS2_UseTypoMetrics: 1
CreationTime: 1273266481
ModificationTime: 1273426327
PfmFamily: 17
TTFWeight: 500
TTFWidth: 5
LineGap: 90
VLineGap: 0
OS2TypoAscent: 0
OS2TypoAOffset: 1
OS2TypoDescent: 0
OS2TypoDOffset: 1
OS2TypoLinegap: 90
OS2WinAscent: 0
OS2WinAOffset: 1
OS2WinDescent: 0
OS2WinDOffset: 1
HheadAscent: 0
HheadAOffset: 1
HheadDescent: 0
HheadDOffset: 1
OS2Vendor: 'PfEd'
Lookup: 2 0 0 "'ccmp' Glyph Decomposition"  {"'ccmp' Glyph Decomposition-1"  } ['ccmp' ('DFLT' <'dflt' > 'arab' <'dflt' > ) ]
Lookup: 1 0 0 "'init' Initial Forms in Arabic lookup 1"  {"'init' Initial Forms in Arabic lookup 1 subtable"  } ['init' ('arab' <'dflt' > 'DFLT' <'dflt' > ) ]
Lookup: 1 0 0 "'medi' Medial Forms in Arabic lookup 2"  {"'medi' Medial Forms in Arabic lookup 2 subtable"  } ['medi' ('arab' <'dflt' > 'DFLT' <'dflt' > ) ]
Lookup: 1 0 0 "'fina' Terminal Forms in Arabic lookup 3"  {"'fina' Terminal Forms in Arabic lookup 3 subtable"  } ['fina' ('arab' <'dflt' > 'DFLT' <'dflt' > ) ]
Lookup: 1 0 0 "AynMeemInit"  {"AynMeemInit subtable"  } []
Lookup: 1 0 0 "KafHehIsol"  {"KafHehIsol subtable"  } []
Lookup: 1 0 0 "LamDalIsol"  {"LamDalIsol subtable"  } []
Lookup: 1 0 0 "KafLamMedi"  {"KafLamMedi subtable"  } []
Lookup: 1 0 0 "LamMeemFina"  {"LamMeemFina subtable"  } []
Lookup: 1 0 0 "KafMeemLamInit"  {"KafMeemLamInit subtable"  } []
Lookup: 1 0 0 "SeenMeemInit"  {"SeenMeemInit subtable"  } []
Lookup: 1 0 0 "KafMeemMedi"  {"KafMeemMedi subtable"  } []
Lookup: 1 0 0 "FaaMeemInit"  {"FaaMeemInit subtable"  } []

StartChar: alef.fina.alt
Encoding: 65536 -1 0
Width: 0
VWidth: 0
LayerCount: 2
Fore
SplineSet
149.031 799.875 m 0
 154.952 799.92 160.941 793.613 159.969 785.688 c 2
 152.312 723.469 l 2
 150.998 712.768 146.058 707.186 137.781 706.344 c 0
 118.567 704.388 100.978 700.448 89.1562 694.719 c 0
 77.335 688.989 77.3828 678.31 77.625 625.156 c 0
 78.0332 535.749 79.4805 452.982 89.0312 379.438 c 0
 94.0967 340.436 96.3887 303.798 111.906 270.5 c 0
 161.852 163.332 255.371 109.27 406.594 91.5625 c 0
 506.833 79.8252 634.711 81.8848 767.631 90.9316 c 0
 782.337 92.3193 801.819 87.3311 797.562 62.0312 c 0
 793.306 36.7314 784.613 2.75391 766.312 0 c 0
 741.218 -2.56152 639.434 -9.34473 550.25 -6.6875 c 0
 421.527 -1.65332 224.218 -4.08887 122.094 110.719 c 0
 28.3467 216.109 47.1191 487.668 44.9062 571 c 0
 42.6924 654.332 45.7979 696.498 50.25 715.062 c 0
 63.3486 769.684 90.5576 799.43 149.031 799.875 c 0
EndSplineSet
EndChar

StartChar: alef.fina
Encoding: 65537 -1 1
Width: 0
VWidth: 0
LayerCount: 2
Fore
SplineSet
34.8125 714.031 m 2
 45.501 733.684 49.5967 712.863 51.7188 700.812 c 0
 67.6807 610.186 79.2539 521.986 86.9688 436.75 c 0
 95.3291 353.27 103.699 244.573 111.281 186.156 c 0
 118.863 127.758 132.852 110.204 172.531 90.5625 c 0
 190.115 82.875 206.905 75.8887 203.358 55.3613 c 0
 199.812 34.833 197.161 0.65918 172.5 0 c 0
 86.6816 0.475586 78.9346 82.2891 72.8438 122.969 c 0
 66.7539 163.648 51.7744 360.209 49.3438 392.094 c 0
 46.9131 423.979 16.5684 601.655 4.46875 635.719 c 0
 0.935547 645.666 0.43457 650.816 6.53125 662.031 c 2
 34.8125 714.031 l 2
EndSplineSet
Substitution2: "KafAlefFina subtable" alef.fina_KafAlefFina
Substitution2: "KafMeemAlefFina subtable" alef.fina_KafMeemAlefFina
Substitution2: "KafMeemAlefIsol subtable" alef.fina_KafMeemAlefIsol
Substitution2: "KafAlefIsol subtable" alef.fina_KafAlefIsol
Substitution2: "LamAlefFina subtable" alef.fina_LamAlefFina
Substitution2: "KafLamAlefIsol subtable" alef.fina_KafLamAlefIsol
Substitution2: "LamAlefIsol subtable" alef.fina_LamAlefIsol
Substitution2: "MeemAlefFina subtable" alef.fina_MeemAlefFina
Substitution2: "KafLamAlefFina subtable" alef.fina_KafLamAlefFina
Substitution2: "LamLamAlefIsol subtable" alef.fina_LamLamAlefIsol
Substitution2: "BaaMeemAlefFina subtable" alef.fina_BaaMeemAlefFina
Colour: ff0000
EndChar

StartChar: alef.isol
Encoding: 65538 -1 2
Width: 0
VWidth: 0
LayerCount: 2
Fore
SplineSet
72.0068 683.066 m 1
 84.123 706.171 90.1826 688.922 90.2373 671.818 c 1
 94.4443 605.503 103.265 504.635 112.044 426.979 c 0
 119.901 357.477 127.898 290.627 130.495 199.365 c 0
 132.183 140.025 131.072 55.7471 107.698 6.61035 c 0
 101.376 -5.3418 90.3955 1.18262 93.2266 17.5391 c 1
 95.6426 73.1846 90.6914 164.994 87.1318 203.239 c 0
 83.5752 241.458 54.4805 464.514 43.5498 592.77 c 0
 42.1426 605.133 43.1699 614.026 49.0146 626.567 c 2
 72.0068 683.066 l 1
EndSplineSet
Substitution2: "'fina' Terminal Forms in Arabic lookup 3 subtable" alef.fina
Colour: ff0000
EndChar

StartChar: ayn+haa.init
Encoding: 65539 -1 3
Width: 0
VWidth: 0
AnchorPoint: "cursive" 90 244 exit 0
LayerCount: 2
Fore
SplineSet
562.675 439.789 m 0
 554.804 421.636 546.405 406.942 533.438 387.112 c 0
 530.818 383.108 524.951 377.276 520.844 376.136 c 0
 412.3 346.007 188.093 288.424 142.636 258.508 c 0
 119.734 243.436 100.038 232.355 87.5498 230.987 c 0
 73.8564 229.487 40.9434 230.813 58.6338 247.145 c 0
 99.2227 284.615 161.573 316.736 235.916 347.175 c 1
 192.577 380.83 161.678 405.747 190.269 482.653 c 0
 207.034 527.747 293.596 616.325 360.31 610.958 c 0
 424.372 605.805 456.377 562.217 469.256 544.337 c 0
 476.863 533.776 468.68 526.379 460.254 529.21 c 0
 430.884 539.077 399.385 549.254 359.71 548.105 c 0
 307.595 546.597 256.717 528.354 228.424 484.802 c 1
 236.791 469.115 278.169 411.14 346.539 407.733 c 0
 427.3 403.713 500.534 435.609 553.034 454.069 c 0
 559.837 456.46 567.86 451.748 562.675 439.789 c 0
145.037 249.607 m 0
 286.79 203.495 426.966 193.509 561.776 186.686 c 0
 566.161 186.464 570.987 184.562 569.236 174.665 c 0
 565.085 151.196 557.356 129.874 548.183 109.419 c 0
 545.852 104.223 542.288 101.967 536.921 102.884 c 0
 338.825 136.688 174.769 49.5215 0 0 c 1
 -21.3135 0 -28.416 22.0869 -31.3223 49.334 c 0
 -34.2285 76.5811 -30.6035 87.5889 -1.07129 91.0088 c 0
 82.2578 100.658 160.782 118.862 239.754 135.334 c 1
 217.837 151.379 111.144 177.611 26.7031 183.447 c 0
 20.9355 183.846 19.9873 186.901 22.1543 191.776 c 0
 30.9258 211.508 39.1523 229.843 58.6338 247.145 c 0
 79.208 265.417 110.477 260.85 145.037 249.607 c 0
EndSplineSet
Colour: ff0000
EndChar

StartChar: ayn+meem.init
Encoding: 65540 -1 4
Width: 0
VWidth: 0
AnchorPoint: "cursive" 170 212 exit 0
LayerCount: 2
Fore
SplineSet
250.771 438.418 m 1
 250.772 438.418 l 1
 250.772 438.418 l 1
 269.759 485.083 348.439 576.672 432.925 574.89 c 0
 484.153 573.81 516.623 533.036 537.477 505.461 c 0
 547.461 492.262 532.597 485.109 524.789 487.732 c 0
 473.803 504.866 386.434 509.186 288.451 446.864 c 0
 285.017 443.785 283.382 439.315 285.915 435.202 c 0
 301.399 410.058 343.563 367.411 420.932 352.204 c 1
 481.691 347.414 541.417 379.654 602.682 410.442 c 0
 621.899 420.099 635.821 401.941 628.012 389.733 c 2
 597.081 341.376 l 2
 594.973 337.213 586.529 328.908 582.958 327.505 c 0
 475.77 285.381 344.426 247.614 237.8 207.73 c 0
 222.726 202.092 190.361 189.151 175.521 187.459 c 0
 159.553 185.637 151.982 183.555 136.173 194.918 c 0
 120.188 206.406 119.282 217.49 126.557 221.175 c 0
 191.249 253.943 263.105 275.785 302.663 292.91 c 1
 216.257 352.893 235.22 400.198 250.771 438.418 c 1
126.557 221.175 m 0
 169.598 244.313 208.021 237.217 237.8 207.73 c 0
 267.889 177.936 287.401 141.894 288.997 124.241 c 0
 291.972 91.333 275.183 46.4268 249.619 33.6973 c 0
 217.216 17.5605 110.075 62.3613 81.9678 87.0322 c 1
 68.5342 57.0352 29.46 6.20996 0 0 c 1
 -19.8594 0 -28.9697 19.3818 -31.9404 51.0332 c 0
 -34.9131 82.708 -23.873 91.2002 -0.0800781 91.1836 c 0
 27.8691 91.1631 61.0449 98.9453 74.165 112.896 c 1
 77.2324 152.768 86.915 199.864 126.557 221.175 c 0
227.532 104.662 m 1
 219.684 131.506 194.672 154.719 168.048 167.062 c 0
 147.734 176.479 127.495 180.837 107.223 168.148 c 1
 104.344 165.121 104.583 159.934 108.502 157.036 c 0
 138.445 134.898 201.019 107.654 227.532 104.662 c 1
EndSplineSet
Colour: ff0000
EndChar

StartChar: ayn+yaa.fina
Encoding: 65541 -1 5
Width: 0
VWidth: 0
AnchorPoint: "cursive" 415 119 exit 0
LayerCount: 2
Fore
SplineSet
508.634 292.009 m 0
 518.113 362.656 579.433 399.884 651.785 402.871 c 0
 693.073 404.594 744.298 377.114 766.347 349.869 c 0
 788.396 322.624 793.319 313.073 783.466 289.98 c 0
 776.026 272.547 756.826 252.301 736.475 237.247 c 1
 760.907 223.826 790.92 213.754 826.362 211.801 c 0
 845.293 210.749 860.215 200.902 858.689 176.811 c 0
 857.163 152.719 849.245 117.969 826.362 119.364 c 0
 749.695 124.039 720.907 154.253 663.059 192.712 c 0
 658.922 195.463 654.928 195.094 649.808 193.359 c 0
 597.37 175.599 541.114 156.443 501.173 133.793 c 0
 476.974 120.07 431.665 97.8369 415.169 87.8438 c 0
 391.805 73.6904 383.108 100.042 382.913 124.357 c 1
 383.978 136.575 390.19 141.727 396.286 146.046 c 0
 452.974 186.211 519.985 215.492 589.082 243.559 c 1
 569.093 257.259 548.062 270.667 518.674 277.201 c 0
 512.346 278.608 508.437 285.173 508.634 292.009 c 0
396.286 146.046 m 1
 418.089 143.432 435.307 140.087 456.927 135.959 c 0
 498.309 128.058 622.047 104.705 638.6 54.7041 c 0
 647.403 30.5693 630.885 -34.9932 624.326 -45.3145 c 0
 596.891 -88.4863 406.891 -174.612 269.06 -195.105 c 0
 168.048 -210.125 20.2305 -193.018 2.63965 -35.0469 c 0
 -3.94629 24.1006 35.9785 154.439 79.5869 220.673 c 0
 88.627 234.403 105.905 223.579 96.1768 204.814 c 0
 73.46 160.998 34.3242 68.4023 69.1846 -15.1973 c 0
 95.752 -78.9072 182.298 -112.615 295.179 -95.042 c 0
 398.412 -78.9707 504.951 -42.3086 589.076 15.0029 c 0
 593.559 18.0566 594.013 21.3789 588.083 24.5625 c 0
 533.36 53.9395 464.792 60.6514 393.859 67.0479 c 0
 387.624 67.6104 383.037 70.3945 381.719 76.3965 c 0
 378.547 90.8145 381.482 107.908 382.914 124.357 c 0
 383.978 136.575 390.19 141.727 396.286 146.046 c 1
EndSplineSet
Colour: ff0000
EndChar

StartChar: ayn+yaa.isol
Encoding: 65542 -1 6
Width: 0
VWidth: 0
AnchorPoint: "cursive" 426 124 exit 0
LayerCount: 2
Fore
SplineSet
493.609 132.846 m 0
 558.354 128.094 625.01 105.477 640.497 80.9902 c 0
 647.59 69.7734 642.957 9.70508 621.879 -17.8154 c 0
 580.191 -72.2451 373.309 -208.271 196.846 -199.011 c 0
 -3.55859 -188.572 -12.7422 -4.59473 8.89355 76.2061 c 0
 25.1494 136.916 54.8857 204.745 106.036 265.468 c 0
 116.479 277.865 134.206 265.726 122.318 250.298 c 0
 96.3184 216.555 74.4023 178.698 63.6045 142.14 c 0
 29.3545 26.1826 79.6152 -88.7568 231.156 -93.1006 c 0
 356.794 -96.7012 502.889 -45.5254 587.705 27.9004 c 0
 592.851 32.3535 593.474 35.2559 587.734 39.3438 c 0
 562.865 57.0557 450.273 68.3115 381.089 73.7568 c 0
 372.557 74.4287 369.595 75.9756 373.054 84.5225 c 0
 380.754 103.547 401.542 137.71 401.542 137.71 c 1
 401.542 137.71 454.566 135.711 493.609 132.846 c 0
934.431 319.205 m 1
 931.656 312.643 929.661 305.264 923.538 302.646 c 0
 776.151 239.646 598.634 181.002 493.609 132.846 c 0
 436.531 106.673 385.997 89.499 401.713 137.993 c 1
 404.763 143.033 407.804 148.077 410.763 153.176 c 0
 413.635 158.127 420.514 166.082 425.267 168.852 c 0
 477.621 199.361 532.469 222.939 611.101 253.59 c 1
 586.834 279.995 541.533 319.12 550.297 360.898 c 0
 565.469 433.224 673.808 534.736 732.613 543.487 c 0
 768.453 548.821 847.006 507.353 877.866 474.424 c 0
 884.933 466.883 879.545 458.229 869.754 461.488 c 0
 793.109 487.002 679.273 471.282 614.576 402.981 c 0
 612.024 400.287 614.596 393.312 616.468 390.349 c 0
 630.822 367.671 667.868 332.201 747.011 317.205 c 0
 795.848 307.951 893.905 365.733 943.829 390.604 c 0
 950.165 393.76 962.993 386.744 958.693 376.576 c 2
 934.431 319.205 l 1
EndSplineSet
Colour: ff0000
EndChar

StartChar: ayn.fina
Encoding: 65543 -1 7
Width: 0
VWidth: 0
LayerCount: 2
Fore
SplineSet
258.034 284.297 m 1
 258.034 284.297 l 1
 260.12 284.33 262.219 284.326 264.314 284.271 c 0
 293.768 283.494 324.546 273.638 355.803 256.656 c 0
 380.493 242.248 400.583 222.498 398.809 202.35 c 0
 395.83 168.523 359.561 139.539 332.296 126.896 c 0
 329.164 125.443 331.443 121.657 334.051 120.071 c 0
 364.151 101.773 404.479 90.6035 431.51 90.0312 c 0
 466.184 89.2969 467.623 68.7344 465.185 53.7295 c 0
 462.746 38.7246 458.912 0 432.207 0 c 0
 360.604 1.34082 308.992 47.8154 253.559 91.7461 c 0
 249.234 95.1738 245.442 94.2139 240.085 91.6631 c 0
 126.422 33.3242 50.4854 -63.5508 38.4395 -193.169 c 0
 28.0176 -305.3 107.947 -418.126 253.468 -446.307 c 0
 404.698 -475.479 519.416 -466.461 661.416 -455.483 c 0
 675.669 -454.381 679.155 -463.311 664.922 -472.768 c 0
 623.693 -500.16 502.347 -547.864 451.595 -550.863 c 0
 388.321 -554.574 287.42 -551.768 213.05 -534.873 c 0
 9.70996 -488.68 -13.4062 -309.449 7.22754 -190.947 c 0
 30.0938 -59.6201 82.9902 36.1943 156.119 102.776 c 0
 168.014 113.606 177.395 122.99 190.148 132.376 c 0
 192.546 134.141 193.838 137.263 190.859 139.824 c 0
 174.034 154.294 155.713 162.725 127.234 165.109 c 0
 120.01 165.72 101.712 167.189 105.602 182.961 c 0
 112.363 210.374 134.373 237.104 163.522 255.348 c 1
 196.45 273.424 226.744 283.799 258.034 284.297 c 1
EndSplineSet
Colour: ff0000
EndChar

StartChar: ayn.init.alt
Encoding: 65544 -1 8
Width: 0
VWidth: 0
LayerCount: 2
Fore
SplineSet
326.924 181.17 m 1
 326.924 181.17 308.793 140.764 296.523 113.73 c 0
 293.356 106.751 286.869 102.56 279.565 99.4844 c 0
 109.416 27.8496 18.5469 -1.19238 0 0 c 1
 -21.5596 0 -25.8662 18.4277 -31.1543 45.9297 c 0
 -38.209 82.6123 -24.8955 86.9121 -0.419922 90.0781 c 0
 11.1162 92.2168 25.3867 96.9746 32.8477 101.368 c 1
 14.1797 120.782 -10.8242 160.056 -9.20215 191.063 c 0
 -4.5791 279.437 75.4082 358.276 145.315 376.318 c 0
 182.394 385.888 239.26 360.188 280.998 314.51 c 0
 295.457 298.686 280.636 278.208 264.037 285.416 c 0
 180.22 321.816 54.71 288.335 42.9561 235.848 c 0
 36.7705 208.224 94.1162 142.845 126.902 135.347 c 0
 202.848 117.979 251.442 165.245 311.607 196.062 c 0
 321.28 201.016 327.715 190.575 326.924 181.17 c 1
EndSplineSet
EndChar

StartChar: ayn.init
Encoding: 65545 -1 9
Width: 0
VWidth: 0
LayerCount: 2
Fore
SplineSet
414.262 251.637 m 1
 414.262 251.637 401.312 202.349 393.484 171.614 c 0
 391.592 164.187 383.966 160.099 376.526 157.369 c 0
 244.023 108.748 0 0 0 0 c 1
 -13.2227 0 -22.3779 0 -31.374 47.7637 c 0
 -39.9775 93.4473 -8.34082 87.5049 0.0683594 90.8066 c 0
 19.7402 96.6855 40.7842 107.018 69.1973 119.368 c 1
 50.5293 138.782 24.9053 157.104 33.917 210.28 c 0
 48.7041 297.529 117.527 372.228 192.01 396.841 c 0
 228.37 408.855 285.955 376.711 327.693 331.032 c 0
 342.152 315.208 327.506 299.147 310.732 305.938 c 0
 232.366 337.667 113.999 311.368 90.9072 255.064 c 0
 81.8047 232.87 135.56 187.184 168.946 183.123 c 0
 268.539 170.928 340.78 233.712 400.945 264.528 c 0
 410.618 269.483 415.053 261.042 414.262 251.637 c 1
EndSplineSet
Substitution2: "AynHaaInit subtable" ayn.init_AynHaaInit
Substitution2: "AynYaaIsol subtable" ayn.init_AynYaaIsol
Substitution2: "AynMeemInit subtable" ayn.init_AynMeemInit
Colour: ff0000
EndChar

StartChar: ayn.isol
Encoding: 65546 -1 10
Width: 0
VWidth: 0
LayerCount: 2
Fore
SplineSet
169.73 730.281 m 0
 208.981 733.194 259.855 699.176 282.554 667.903 c 0
 289.285 658.629 282.946 653.68 272.882 656.939 c 0
 228.015 671.469 130.7 666.452 56.5459 571.487 c 0
 53.1113 567.09 56.5176 561.161 58.9473 558.597 c 0
 100.447 514.798 174.304 496.056 223.452 504.259 c 0
 260.303 510.408 343.695 574.274 402.447 604.529 c 0
 410.54 608.696 415.975 603.034 413.42 594.736 c 0
 406.851 573.402 393.498 541.312 385.196 528.032 c 0
 382.379 523.52 379.226 519.481 376.521 518.248 c 0
 301.91 484.207 244.847 444.938 178.092 396.036 c 0
 77.8477 322.602 40.4033 230.197 30.0596 136.941 c 0
 18.0576 28.7295 82.8193 -74.6113 230.718 -96.9209 c 0
 384.414 -119.99 505.732 -112.338 648.439 -84.1777 c 0
 662.593 -81.3848 666.652 -91.3252 652.698 -101.457 c 0
 612.281 -130.804 505.303 -189.558 454.259 -194.711 c 0
 390.621 -201.105 288.773 -202.508 213.083 -188.593 c 0
 6.13379 -150.548 -11.5693 22.2422 4.26367 142.584 c 0
 20.876 268.853 68.9668 358.358 134.242 427.104 c 1
 67.6582 453.704 42.8672 477.105 30.96 493.119 c 0
 23.834 502.704 20.8496 511.793 21.9414 524.704 c 0
 24.8262 558.826 34.2822 583.224 46.9072 610.233 c 0
 65.3926 649.771 112.852 710.056 153.72 726.671 c 0
 158.734 728.71 164.123 729.865 169.73 730.281 c 0
EndSplineSet
Substitution2: "'fina' Terminal Forms in Arabic lookup 3 subtable" ayn.fina
Substitution2: "'medi' Medial Forms in Arabic lookup 2 subtable" ayn.medi
Substitution2: "'init' Initial Forms in Arabic lookup 1 subtable" ayn.init
Colour: ff0000
EndChar

StartChar: ayn.medi
Encoding: 65547 -1 11
Width: 0
VWidth: 0
LayerCount: 2
Fore
SplineSet
355.712 82.4395 m 0
 385.969 80.6104 389.529 62.5488 388.082 43.1123 c 0
 386.636 23.6758 379.252 -10.7266 355.878 -10.3281 c 0
 285.77 -9.13184 241.146 14.8281 179.438 87.5049 c 1
 124.564 56.3936 29.7656 7.58105 0 0 c 1
 -12.4639 0 -22.7969 2.99512 -29.8193 38.9775 c 0
 -36.7422 74.4492 -32.6133 89.2275 0.416992 91.1416 c 0
 18.1387 92.1689 67.7842 104.89 117.367 132.676 c 1
 92.8896 153.676 46.8555 169.644 13.6982 175.545 c 0
 8.08398 176.545 7.52637 180.486 8.75293 187.177 c 0
 17.8477 236.747 89.3916 305.685 162.643 303.049 c 0
 234.161 300.477 317.283 237.241 311.404 194.257 c 0
 307.157 163.205 262.052 139.129 239.349 123.465 c 1
 272.09 101.004 312.557 85.0371 355.712 82.4395 c 0
EndSplineSet
Substitution2: "AynYaaFina subtable" ayn.medi_AynYaaFina
Colour: ff0000
EndChar

StartChar: baa+baa+haa.init
Encoding: 65548 -1 12
Width: 0
VWidth: 0
AnchorPoint: "cursive" 516 323 entry 0
AnchorPoint: "cursive" 65 251 exit 0
LayerCount: 2
Fore
SplineSet
386.283 456.29 m 1
 413.931 478.194 435.535 467.53 450.893 439.009 c 0
 474.569 395.039 479.685 366.93 533.178 365.465 c 0
 549 365.032 536.093 277.987 514.122 277.186 c 0
 427.422 274.022 420.519 378.107 391.835 383.885 c 0
 360.469 390.203 332.459 355.768 303.087 334.597 c 0
 224.557 280.183 111.739 236.174 40.4219 216.469 c 0
 35.1143 215.003 29.6201 216.552 25.9199 221.103 c 0
 17.208 231.816 41.417 281.596 73.9873 291.444 c 0
 121.398 305.779 179.995 322.513 228.085 344.165 c 0
 299.996 376.543 336.909 410.215 386.283 456.29 c 1
65.9766 280.396 m 0
 89.5195 273.946 109.566 266.449 148.149 256.896 c 0
 255.78 230.25 321.936 207.86 426.438 193.811 c 0
 477.691 186.923 538.264 182.669 592.328 181.628 c 0
 608.255 181.32 614.253 172.187 607.607 159.245 c 2
 575.185 104.166 l 2
 572.044 98.0508 568.751 95.9258 561.503 97.4648 c 0
 475.735 115.694 384.175 107.76 303.119 90.5713 c 0
 203.306 69.4053 102.01 14.752 0 0 c 0
 -29.3418 -4.24316 -46.2842 89.9688 0.467773 90.6924 c 0
 59.3486 91.6035 179.024 117.152 268.564 139.549 c 1
 178.109 163.534 107.191 177.162 12.6006 192.203 c 0
 7.10352 193.077 5.70508 196.693 7.21387 202.361 c 0
 12.6279 222.675 43.5469 286.54 65.9766 280.396 c 0
514.122 277.186 m 0
 483.546 276.468 491.92 367.488 533.178 365.465 c 0
 570.77 363.621 586.936 403.29 591.007 438.212 c 0
 593.37 458.472 613.062 452.611 613.496 437.126 c 0
 614.503 401.249 598.691 279.172 514.122 277.186 c 0
EndSplineSet
Colour: ff0000
EndChar

StartChar: baa+baa+meem.init
Encoding: 65549 -1 13
Width: 0
VWidth: 0
AnchorPoint: "cursive" 367 291 entry 0
AnchorPoint: "cursive" 132 292 exit 0
LayerCount: 2
Fore
SplineSet
380.455 333.965 m 0
 391.347 334.175 392.713 321.896 385.916 290.931 c 0
 376.621 248.585 365.011 245.334 357.108 245.711 c 0
 320.773 247.442 278.667 290.409 250.345 326.875 c 0
 243.357 335.873 227.744 336.368 216.773 333.829 c 0
 187.898 327.147 161.32 311.477 137.615 283.609 c 0
 124.183 267.818 111.07 260.714 116.048 278.123 c 0
 144.622 378.056 228.942 420.062 256.663 417.982 c 0
 284.777 415.874 291.616 391.297 313.592 368.226 c 0
 333.475 347.352 353.644 333.446 380.455 333.965 c 0
116.048 278.123 m 0
 135.659 344.43 168.189 320.097 137.615 283.609 c 0
 132.585 277.606 132.904 268.283 134.171 264.28 c 0
 144.462 231.763 161.045 193.537 190.758 168.815 c 0
 225.511 139.901 258.738 133.011 301.287 115.211 c 0
 316.034 109.041 325.296 102.667 318.379 82.9131 c 0
 309.367 57.1787 302.803 38.541 292.577 15.6123 c 0
 286.867 2.80859 278.992 7.39844 274.027 10.6289 c 0
 240.684 32.3203 196.955 60.8438 167.324 63.0146 c 0
 129.172 65.8105 45.1113 3.10547 0 0 c 0
 -18.998 -1.30762 -21.8994 19.4814 -23.3682 41.8564 c 0
 -24.8359 64.2324 -23.7783 88.3252 0.0673828 89.8301 c 0
 61.0742 93.6787 82.8545 108.225 104.016 123.249 c 0
 109.327 127.02 112.073 131.065 109.953 141.294 c 0
 99.9512 189.555 101.951 230.462 116.048 278.123 c 0
380.455 333.965 m 0
 407.567 334.22 431.414 364.848 444.227 402.998 c 0
 450.292 421.062 469.254 411.85 465.711 395.741 c 0
 456.859 355.488 446.188 315.312 430.294 289.688 c 0
 413.788 263.079 388.132 243.224 357.108 245.711 c 0
 343.569 246.796 339.18 256.327 349.426 295.804 c 0
 354.939 317.045 362.363 333.795 380.455 333.965 c 0
EndSplineSet
Colour: ff0000
EndChar

StartChar: baa+baa+yaa.isol
Encoding: 65550 -1 14
Width: 0
VWidth: 0
AnchorPoint: "cursive" 614 183 entry 0
AnchorPoint: "cursive" 322 96 exit 0
LayerCount: 2
Fore
SplineSet
618.668 217.575 m 0
 630.209 218.177 637.627 212.676 637.099 186.012 c 0
 636.469 154.162 625.977 144.166 611.942 143.787 c 0
 548.835 142.082 512.205 229.721 472.201 231.661 c 0
 411.854 234.59 336.183 157.069 343.347 128.239 c 0
 351.976 93.5176 336.874 38.5381 315.098 52.6357 c 0
 273.426 79.6133 318.764 166.959 370.374 223.97 c 0
 414.832 273.081 453.978 306.618 502.688 302.209 c 0
 527.174 299.992 564.729 214.762 618.668 217.575 c 0
315.098 52.6348 m 0
 287.11 70.5527 300.926 113.988 318.419 131.082 c 0
 327.812 140.259 340.419 140.079 343.347 128.239 c 0
 351.412 95.6289 458.935 94.3027 507.786 89.4004 c 0
 533.861 86.7832 557.035 74.9326 564.718 54.4082 c 0
 576.975 21.6602 546.177 -45.3457 523.217 -66.8975 c 0
 462.599 -123.797 336.233 -193.207 217.351 -200.334 c 0
 42.4463 -210.818 -4.10156 -109.228 0.0976562 -7.74609 c 0
 2.74023 56.1338 20.3359 132.088 50.8408 190.28 c 0
 58.4541 204.804 76.7793 194.531 69.6025 178.4 c 0
 41.9316 116.208 23.6035 54.1367 36.5166 3.57715 c 0
 57.8545 -79.9717 127.985 -108.313 213.783 -106.333 c 0
 333.943 -103.561 484.239 -29.4902 517.267 8.64746 c 0
 518.069 9.57422 518.994 12.457 515.941 13.8008 c 0
 474.373 32.1025 361.057 23.2129 315.098 52.6348 c 0
679.458 281.582 m 0
 682.407 297.089 703.476 296.828 700.81 276.831 c 0
 694.553 229.906 662.961 144.442 611.942 143.787 c 0
 595.938 143.582 590.278 159.348 592.032 181.205 c 0
 593.524 199.788 591.146 217.376 618.668 217.575 c 0
 654.345 217.832 676.127 264.068 679.458 281.582 c 0
EndSplineSet
Colour: ff0000
EndChar

StartChar: baa+baa.init.alt
Encoding: 65551 -1 15
Width: 0
VWidth: 0
AnchorPoint: "cursive" 248 51 exit 0
LayerCount: 2
Fore
SplineSet
287.407 250.054 m 2
 290.935 262.183 294.855 261.142 300.578 254.393 c 0
 321.566 229.639 331.36 152.692 321.979 103.946 c 0
 312.652 55.4805 291.825 -0.136719 252.691 -3.17871 c 0
 225.25 -5.29004 226.154 29.4023 225.556 55.4102 c 0
 224.907 83.5957 227.915 111.813 240.867 108.966 c 0
 260.642 104.618 279.292 104.268 290.045 109.13 c 1
 289.291 123.854 276.802 151.9 268.291 161.677 c 0
 264.92 165.55 264.486 171.24 266.121 176.864 c 2
 287.407 250.054 l 2
240.867 108.966 m 0
 250.426 106.729 265.748 105.689 267.271 57.4092 c 0
 268.795 9.12988 263.091 -2.38867 252.691 -3.17871 c 0
 183.541 -8.42676 144.592 49.1045 102.998 154.686 c 1
 64.5 24.4111 22.4834 0 -0 0 c 0
 -6.35449 0 -13.5684 11.2666 -19.9541 45.1113 c 0
 -26.3398 78.9551 -20.9619 84.0938 0.258789 89.8145 c 0
 72.8535 109.386 79.0127 139.436 85.0742 162.479 c 0
 92.4502 190.526 61.9912 280.513 48.208 330.916 c 0
 44.2119 345.529 46.958 349.635 50.1396 357.339 c 0
 58.7812 378.26 76.4404 415.662 76.4404 415.662 c 2
 79.7139 423.836 88.5098 419.348 90.3047 413.522 c 0
 108.633 354.043 150.864 130.034 240.867 108.966 c 0
EndSplineSet
EndChar

StartChar: baa+baa.init
Encoding: 65552 -1 16
Width: 0
VWidth: 0
AnchorPoint: "cursive" 251 90 exit 0
LayerCount: 2
Fore
SplineSet
262.587 34.7119 m 0
 226.158 43.4805 187.862 74.75 157.544 104.496 c 1
 115.553 67.9961 60.3057 26.7266 0 0 c 0
 -4.65625 -2.06348 -12.7217 17.5977 -24.1787 47.8203 c 0
 -33.6982 72.9297 -27.3867 83.9512 0.266602 90.9014 c 0
 67.8633 107.889 115.967 132.04 164.524 184.394 c 0
 173.762 194.354 184.588 192.405 190.413 185.572 c 0
 201.53 172.534 227.549 142.736 258.04 131.15 c 0
 309.961 111.421 311.737 94.0781 303.252 71.376 c 0
 295.71 51.1982 297.04 26.4189 262.587 34.7119 c 0
380.089 237.503 m 0
 401.556 196.271 404.591 172.485 403.005 142.365 c 0
 400.787 100.253 381.49 71.2188 365.204 55.9805 c 0
 334.318 27.0791 290.513 26.6582 262.587 34.7119 c 0
 202.192 52.1299 186.778 92.4297 202.964 118.513 c 0
 214.51 137.119 226.646 144.806 258.04 131.149 c 0
 284.444 119.665 316.606 113.7 357.873 124.889 c 0
 359.659 125.373 361.287 127.178 360.962 129.37 c 0
 359.456 139.571 351.343 150.348 345.689 156.768 c 0
 342.821 160.023 342.972 163.659 343.878 166.341 c 2
 367.427 236.037 l 2
 370.511 245.165 377.043 243.354 380.089 237.503 c 0
EndSplineSet
Colour: ff0000
EndChar

StartChar: baa+baa.isol
Encoding: 65553 -1 17
Width: 0
VWidth: 0
AnchorPoint: "cursive" 716 141 exit 0
LayerCount: 2
Fore
SplineSet
726.073 180.203 m 0
 745.224 171.552 740.998 155.206 735.777 137.587 c 0
 731.297 122.465 721.749 93.7285 706.003 101.277 c 0
 702.317 103.044 700.169 104.708 696.479 102.139 c 0
 590.574 28.3945 434.665 -0.0419922 271.651 1.64941 c 0
 82.291 3.61426 22.335 62.0488 6.38965 127.229 c 0
 -11.4834 200.295 20.4395 275.272 52.1572 309.152 c 0
 61.8066 319.459 78.6045 306.904 67.6094 294.115 c 0
 20.7383 239.596 34.3711 179.678 81.9072 145.451 c 0
 145.708 99.5127 262.538 97.335 324.234 96.9951 c 0
 431.654 96.4033 521.38 114.45 578.763 129.634 c 0
 665.626 152.618 684.271 168.654 699.02 224.903 c 0
 703.546 242.166 730.171 240.459 727.242 214.501 c 0
 726.059 204.025 723.764 201.759 721.858 191.52 c 0
 721.13 186.484 720.574 182.687 726.073 180.203 c 0
874.705 267.182 m 0
 875.591 270.095 876.772 269.667 878.872 267.453 c 0
 901.009 244.105 906.982 190.869 896.866 150.719 c 0
 885.606 106.039 870.947 71.1299 853.004 64.6963 c 0
 820.721 53.1221 738.687 78.8594 706.003 101.277 c 0
 686.705 114.514 687.038 129.318 693.891 153.485 c 0
 698.654 170.281 711.218 187.286 726.073 180.203 c 0
 782.392 153.35 823.292 151.244 864.285 155.197 c 0
 869.704 155.72 871.318 156.714 870.785 157.928 c 0
 867.931 164.402 855.48 175.044 850.978 178.614 c 0
 849.144 180.068 847.95 180.751 848.73 183.386 c 0
 857.306 212.312 866.215 239.259 874.705 267.182 c 0
EndSplineSet
Colour: ff0000
EndChar

StartChar: baa+dal.isol
Encoding: 65554 -1 18
Width: 0
VWidth: 0
AnchorPoint: "cursive" 420 58 exit 0
LayerCount: 2
Fore
SplineSet
412.293 113.196 m 0
 439.557 97.4248 509.28 9.49707 456.492 4.15332 c 0
 360.114 -5.60547 336.419 100.815 309.539 172.444 c 0
 308.424 175.417 302.953 176.307 302.082 171.872 c 0
 297.368 147.877 282.123 92.8574 264.992 73.1182 c 1
 213.325 21.1309 84.2988 -16.1172 28.7314 6.9668 c 0
 0.841797 18.5518 -10.2158 64.793 14.7285 144.553 c 0
 15.8438 148.121 25.9717 152.751 29.4189 143.385 c 0
 33.6807 131.812 37.6406 119.441 52.1064 110.679 c 0
 80.4297 93.5215 125.77 101.862 172.5 114.505 c 0
 249.243 135.266 271.814 157.391 286.137 180.945 c 0
 304.274 210.776 264.712 304.291 246.057 394.622 c 0
 243.594 406.569 243.327 419.892 246.047 432.145 c 0
 249.929 449.65 255.341 467.141 266.283 492.821 c 0
 269.223 499.719 281.547 501.249 286.141 480.556 c 0
 314.556 352.549 369.711 137.831 412.293 113.196 c 0
460.941 196.938 m 0
 465.938 226.182 474.275 252.592 482.778 281.814 c 1
 485.762 287.344 492.371 292.381 499.784 280.009 c 0
 526.181 235.953 534.584 153.717 526.695 95.3955 c 0
 519.529 42.4297 505.023 9.67773 456.492 4.15332 c 0
 422.924 0.331055 399.403 12.1475 383.523 25.8164 c 0
 349.156 55.4004 382.383 130.901 412.293 113.197 c 0
 430.979 102.136 471.889 105.291 492.504 113.378 c 0
 496.487 114.94 499.071 117.328 500.125 121.709 c 0
 502.938 133.399 478.909 170.479 464.397 185.618 c 0
 461.021 189.142 459.539 191.857 460.941 196.938 c 0
EndSplineSet
Colour: ff0000
EndChar

StartChar: baa+haa+meem.init
Encoding: 65555 -1 19
Width: 0
VWidth: 0
AnchorPoint: "cursive" 164 363 entry 0
AnchorPoint: "cursive" 199 199 exit 0
LayerCount: 2
Fore
SplineSet
146.857 389.958 m 0
 160.261 400.243 217.788 401.29 288.414 375.664 c 0
 419.627 328.055 517.656 293.005 673.287 286.951 c 1
 687.196 283.942 694.037 277.419 689.037 268.222 c 0
 680.695 252.879 661.706 214.683 649.317 202.522 c 0
 644.186 197.484 639.643 198.603 632.745 199.465 c 0
 503.133 215.666 406.708 233.336 272.667 197.522 c 0
 231.531 186.532 165.753 156.753 141.446 207.273 c 1
 180.759 233.107 267.616 250.452 339.807 258.792 c 1
 260.473 295.592 194.059 311.19 112.662 303.768 c 0
 107.666 303.312 105.418 305.104 107.4 310.668 c 0
 117.329 338.534 134.741 380.661 146.857 389.958 c 0
141.446 207.273 m 0
 164.249 223.284 247.178 224.324 272.667 197.522 c 0
 310.012 158.256 329.576 106.248 321.461 86.2402 c 0
 309.459 56.6484 280.891 15.1699 273.306 11.7578 c 0
 247.152 -0.00488281 147.786 39.8525 95.6123 78.8018 c 1
 67.2578 23.8252 24.5615 -0.204102 0 0 c 0
 -39.0928 0.325195 -28.1416 92.2393 -0.0136719 90.792 c 0
 36.0693 88.9346 78.9619 98.4307 92.417 111.678 c 0
 100.788 119.92 124.767 195.562 141.446 207.273 c 0
280.967 96.6562 m 0
 275.482 119.384 229.166 159.886 190.516 169.741 c 0
 176.814 173.234 162.352 167.377 152.534 158.778 c 0
 148.166 154.951 147.15 150.096 151.584 146.367 c 0
 166.4 133.912 226.841 103.601 273.93 89.8613 c 0
 278.959 88.3936 282.126 91.8545 280.967 96.6562 c 0
534.059 596.048 m 1
 534.059 596.048 l 1
 550.708 595.563 568.211 586.258 573.901 569.312 c 0
 594.141 509.036 566.346 411.639 561.758 392.057 c 0
 557.54 374.055 537.396 377.142 540.1 397.117 c 0
 545.624 437.935 548.298 492.537 494.335 496.465 c 0
 466.758 498.473 392.462 407.6 288.414 375.664 c 0
 228.962 357.417 207.47 346.816 112.662 303.768 c 1
 107.666 303.312 105.418 305.104 107.4 310.668 c 0
 117.329 338.534 134.666 380.759 146.857 389.958 c 0
 166.083 404.465 295.207 422.725 384.936 478.264 c 0
 463.895 527.137 487.853 597.392 534.059 596.048 c 1
EndSplineSet
EndChar

StartChar: baa+haa.init
Encoding: 65556 -1 20
Width: 0
VWidth: 0
AnchorPoint: "cursive" 38 233 exit 0
LayerCount: 2
Fore
SplineSet
438.209 359.269 m 0
 439.398 339.614 416.846 340.198 415.608 357.193 c 0
 414.435 373.312 403.397 436.89 382.343 451.611 c 0
 375.577 456.342 366.213 458.643 356.021 449.09 c 1
 296.229 360.467 159.454 224.018 -14.5303 179.571 c 1
 -23.3428 178.852 -19.9082 186.286 -18.9209 189.304 c 0
 -10.4033 215.352 -4.77441 232.441 4.2373 250.959 c 0
 7.1416 256.926 14.8447 266.531 21.8564 269.708 c 0
 79.1221 295.658 152 318.916 215.617 360.997 c 0
 260.985 391.008 287.238 421.358 306.693 449.386 c 0
 328.177 480.336 341.216 551.167 377.311 551.997 c 0
 424.744 553.088 435.497 404.086 438.209 359.269 c 0
21.8564 269.708 m 0
 41.2373 276.877 104.125 271.338 156.295 257.26 c 0
 272.922 225.788 396.054 196.104 536.68 194.927 c 0
 547.231 194.838 560.536 183.292 553.451 170.004 c 2
 527.52 121.376 l 2
 524.165 115.082 516.016 107.555 508.237 108.744 c 0
 306.91 139.507 152.04 38.8193 0 0 c 0
 -24.0547 -6.1416 -42.9131 88.0195 -0.495117 90.7627 c 0
 79.8926 95.96 156.157 115.088 220.13 140.101 c 0
 225.086 142.038 226.681 145.158 220.925 147.004 c 0
 151.688 169.203 70.96 186.557 -14.5303 179.571 c 0
 -23.3428 178.852 -19.9082 186.286 -18.9209 189.304 c 0
 -10.4033 215.352 -4.77441 232.441 4.2373 250.959 c 0
 7.1416 256.926 14.6367 267.038 21.8564 269.708 c 0
EndSplineSet
EndChar

StartChar: baa+haa.isol
Encoding: 65557 -1 21
Width: 0
VWidth: 0
LayerCount: 2
Fore
SplineSet
1.70703 460.156 m 1
 -0.40918 517.898 27.9473 542.498 90.7852 579.699 c 1
 180.806 631.306 264.292 675.64 300.084 765.34 c 0
 323.235 825.192 340.292 874.226 370.185 874.059 c 0
 400.079 873.892 427.454 839.18 431.29 771.262 c 0
 433.167 738.026 433.679 694.888 432.417 667.186 c 0
 431.6 649.256 411.963 650.119 409.898 667.875 c 0
 406.341 698.479 393.862 778.05 359.465 777.939 c 0
 341.768 777.884 331.925 755.136 312.562 715.397 c 0
 276.148 640.67 208.806 587.683 135.906 547.107 c 0
 89.9541 521.531 46.3594 489.342 1.70703 460.156 c 1
134.344 542.637 m 0
 285.068 534.915 400.812 537.06 543.307 547.971 c 0
 547.854 548.319 553.326 545.678 551.641 539.41 c 2
 551.641 539.41 543.478 500.896 536.372 482.632 c 0
 533.184 474.437 527.535 472.87 522.396 472.244 c 0
 470.898 465.973 380.88 448.721 303.522 417.573 c 0
 202.635 376.95 68.6377 280.738 65.9131 139.57 c 0
 63.5703 18.2432 121.807 -45.9766 199.807 -76.4678 c 0
 336.124 -129.756 578.627 -109.863 679.062 -97.6289 c 0
 694.364 -95.7764 691.443 -115.61 683.682 -118.938 c 0
 595.251 -156.846 485.015 -203.206 381.973 -198.422 c 0
 255.374 -192.544 75.5801 -175.35 33.9893 1.65137 c 0
 3.73828 130.398 61.5146 343.773 242.7 458.196 c 1
 1.70703 460.156 l 1
 0.411133 495.522 10.5459 518.455 33.0332 539.466 c 1
 40.4609 544.571 85.416 545.144 134.344 542.637 c 0
EndSplineSet
EndChar

StartChar: baa+heh.init
Encoding: 65558 -1 22
Width: 0
VWidth: 0
AnchorPoint: "cursive" 146 16 exit 0
LayerCount: 2
Fore
SplineSet
407.624 62.7266 m 1
 391.587 95.1904 371.804 105.984 333.201 104.171 c 0
 245.994 100.023 171.539 54.0645 152.974 14.0439 c 0
 138.986 -16.1094 132.147 -17.0479 130.792 -13.042 c 0
 128.016 -4.83984 140.272 18.543 144.735 26.1143 c 0
 184.057 92.8213 225.945 130.495 271.458 155.138 c 0
 330.611 187.167 385.042 195.294 429.946 177.801 c 0
 445.735 171.65 464.216 158.946 465.202 137.137 c 0
 466.062 118.092 457.935 91.3232 435.243 65.0674 c 0
 425.793 54.1348 413.966 53.5527 407.624 62.7266 c 1
152.974 14.0439 m 0
 114.236 -72.957 134.216 -150.859 157.187 -211.584 c 0
 158.978 -216.318 160.257 -220.127 157.187 -224.691 c 2
 122.547 -276.182 l 2
 119.851 -280.19 117.769 -287.749 112.248 -281.332 c 0
 46.4395 -204.827 44.5781 -86.915 72.459 33.2363 c 1
 41.8174 10.6611 16.8838 2.79004 0 0 c 0
 -12.9102 -2.13281 -22.6787 41.0762 -24.7432 63.8027 c 0
 -26.8105 86.5547 -19.2822 86.9395 0 89.877 c 0
 71.9453 100.839 107.809 147.305 144.08 208.308 c 1
 158.376 227.367 173.962 214.456 167.017 202.223 c 0
 148.971 170.434 124.632 121.189 107.626 69.9023 c 0
 88.416 11.9746 78.1963 -48.1904 90.1309 -81.918 c 0
 90.626 -83.3164 92.2148 -83.125 92.9092 -81.3838 c 0
 109.8 -39.0107 126.963 -3.57617 144.735 26.1143 c 0
 173.203 73.6719 172.806 58.583 152.974 14.0439 c 0
EndSplineSet
Colour: ff0000
EndChar

StartChar: baa+heh.medi
Encoding: 65559 -1 23
Width: 0
VWidth: 0
AnchorPoint: "cursive" 166 11 exit 0
LayerCount: 2
Fore
SplineSet
178.556 11.3975 m 0
 139.268 -67.6182 158.146 -154.606 177.262 -210.926 c 0
 178.889 -215.719 180.332 -219.469 177.262 -224.033 c 2
 142.622 -275.524 l 2
 139.926 -279.532 137.844 -287.091 132.323 -280.674 c 0
 66.5137 -204.169 64.6533 -86.2578 92.5342 33.8936 c 1
 61.8926 11.3184 36.959 3.44727 20.0752 0.657227 c 0
 7.16504 -1.47559 -2.60352 41.7344 -4.66797 64.4609 c 0
 -6.73535 87.2129 0.792969 87.5967 20.0752 90.5352 c 0
 92.0195 101.497 127.884 147.963 164.155 208.966 c 1
 178.451 228.024 194.037 215.113 187.092 202.881 c 0
 169.046 171.092 144.707 121.847 127.701 70.5596 c 0
 108.491 12.6328 98.2715 -47.5322 110.206 -81.2598 c 0
 110.701 -82.6582 112.29 -82.4668 112.984 -80.7266 c 0
 129.875 -38.3525 147.038 -2.91797 164.811 26.7725 c 0
 193.278 74.3291 200.263 55.0537 178.556 11.3975 c 0
289.491 78.7295 m 0
 249.3 70.2969 205.766 49.1982 182.705 16.1895 c 0
 174.573 4.55078 168.434 -9.00977 164.207 -23.7988 c 0
 158.168 -44.9258 133.036 -33.2061 144.87 -8.64453 c 0
 171.771 47.1914 210.305 100.396 256.355 134.067 c 0
 290.701 159.181 330.611 173.159 376.861 166.861 c 0
 416.66 161.44 421.583 106.394 475.413 100.76 c 0
 500.396 98.1445 489.771 9.18848 475.543 9.72461 c 0
 433.682 11.3037 408.199 33.458 387.558 53.1514 c 0
 353.045 86.0781 334.744 88.2236 289.491 78.7295 c 0
EndSplineSet
Colour: ff0000
EndChar

StartChar: baa+meem+alef.fina
Encoding: 65560 -1 24
Width: 0
VWidth: 0
AnchorPoint: "cursive" 139 40 exit 0
AnchorPoint: "cursive" 194 108 entry 0
LayerCount: 2
Fore
SplineSet
338.42 -5.04688 m 0
 353.119 -7.97852 356.901 -16.1934 354.665 -24.5957 c 2
 333.115 -105.567 l 2
 329.381 -119.598 316.319 -116.544 307.51 -115.754 c 0
 246.508 -110.279 145.367 -69.9688 105.491 16.2881 c 0
 72.9697 86.6338 67.6797 230.038 56.6436 336.547 c 0
 41.4473 483.214 39.8672 543.96 2.61719 706.056 c 0
 1.12988 712.527 0.138672 720.827 2.06641 725.054 c 0
 12.0244 746.881 18.751 758.153 30.1504 778.468 c 0
 35.085 787.261 40.0977 783.253 42.2646 777.642 c 0
 74.4902 694.197 81.7559 572.967 93.4668 446.911 c 0
 106.694 304.525 110.976 100.498 164.751 70.9639 c 0
 211.704 45.1777 222.247 18.1191 338.42 -5.04688 c 0
202.433 118.21 m 0
 202.947 31.7188 277.701 5.41309 338.42 -5.04688 c 1
 352.969 -8.65918 356.901 -16.1934 354.665 -24.5957 c 2
 333.115 -105.567 l 2
 329.381 -119.598 316.132 -117.706 307.51 -115.754 c 0
 173.823 -85.4863 34.1406 145.259 164.751 70.9639 c 0
 180.274 62.1338 178.157 69.0742 178.348 72.6982 c 0
 179.496 94.5537 182.01 115.073 195.77 156.492 c 0
 202.154 175.713 202.293 141.595 202.433 118.21 c 0
330.266 167.166 m 0
 283.692 172.97 214.959 142.19 202.433 118.21 c 1
 202.755 92.9316 208.502 72.2168 219.963 56.6904 c 0
 272.561 -14.5615 170.354 -44.6719 178.348 72.6982 c 0
 179.834 94.5332 181.982 115.082 195.77 156.492 c 0
 208.629 195.118 284 258.387 357.916 257.318 c 0
 392.614 256.816 388.135 203.94 461.556 170.595 c 0
 529.782 139.609 485.126 72.7314 461.234 80 c 0
 369.499 107.907 360.579 163.389 330.266 167.166 c 0
EndSplineSet
Colour: ff0000
EndChar

StartChar: baa+meem+haa.init
Encoding: 65561 -1 25
Width: 0
VWidth: 0
AnchorPoint: "cursive" 338 360 entry 0
AnchorPoint: "cursive" 78 248 exit 0
LayerCount: 2
Fore
SplineSet
411.587 659.162 m 0
 441.062 663.307 478.238 650.471 502.11 623.636 c 0
 503.995 621.396 505.206 615.947 504.382 612.791 c 0
 497.793 587.566 491.104 567.957 482.858 544.355 c 0
 478.249 531.162 472.319 529.626 464.759 535.91 c 0
 439.375 557.008 386.138 601.985 311.926 528.037 c 0
 307.869 523.994 307.438 517.717 308.646 511.552 c 0
 313.532 486.638 347.694 401.402 402.434 392.158 c 0
 445.233 384.931 308.175 303.987 283.175 375.608 c 0
 262.91 433.665 263.727 498.57 280.724 536.912 c 0
 316.536 617.702 371.469 652.537 411.587 659.162 c 0
56.5605 266.78 m 0
 66.874 272.132 100.725 252.675 128.792 245.567 c 0
 238.734 217.726 373.954 177.805 535.807 188.547 c 0
 545.964 189.222 558.057 180.048 548.15 167.193 c 0
 533.956 148.772 522.52 131.997 501.915 108.071 c 0
 498.236 103.799 496.332 102.001 490.363 102.896 c 0
 325.232 127.689 168.694 52.1963 0 0 c 0
 -30.0215 -9.28906 -38.8086 87.0498 0.0351562 90.8838 c 0
 88.5947 99.625 161.344 115.614 240.849 137.011 c 1
 130.169 168.858 66.582 175.651 6.33301 176.994 c 0
 2.47461 177.079 -0.805664 180.798 -0.19043 184.934 c 0
 6.4082 229.311 26.2988 251.074 56.5605 266.78 c 0
283.175 375.608 m 0
 312.449 384.495 368.052 399.876 402.434 392.158 c 0
 431.929 385.537 464.778 375.538 487.838 352.206 c 0
 489.915 350.104 493.43 346.116 491.291 339.288 c 2
 465.923 269.785 l 2
 464.633 265.666 459.804 264.272 454.443 266.902 c 0
 352.498 316.904 293.823 345.188 124.143 249.023 c 0
 71.2275 219.033 34.9209 254.833 56.5605 266.78 c 0
 79.1348 279.242 180.928 344.566 283.175 375.608 c 0
EndSplineSet
Colour: ff0000
EndChar

StartChar: baa+meem.fina
Encoding: 65562 -1 26
Width: 0
VWidth: 0
AnchorPoint: "cursive" 155 59 exit 0
LayerCount: 2
Fore
SplineSet
370.659 188.658 m 0
 415.588 187.354 447.758 119.363 478.021 89.7598 c 0
 487.02 80.958 504.713 69.376 504.868 36.2344 c 0
 505.021 3.4834 484.215 -2.32422 478.092 -1.08887 c 0
 424.025 9.82031 412.35 72.8359 372.214 97.124 c 0
 317.643 130.146 225.07 87.5566 185.407 55.3975 c 0
 153.434 29.4727 126.147 62.5781 137.534 77.8037 c 0
 143.988 86.4326 290.155 190.994 370.659 188.658 c 0
137.534 77.8037 m 1
 150.177 72.7832 167.309 64.3105 185.407 55.3975 c 0
 236.2 30.3828 277.647 13.9678 339.759 -38.4141 c 0
 343.86 -41.873 344.866 -50.3604 342.235 -57.0342 c 2
 312.012 -133.703 l 2
 310.603 -137.275 305.102 -141.225 301.993 -139.775 c 0
 219.015 -101.094 99.0781 -114.965 36.8525 -173.056 c 0
 33.0811 -176.573 34.5195 -180.418 33.041 -186.085 c 0
 23.1523 -223.956 46.8301 -324.701 70.418 -424.321 c 0
 89.3623 -504.326 101.331 -593.113 99.2305 -640.131 c 0
 97.8086 -671.973 73.2012 -686.614 68.7236 -647.047 c 0
 57.6748 -549.395 28.2295 -445.737 11.1445 -367.244 c 0
 -9.25391 -273.523 -20.4492 -191.248 24.1621 -119.749 c 0
 53.2207 -73.1758 105.048 -45.5166 121.775 -42 c 1
 114.021 -37.4902 101.45 -32.1484 92.4443 -28.0596 c 0
 87.7148 -25.9121 86.3984 -22.1895 87.6113 -18.8457 c 0
 98.7871 11.9482 112.76 45.0811 137.534 77.8037 c 1
EndSplineSet
Colour: ff0000
EndChar

StartChar: baa+meem.init
Encoding: 65563 -1 27
Width: 0
VWidth: 0
AnchorPoint: "cursive" 170 144 exit 0
LayerCount: 2
Fore
SplineSet
331.401 348.773 m 1
 331.401 348.773 l 1
 293.222 381.864 253.812 389.692 217.816 371.49 c 0
 188.841 356.839 159.993 333.132 143.809 298.021 c 0
 142.056 294.217 141.624 290.125 142.42 286.298 c 0
 150.495 247.463 184.633 197.051 202.783 184.075 c 0
 227.01 167.4 210.436 128.697 186.565 117.013 c 0
 162.695 105.329 124.16 115.348 116.511 140.795 c 0
 111.803 156.455 91.7539 240.36 112.917 306.012 c 0
 121.666 333.152 132.269 362.752 150.064 387.057 c 0
 187.751 438.524 243.06 474.896 275.252 475.529 c 0
 307.023 476.154 338.948 467.671 363.473 442.314 c 0
 369.753 435.821 376.178 429.024 373.664 418.584 c 0
 367.986 395.013 359.972 371.909 345.433 350.109 c 0
 341.95 344.889 338.155 342.921 331.401 348.773 c 1
116.511 140.795 m 0
 150.03 151.021 191.85 192.758 202.783 184.075 c 0
 227.272 164.627 271.783 153.752 311.023 125.277 c 0
 318.014 120.205 326.223 110.18 323.384 100.557 c 2
 302.003 28.0625 l 2
 300.323 22.3652 298.18 14.3652 286.302 20.0449 c 0
 227.638 48.0938 210.173 63.6807 168.444 63.4629 c 0
 97.6543 63.0938 57.7881 10.46 0 0 c 0
 -13.4053 -2.42676 -19.9541 32.8887 -23.875 48.6377 c 0
 -29.7344 72.1699 -27.8428 82.6904 0.40625 90.2979 c 0
 52.8965 104.435 79.3486 129.458 116.511 140.795 c 0
EndSplineSet
Colour: ff0000
EndChar

StartChar: baa+meem.isol
Encoding: 65564 -1 28
Width: 0
VWidth: 0
AnchorPoint: "cursive" 136 503 exit 0
LayerCount: 2
Fore
SplineSet
113.114 521.227 m 1
 127.362 519.582 156.317 511.395 172.694 503.912 c 0
 231.55 477.022 277.818 462.901 339.656 407.157 c 0
 344.61 402.691 345.186 402.384 341.556 395.923 c 2
 298.244 318.829 l 2
 294.431 312.041 291.18 312.373 287.113 313.743 c 0
 184.669 348.257 96.5293 324.974 45.4355 295.838 c 1
 35.8389 263.021 55.0918 164.774 69.0352 100.492 c 0
 89.0771 8.08691 116.992 -91.6357 109.189 -174.945 c 0
 106.358 -205.168 82.5928 -205.917 80.9414 -175.783 c 0
 77.9766 -121.665 51.126 -16.748 28.9414 78.8447 c 0
 9.54004 162.443 0.0800781 236.843 7.94336 273.87 c 0
 17.083 316.91 22.9287 372.03 107.068 391.636 c 1
 79.8936 405.976 l 2
 69.8369 410.835 73.1748 421.73 75.1367 430.841 c 0
 80.8096 457.274 95.6875 494.631 113.114 521.227 c 1
457.744 542.506 m 0
 443.875 524.719 430.526 526.468 425.634 544.178 c 0
 420.369 563.232 409.485 577.128 383.4 579.621 c 0
 319.974 585.684 223.435 535.153 172.694 503.912 c 0
 124.491 474.232 106.762 514.862 113.114 521.227 c 0
 131.019 539.167 224.084 604.148 310.369 642.098 c 0
 349.369 659.25 384.879 670.374 418.968 670.247 c 0
 457.15 670.108 512.855 647.511 492.799 595.386 c 1
 492.799 595.386 469.645 557.769 457.744 542.506 c 0
EndSplineSet
Colour: ff0000
EndChar

StartChar: baa+noon.fina
Encoding: 65565 -1 29
Width: 0
VWidth: 0
AnchorPoint: "cursive" 490 169 exit 0
LayerCount: 2
Fore
SplineSet
708.216 0 m 0
 678.155 4.39062 660.771 12.1523 647.478 35.8027 c 0
 633.315 60.999 620.603 107.642 606.396 202.388 c 0
 605.826 206.19 604.316 206.261 602.617 203.002 c 0
 591.027 180.767 565.534 141.786 514.488 134.638 c 0
 480.984 129.945 475.37 154.765 472.466 174 c 0
 468.645 199.305 476.228 221.321 498.102 217.35 c 0
 558.218 206.432 591.746 239.875 614.022 289.945 c 0
 621.416 306.708 637.972 306.98 639.959 286.566 c 0
 643.91 245.981 655.082 151.628 668.676 122.408 c 0
 678.401 101.504 687.814 92.1826 708.336 88.875 c 0
 722.274 86.6279 733.651 76.8027 729.006 47.6611 c 0
 724.361 18.5195 717.261 -1.32129 708.216 0 c 0
511.188 129.66 m 0
 512.828 93.0254 513.879 38.0068 493.671 -18.9316 c 0
 461.552 -109.427 375.626 -197.118 212.678 -200.963 c 0
 104.046 -203.526 32.3369 -169.459 10.6025 -98.1006 c 0
 -19.2783 0 31.2607 111.193 70.9473 176.096 c 0
 78.8965 189.095 95.1992 179.92 87.0303 164.879 c 0
 71.7842 136.807 17.6045 40.8271 45.0137 -28.252 c 0
 62.3262 -71.8838 121.069 -114.455 217.945 -107.672 c 0
 359.348 -97.7715 447.217 -40.4668 473.655 9.51758 c 0
 474.492 11.0996 475.203 13.4971 475.563 15.2441 c 0
 480.595 39.5908 466.444 128.327 437.825 177.328 c 0
 434.546 182.942 437.438 186.042 438.546 190.229 c 2
 438.546 190.229 449.605 231.988 455.135 252.868 c 0
 456.546 258.196 461.155 260.91 466.594 256.95 c 0
 475.217 250.671 489.167 221.106 504.597 208.717 c 0
 529.276 188.899 509.47 157.729 511.188 129.66 c 0
EndSplineSet
Colour: ff0000
EndChar

StartChar: baa+noon.isol
Encoding: 65566 -1 30
Width: 0
VWidth: 0
AnchorPoint: "cursive" 499 180 entry 0
LayerCount: 2
Fore
SplineSet
512.44 115.709 m 0
 503.277 51.5986 484.073 -34.043 460.645 -71.959 c 0
 418.172 -140.695 324.137 -207.601 196.866 -206.898 c 0
 66.3613 -206.179 -2.68848 -124.341 1.30566 -33.293 c 0
 4.05566 29.3994 48.498 138.526 71.8477 179.17 c 0
 77.9824 189.851 96.7061 183.948 89.4873 168.008 c 0
 73.8613 133.505 46.6064 78.4307 43.4326 36.6582 c 0
 38.5205 -27.9824 87.5303 -95.6807 209.174 -98.0742 c 0
 325.145 -100.355 434.659 -34.3594 462.061 9.09277 c 0
 464.765 13.3809 465.993 17.5518 466.659 22.4111 c 0
 475.266 85.166 460.109 143.739 433.302 199.898 c 0
 430.713 205.318 429.001 209.912 430.631 215.674 c 0
 436.533 236.524 451.903 268.602 457.837 281.288 c 0
 460.265 286.476 463.789 288.721 468.659 284.487 c 0
 482.119 272.788 490.979 259.001 500.276 241.42 c 0
 517.278 209.273 517.111 148.393 512.44 115.709 c 0
612.085 299.33 m 0
 620.875 206.933 600.675 141.172 516.905 122.718 c 0
 496.235 118.164 472.5 152.779 471.176 186.114 c 0
 469.748 222.06 491.879 256.604 500.276 241.42 c 0
 503.592 235.424 507.95 232.272 513.897 229.794 c 0
 530.082 223.047 562.751 227.149 572.642 236.034 c 0
 583.109 245.436 588.291 275.051 590.06 298.035 c 0
 591.521 317.018 610.796 312.877 612.085 299.33 c 0
EndSplineSet
Colour: ff0000
EndChar

StartChar: baa+raa.fina
Encoding: 65567 -1 31
Width: 0
VWidth: 0
AnchorPoint: "cursive" 376 163 entry 0
LayerCount: 2
Fore
SplineSet
618.204 90.6631 m 0
 630.188 86.4316 648.582 78.8809 644.328 52.2656 c 0
 640.074 25.6514 629.016 -1.13574 618.331 0 c 0
 532.386 9.13379 525.647 65.2744 514.294 197.711 c 0
 513.962 201.585 511.754 201.844 510.054 198.122 c 0
 473.337 117.793 430.666 117.463 399.391 113.393 c 0
 333.741 104.848 351.471 230.771 386.734 204.638 c 0
 390.181 202.084 393.863 200.1 398.569 199.903 c 0
 473.922 196.76 494.313 227.54 516.356 299.859 c 0
 520.825 314.519 537.934 310.902 539.701 298.209 c 0
 556.756 176.543 545.04 116.499 618.204 90.6631 c 0
377.789 215.688 m 0
 385.136 202.826 400.378 194.407 401.033 180.71 c 0
 402.001 160.493 398.704 135.722 396.112 108.937 c 0
 393.635 83.3252 392.477 53.8721 383.12 13.1309 c 0
 364.305 -68.7998 260.207 -183.67 201.168 -195.632 c 0
 150.946 -205.807 67.375 -172.44 6.4248 -147.853 c 0
 -2.04395 -144.437 -5.87793 -129.447 12.6084 -131.639 c 0
 70.3037 -138.48 124.028 -145.038 179.908 -130.197 c 0
 256.745 -109.79 333.824 -26.499 364.886 25.8203 c 0
 365.563 26.9619 366.496 28.8408 366.482 30.5283 c 0
 366.182 70.9131 338.108 110.138 322.288 131.287 c 0
 320.767 133.32 320.741 134.422 321.434 137.059 c 0
 330.389 171.142 340.196 204.259 350.248 238.594 c 0
 351.646 243.367 356.788 242.679 360.753 239.777 c 0
 367.764 234.647 372.657 224.674 377.789 215.688 c 0
EndSplineSet
Colour: ff0000
EndChar

StartChar: baa+raa.isol
Encoding: 65568 -1 32
Width: 0
VWidth: 0
AnchorPoint: "cursive" 382 135 entry 0
LayerCount: 2
Fore
SplineSet
502.108 262.77 m 0
 507.578 262.939 513.252 258.365 514.015 251.176 c 0
 523.89 158.189 498.168 87.5889 418.858 74.582 c 0
 393.457 70.416 370.669 71.8438 350.405 82.1572 c 0
 337.084 88.9375 341.276 106.071 342.66 113.854 c 0
 346.526 135.598 352.039 159.84 357.788 189.782 c 0
 359.878 200.669 372.179 200.524 375.946 195.928 c 0
 407.237 157.745 494.666 165.068 491.983 249.895 c 0
 491.702 258.812 497.282 262.62 502.108 262.77 c 0
375.946 195.928 m 0
 409.197 155.36 415.505 128.295 408.671 57.3008 c 0
 402.116 -10.7979 372.679 -66.4248 324.702 -120.137 c 0
 283.806 -165.922 239.789 -196.613 196.358 -198.293 c 0
 124.741 -201.062 67.9043 -185.108 7.67676 -145.953 c 0
 -6.73242 -137.548 -0.216797 -122.806 12.7393 -127.734 c 0
 94.9541 -154.809 164.324 -144.382 240.296 -101.637 c 1
 293.777 -70.2881 358.697 -12.9873 375.358 40.3008 c 1
 377.669 59.4277 380.229 66.3486 350.405 82.1572 c 0
 337.198 89.1582 341.276 106.071 342.66 113.854 c 0
 346.526 135.598 352.039 159.84 357.788 189.782 c 0
 359.878 200.669 372.178 200.525 375.946 195.928 c 0
EndSplineSet
Colour: ff0000
EndChar

StartChar: baa+seen.init.alt
Encoding: 65569 -1 33
Width: 0
VWidth: 0
AnchorPoint: "cursive" 292 151 entry 0
LayerCount: 2
Fore
SplineSet
293.057 177.572 m 0
 310.851 152.018 297.677 89.7295 290.952 107.925 c 0
 289.23 112.584 286.583 112.647 284.47 107.985 c 0
 267.934 71.5098 235.258 -1.90234 199.615 -5.89355 c 0
 159.052 -10.4365 120.218 15.4385 92.8574 47.4248 c 1
 62.624 15.9697 44.5596 3.68555 0 0 c 0
 -8.32129 -0.688477 -19.0537 29.7646 -21.3174 56.5107 c 0
 -23.5801 83.2568 -20.8076 91.8418 -0.0517578 90.4355 c 0
 100.163 83.6504 120.333 123.379 138.792 169.206 c 0
 145.964 187.01 164.839 178.725 159.202 164.349 c 0
 154.945 153.493 152.111 146.242 150.226 136.337 c 0
 148.422 126.863 150.11 116.93 154.577 112.388 c 0
 167.584 99.1582 212.344 72.6719 240.639 85.9502 c 0
 254.84 92.6152 270.035 146.277 280.192 175.753 c 0
 281.888 180.674 289.232 183.064 293.057 177.572 c 0
382.206 430.324 m 0
 382.207 430.327 l 1
 382.206 430.327 l 1
 382.206 430.327 l 1
 382.206 430.327 l 1
 385.53 430.366 389.266 428.014 391.188 424.758 c 0
 412.157 389.256 438.922 310.075 452.259 234.485 c 0
 458.317 200.149 459.93 166.527 459.908 138.125 c 0
 459.874 95.1816 433.716 17.7803 414.73 14.3799 c 0
 360.455 4.65918 303.911 74.8662 290.952 107.925 c 0
 267.987 166.504 286.603 187.932 293.057 177.572 c 0
 330.447 117.55 399.608 69.6221 430.136 93.5381 c 0
 431.2 94.3721 432.005 96.8018 432.043 99.3037 c 0
 432.401 123.593 422.19 169.883 408.823 212.457 c 0
 397.077 249.866 380.775 289.853 359.363 329.335 c 0
 357.888 332.055 357.887 334.22 358.157 336.274 c 0
 361.769 363.702 367.629 396.312 376.237 425.236 c 0
 377.302 428.811 379.621 430.294 382.206 430.324 c 0
EndSplineSet
EndChar

StartChar: baa+seen.init
Encoding: 65570 -1 34
Width: 0
VWidth: 0
AnchorPoint: "cursive" 492 199 entry 0
LayerCount: 2
Fore
SplineSet
497.955 238.172 m 0
 510.267 213.062 506.92 130.211 492.186 152.267 c 0
 489.41 156.423 486.363 156.412 484.071 150.376 c 0
 473.007 121.252 443.087 59.1279 425.422 42.9102 c 0
 416.438 34.6621 400.189 33.9033 385.03 34.8984 c 0
 354.747 36.8857 319.892 52.1992 289.413 81.1533 c 1
 262.968 47.8555 230.726 18.6943 187.95 19.6367 c 0
 145.174 20.5791 117.496 53.6396 107.787 74.0176 c 0
 106.642 76.4209 104.214 76.166 102.86 74.4414 c 0
 81.3174 47.0117 38.96 15.0967 0 0 c 0
 -12.0859 -4.68262 -38.8184 81.2959 0.360352 90.6338 c 0
 46.5742 101.648 98.2432 128.082 136.271 199.004 c 0
 143.768 213.015 159.427 203.708 156.365 194.138 c 0
 149.646 173.142 142.219 157.327 145.646 150.074 c 0
 152.644 135.268 177.67 114.885 214.779 115.311 c 0
 272.408 115.973 317.562 166.165 337.135 217.534 c 0
 343.857 235.177 363.162 227.361 358.459 213.273 c 0
 354.343 200.943 351.297 191.146 347.488 174.613 c 0
 346.648 170.967 346.432 165.945 350.265 161.584 c 0
 365.968 143.713 413.874 132.111 431.062 133.981 c 0
 441.553 135.123 449.168 143.711 451.919 150.426 c 0
 462.469 176.177 471.255 208.268 480.998 237.928 c 0
 485.578 251.872 492.496 249.305 497.955 238.172 c 0
580.037 497.162 m 0
 612.434 435.13 666.678 266.491 647.79 135.878 c 0
 644.621 113.967 631.667 61.2422 607.115 63.8564 c 0
 557.322 69.1592 510.56 124.521 492.186 152.267 c 0
 480.039 170.608 475.967 204.265 478.305 225.335 c 0
 480.558 245.636 489.271 256.829 497.955 238.172 c 0
 529.468 170.475 598.189 143.718 613.616 141.125 c 0
 617.44 140.482 620.583 142.068 620.572 150.904 c 0
 620.479 225.373 578.795 335.082 549.49 385.519 c 0
 544.86 393.488 547.027 397.722 547.921 403.738 c 0
 551.663 428.955 561.179 477.165 567.209 497.641 c 0
 569.247 504.562 575.497 505.854 580.037 497.162 c 0
EndSplineSet
Colour: ff0000
EndChar

StartChar: baa+yaa.isol
Encoding: 65571 -1 35
Width: 0
VWidth: 0
AnchorPoint: "cursive" 418 99 entry 0
LayerCount: 2
Fore
SplineSet
404.242 135.429 m 0
 442.374 138.676 489.694 135.867 526.01 126.449 c 0
 557.55 118.27 598.811 97.0801 613.018 60.6602 c 0
 625.674 28.2188 595.543 -51.5674 565.654 -77.7139 c 0
 500.323 -134.865 376.735 -190.813 277.58 -203.047 c 0
 88.9492 -226.318 14.2354 -134.557 2.06641 -22.501 c 0
 -8.83789 77.9111 49.7998 178.168 101.543 235.555 c 0
 111.063 246.112 129.93 234.184 117.174 219.702 c 0
 96.9473 196.737 28.0098 114.529 42.3896 34.29 c 0
 55.5977 -39.4141 127.944 -117.302 290.632 -102.717 c 0
 428.521 -90.3516 544.019 -15.7686 564.724 8.26855 c 0
 576.02 21.3818 570.71 25.3115 562.287 29.6943 c 0
 527.124 47.9902 455.036 62.8223 370.438 64.8584 c 0
 364.765 64.9951 363.307 69.3281 365.814 74.3564 c 2
 393.988 130.849 l 2
 395.771 134.425 399.253 135.004 404.242 135.429 c 0
483.865 468.226 m 0
 487.543 482.597 494.71 481.191 500.906 475.354 c 0
 531.597 446.436 564.435 373.431 572.101 326.166 c 0
 585.493 243.589 562.083 175.753 525.215 134.246 c 0
 487.562 91.8574 436.27 67.3926 370.438 64.8584 c 0
 364.769 64.6406 363.307 69.3281 365.814 74.3564 c 2
 393.988 130.849 l 2
 395.771 134.425 399.273 134.801 404.242 135.429 c 0
 444.768 140.548 511.404 161.164 544.709 205.54 c 1
 549.004 283.354 495.1 343.276 462.91 369.552 c 0
 453.509 376.031 455.813 382.89 458.595 391.459 c 0
 467.424 418.67 481.23 457.929 483.865 468.226 c 0
EndSplineSet
Colour: ff0000
EndChar

StartChar: baa.fina
Encoding: 65572 -1 36
Width: 0
VWidth: 0
LayerCount: 2
Fore
SplineSet
57.0518 253.914 m 0
 67.4805 264.883 83.3545 252.592 72.6807 237.981 c 0
 54.79 213.492 38.1738 183.733 44.9844 154.387 c 0
 71.25 41.2168 218.66 17.0508 347.578 22.2617 c 0
 460.668 26.8018 548.383 46.8057 606.484 64.043 c 0
 694.433 90.1357 711.445 96.4863 723.06 148.056 c 0
 726.986 165.491 754.359 164.728 752.278 138.681 c 0
 751.739 132.767 747.672 118.294 755.234 112.466 c 0
 767.89 100.868 793.617 94.1064 810.891 90.5879 c 1
 831.428 87.7588 846.928 83.3115 843.583 58.2734 c 0
 840.248 33.3135 834.998 0 810.9 0 c 1
 785.1 9.80469 763.837 31.623 749.254 43.9219 c 0
 739.213 51.4482 738.326 48.7139 727.735 40.793 c 0
 635.546 -28.1572 467.159 -79.7871 297.329 -78.8945 c 0
 103.721 -77.877 34.4141 -22.4199 11.1416 40.668 c 0
 -18.5273 121.099 25.7568 220.999 57.0518 253.914 c 0
EndSplineSet
Substitution2: "BaaBaaIsol subtable" baa.fina_BaaBaaIsol
Colour: ff0000
EndChar

StartChar: baa.init
Encoding: 65573 -1 37
Width: 0
VWidth: 0
LayerCount: 2
Fore
SplineSet
56.333 276.213 m 0
 60.5127 282.937 68.417 280.891 72.3838 274.027 c 0
 83.1953 255.324 100.656 209.024 89.2539 114.479 c 0
 80.0371 38.04 30.2979 10.7471 0 0 c 1
 -10.2256 0 -16.9609 30.3652 -21.1572 50.9258 c 0
 -25.3535 71.4863 -23.8447 84.709 0.0175781 90.5273 c 0
 29.1035 97.6191 45.5889 110.061 54.4629 122.146 c 0
 56.3047 124.653 55.7939 126.616 55.3818 128.89 c 0
 51.2393 151.762 40.2666 169.615 28.1943 187.058 c 0
 23.4268 193.942 23.0127 205.264 25.5518 211.204 c 0
 35.9824 235.609 47.416 261.87 56.333 276.213 c 0
EndSplineSet
Substitution2: "BaaMeemIsol subtable" baa.init_BaaMeemIsol
Substitution2: "BaaBaaMeemInit subtable" baa.init_BaaBaaMeemInit
Substitution2: "BaaBaaIsol subtable" baa.init_BaaBaaIsol
Substitution2: "BaaBaaHaaInit subtable" baa.init_BaaBaaHaaInit
Substitution2: "BaaHehInit subtable" baa.init_BaaHehInit
Substitution2: "BaaMeemInit subtable" baa.init_BaaMeemInit
Substitution2: "BaaSeenInit subtable" baa.init_BaaSeenInit
Substitution2: "BaaNoonIsol subtable" baa.init_BaaNoonIsol
Substitution2: "BaaBaaInit subtable" baa.init_BaaBaaInit
Substitution2: "BaaBaaYaaIsol subtable" baa.init_BaaBaaYaaIsol
Substitution2: "BaaMeemHaaInit subtable" baa.init_BaaMeemHaaInit
Substitution2: "BaaDalIsol subtable" baa.init_BaaDalIsol
Substitution2: "BaaYaaIsol subtable" baa.init_BaaYaaIsol
Substitution2: "BaaRaaIsol subtable" baa.init_BaaRaaIsol
Colour: ff0000
EndChar

StartChar: baa.isol
Encoding: 65574 -1 38
Width: 0
VWidth: 0
LayerCount: 2
Fore
SplineSet
757.302 381.124 m 0
 816.465 314.414 811.873 149.118 753.554 108.391 c 0
 679.066 56.375 515.746 19.8379 401.649 7.10938 c 0
 264.798 -8.15723 114.501 -0.682617 31.3389 92.7617 c 0
 0.920898 126.939 -33.374 211.766 69.1104 324.247 c 0
 82.4502 338.889 97.0186 320.519 86.251 309.399 c 0
 70.2354 292.868 48.1064 260.058 52.0303 234.054 c 0
 65.1553 147.085 168.268 100.229 347.297 102.776 c 0
 497.566 104.903 677.603 141.674 761.492 199.194 c 1
 755.751 240.193 725.614 275.888 713.853 294.474 c 0
 711.682 297.904 711.276 301.191 712.234 305.26 c 0
 718.699 332.717 727.235 357.663 738.661 381.124 c 0
 741.979 387.938 748.483 391.066 757.302 381.124 c 0
EndSplineSet
Substitution2: "'fina' Terminal Forms in Arabic lookup 3 subtable" baa.fina
Substitution2: "'medi' Medial Forms in Arabic lookup 2 subtable" baa.medi
Substitution2: "'init' Initial Forms in Arabic lookup 1 subtable" baa.init
Colour: ff0000
EndChar

StartChar: baa.medi.alt
Encoding: 65575 -1 39
Width: 0
VWidth: 0
LayerCount: 2
Fore
SplineSet
76.457 365.885 m 0
 81.208 372.997 87.1104 364.711 88.9941 356.955 c 0
 106.355 285.508 124.107 177.321 143.956 133.855 c 0
 153.106 113.82 171.006 94.7734 189.729 90.0107 c 0
 206.271 85.8037 215.262 79.8799 209.582 48.5469 c 0
 203.902 17.2148 196.181 -1.4707 189.892 0.100586 c 0
 159.247 7.75977 112.026 32.4482 87.7803 127.21 c 0
 86.9062 130.649 85.751 131.552 84.6416 128.012 c 0
 68.9395 87.6143 46.1914 7.0332 0.275391 -0.0722656 c 0
 -10.916 -1.80469 -20.1904 44.959 -22.5176 60.332 c 0
 -24.8438 75.7051 -16.8926 86.5986 -0.0751953 90.0029 c 0
 27.4414 95.5732 61.2148 117.787 78.9238 151.592 c 0
 80.3076 154.233 80.459 155.802 79.7354 158.865 c 0
 71.6006 193.284 59.4053 255.548 50.9932 307.594 c 0
 50.248 312.208 50.0059 316.983 52.1426 321.437 c 0
 58.1992 334.062 67.5527 352.558 76.457 365.885 c 0
EndSplineSet
EndChar

StartChar: baa.medi
Encoding: 65576 -1 40
Width: 0
VWidth: 0
LayerCount: 2
Fore
SplineSet
208.227 81.082 m 0
 230.746 75.1377 232.314 63.2256 228.77 44.1699 c 0
 225.261 25.3018 217.468 -10.0156 208.08 -9.49316 c 0
 177.22 -7.77441 146.688 -2.4502 115.562 73.5498 c 0
 113.045 79.6943 106.909 86.8125 98.043 72.4902 c 0
 75.3271 39.3535 45.0215 5.09766 0 0 c 0
 -11.6025 -1.31348 -19.1826 43.3701 -22.3467 59.6318 c 0
 -25.5117 75.8945 -14.1064 89.1465 0.301758 89.7559 c 0
 25.2588 90.8096 55.3037 97.4404 80.543 114.225 c 0
 92.8184 122.388 104.44 134.538 109.673 150.492 c 0
 113.341 161.676 130.41 160.343 132.29 151.055 c 0
 141.817 103.978 156.314 94.7852 208.227 81.082 c 0
EndSplineSet
Substitution2: "BaaNoonFina subtable" baa.medi_BaaNoonFina
Substitution2: "KafBaaMedi subtable" baa.medi_KafBaaMedi
Substitution2: "BaaBaaMeemInit subtable" baa.medi_BaaBaaMeemInit
Substitution2: "SeenBaaMeemInit subtable" baa.medi_SeenBaaMeemInit
Substitution2: "BaaBaaHaaInit subtable" baa.medi_BaaBaaHaaInit
Substitution2: "BaaRaaFina subtable" baa.medi_BaaRaaFina
Substitution2: "BaaBaaInit subtable" baa.medi_BaaBaaInit
Substitution2: "KafBaaInit subtable" baa.medi_KafBaaInit
Substitution2: "BaaBaaYaaIsol subtable" baa.medi_BaaBaaYaaIsol
Substitution2: "LamBaaMeemInit subtable" baa.medi_LamBaaMeemInit
Substitution2: "BaaMeemFina subtable" baa.medi_BaaMeemFina
Substitution2: "BaaHehMedi subtable" baa.medi_BaaHehMedi
Substitution2: "BaaMeemAlefFina subtable" baa.medi_BaaMeemAlefFina
Colour: ff0000
EndChar

StartChar: colon
Encoding: 58 58 41
Width: 1000
VWidth: 0
LayerCount: 2
Fore
SplineSet
137.842 474.363 m 0
 137.842 436.741 107.343 406.243 69.7217 406.243 c 0
 32.0996 406.243 1.60156 436.741 1.60156 474.363 c 0
 1.60156 511.984 32.0996 542.483 69.7217 542.483 c 0
 107.343 542.483 137.842 511.984 137.842 474.363 c 0
140.178 68.1201 m 0
 140.178 30.498 109.68 0 72.0576 0 c 0
 34.4365 0 3.9375 30.498 3.9375 68.1201 c 0
 3.9375 105.742 34.4365 136.24 72.0576 136.24 c 0
 109.68 136.24 140.178 105.742 140.178 68.1201 c 0
EndSplineSet
EndChar

StartChar: coma
Encoding: 65577 -1 42
Width: 0
VWidth: 0
LayerCount: 2
Fore
SplineSet
110.996 389.011 m 0
 132.035 403.6 152.705 381.887 134.279 362.628 c 0
 78.1143 303.923 16.3047 228.501 49.5664 127.324 c 1
 52.8604 121.653 56.9287 118.804 61.2217 123.012 c 0
 75.1445 140.116 96.3555 151.074 120.129 151.074 c 0
 162.062 151.074 196.035 117.071 196.035 75.1367 c 0
 196.035 33.2031 158.005 -2.11621 116.129 -0.800781 c 0
 92.2051 -0.0488281 71.3232 5.44336 56.0039 17.2305 c 0
 11.5664 51.4238 -3.90918 107.779 4.31836 197.095 c 0
 12.5449 286.41 81.3584 368.459 110.996 389.011 c 0
EndSplineSet
EndChar

StartChar: dal.fina
Encoding: 65578 -1 43
Width: 0
VWidth: 0
LayerCount: 2
Fore
SplineSet
409.583 90.4287 m 0
 442.415 82.3389 435.352 -1.37891 409.444 0 c 0
 342.322 3.57227 327.009 78.8154 312.738 143.223 c 0
 311.398 149.273 308.208 146.845 307.033 143.377 c 0
 301.03 125.664 276.715 59.3408 226.458 37.3828 c 0
 192.902 22.7207 81.166 9.26953 34.6426 24.0137 c 0
 -15.5879 39.9326 4.43066 120.151 15.9004 151.488 c 0
 23.6992 172.794 39.1523 167.543 41.8838 161.011 c 0
 48.3125 145.636 50.7783 127.557 71.8945 120.375 c 0
 123.517 102.82 207.672 115.078 246.419 131.317 c 0
 269.823 141.126 292.089 164.146 297.375 186.656 c 0
 299.422 195.376 294.07 229.965 287.854 270.734 c 0
 279.603 324.838 269.527 389.785 265.734 420.383 c 0
 263.873 435.399 265.464 441.777 269.369 451.845 c 0
 276.065 469.104 284.064 484.785 292.349 502.638 c 0
 296.529 511.649 309.549 511.203 310.987 498.817 c 0
 325.406 374.684 352.816 210.619 364.36 164.6 c 0
 371.418 136.467 381.495 97.3486 409.583 90.4287 c 0
EndSplineSet
Substitution2: "KafDalIsol subtable" dal.fina_KafDalIsol
Substitution2: "BaaDalIsol subtable" dal.fina_BaaDalIsol
Substitution2: "LamDalIsol subtable" dal.fina_LamDalIsol
Colour: ff0000
EndChar

StartChar: dal.isol
Encoding: 65579 -1 44
Width: 0
VWidth: 0
LayerCount: 2
Fore
SplineSet
129.577 417.618 m 0
 134.063 423.125 138.476 426.508 145.066 424.178 c 0
 235.757 383.685 300.502 311.365 319.46 212.719 c 1
 326.567 168.461 325.696 123.646 309.988 78.1211 c 0
 306.692 68.5703 295.975 57.1377 289.24 54.2979 c 0
 225.177 27.2803 100.271 -10.041 32.5508 4.20703 c 0
 -3.40723 11.7715 -13.4746 48.9922 22.6562 125.834 c 0
 27.7363 136.639 39.1328 134.354 43.9297 129.711 c 0
 61.1074 113.086 77.2471 114.287 123.132 120.279 c 0
 166.517 125.944 247.905 137.748 278.211 158.355 c 0
 280.187 159.699 281.268 166.434 280.395 168.83 c 0
 253.773 254.589 185.551 292.953 108.062 315.014 c 1
 100.798 319.154 96.6436 327.744 98.6191 336.182 c 0
 104.559 361.56 117.891 403.272 129.577 417.618 c 0
EndSplineSet
Substitution2: "'fina' Terminal Forms in Arabic lookup 3 subtable" dal.fina
Colour: ff0000
EndChar

StartChar: dash
Encoding: 65580 -1 45
Width: 0
VWidth: 0
LayerCount: 2
Fore
SplineSet
0 89.4297 m 1
 675.561 89.4297 l 1
 675.561 0 l 1
 0 0 l 1
 0 89.4297 l 1
EndSplineSet
EndChar

StartChar: dot.double
Encoding: 65581 -1 46
Width: 0
VWidth: 0
LayerCount: 2
Fore
SplineSet
154.883 150.997 m 0
 157.685 155.139 158.214 154.69 163.158 152.988 c 0
 188.739 144.181 212.195 130.961 234.146 111.688 c 0
 238.231 108.101 238.559 107.614 235.411 102.699 c 0
 216.928 73.832 202.314 50.6143 187.837 27.3789 c 0
 185.368 23.416 185.382 22.5107 181.404 25.8252 c 0
 163.501 40.7432 134.212 56.8154 107.861 72.7783 c 0
 104.609 74.748 103.664 74.8154 105.967 78.3975 c 0
 123.951 106.365 138.854 127.3 154.883 150.997 c 0
50.5508 128.043 m 0
 53.3516 132.186 53.8809 131.737 58.8252 130.035 c 0
 84.4072 121.228 107.862 108.008 129.813 88.7344 c 0
 133.899 85.1475 134.226 84.6611 131.078 79.7451 c 0
 112.595 50.8789 97.9814 27.6611 83.5039 4.42578 c 0
 81.0352 0.462891 81.0488 -0.442383 77.0713 2.87207 c 0
 59.168 17.79 29.8789 33.8613 3.52832 49.8252 c 0
 0.276367 51.7949 -0.668945 51.8623 1.63477 55.4434 c 0
 19.6182 83.4111 34.5215 104.347 50.5508 128.043 c 0
EndSplineSet
EndChar

StartChar: dot.single
Encoding: 65582 -1 47
Width: 0
VWidth: 0
LayerCount: 2
Fore
SplineSet
49.1875 126.763 m 0
 51.9893 130.904 52.5195 130.456 57.4639 128.754 c 0
 83.0449 119.946 106.5 106.727 128.452 87.4531 c 0
 132.537 83.8672 132.863 83.3799 129.716 78.4648 c 0
 111.233 49.5977 96.6201 26.3799 82.1416 3.14453 c 0
 79.6729 -0.817383 79.6865 -1.72266 75.71 1.5918 c 0
 57.8066 16.5098 28.5176 32.5811 2.16602 48.5439 c 0
 -1.08594 50.5137 -2.03125 50.5811 0.271484 54.1631 c 0
 18.2549 82.1309 33.1592 103.065 49.1875 126.763 c 0
EndSplineSet
EndChar

StartChar: dot.tripple
Encoding: 65583 -1 48
Width: 0
VWidth: 0
LayerCount: 2
Fore
SplineSet
145.497 150.543 m 0
 148.299 154.685 148.829 154.236 153.773 152.534 c 0
 179.354 143.727 202.811 130.507 224.761 111.233 c 0
 228.846 107.646 229.173 107.16 226.026 102.244 c 0
 207.543 73.3779 192.93 50.1602 178.452 26.9248 c 0
 175.983 22.9619 175.997 22.0566 172.02 25.3711 c 0
 154.116 40.2891 124.827 56.3613 98.4766 72.3242 c 0
 95.2246 74.2939 94.2783 74.3613 96.5811 77.9434 c 0
 114.565 105.91 129.469 126.846 145.497 150.543 c 0
51.5283 127.59 m 0
 54.3291 131.731 54.8594 131.283 59.8027 129.581 c 0
 85.3848 120.773 108.84 107.554 130.791 88.2803 c 0
 134.877 84.6934 135.203 84.207 132.056 79.291 c 0
 113.573 50.4248 98.96 27.207 84.4824 3.97168 c 0
 82.0127 0.00878906 82.0273 -0.896484 78.0488 2.41797 c 0
 60.1465 17.3359 30.8574 33.4082 4.50586 49.3711 c 0
 1.25391 51.3408 0.307617 51.4082 2.6123 54.9902 c 0
 20.5947 82.957 35.499 103.893 51.5283 127.59 c 0
57.5957 251.943 m 0
 59.9209 256.37 60.4971 255.983 65.5996 254.84 c 0
 92 248.921 116.775 238.382 140.727 221.66 c 0
 145.186 218.548 145.563 218.101 142.98 212.866 c 0
 127.81 182.129 115.859 157.435 104.046 132.738 c 0
 102.031 128.527 102.145 127.629 97.8242 130.482 c 0
 78.3789 143.324 47.4893 156.051 19.5312 168.996 c 0
 16.0811 170.594 15.1338 170.556 17.0264 174.371 c 0
 31.7998 204.159 44.292 226.616 57.5957 251.943 c 0
EndSplineSet
EndChar

StartChar: faa+haa.init
Encoding: 65584 -1 49
Width: 0
VWidth: 0
AnchorPoint: "cursive" 61 247 entry 0
LayerCount: 2
Fore
SplineSet
44.5049 281.661 m 0
 79.3594 291.293 133.246 273.281 188.527 253.105 c 0
 288.183 216.733 406.139 202.705 550.478 204.864 c 0
 558.76 204.988 566.356 202.966 567.312 189.744 c 1
 543.015 131.071 l 1
 542.249 126.165 535.059 122.355 523.845 122.365 c 0
 409.603 127.965 322.974 113.073 240.527 83.75 c 0
 176.557 60.999 61.2559 15.1094 0 0 c 0
 -23.9287 -5.90234 -51.126 82.3828 -0.0859375 90.6582 c 0
 43.3252 97.6963 167.412 122.01 231.697 148.547 c 1
 157.097 177.239 77.4424 189.247 0.755859 206.052 c 1
 -0.217773 227.903 15.7109 273.704 44.5049 281.661 c 0
140.293 613.289 m 2
 140.294 613.289 l 2
 201.845 613.868 257.378 498.66 258.057 394.24 c 0
 258.471 330.403 223.483 277.124 188.527 253.105 c 0
 151.398 227.593 52.1748 200.876 0.755859 206.052 c 1
 -0.217773 227.903 15.6875 273.789 44.5049 281.661 c 0
 125.822 303.876 210.967 309.908 231.2 374.228 c 1
 228.774 389.023 221.991 401.318 211.823 415.93 c 1
 205.853 422.648 196.378 425.065 192.965 419.34 c 0
 174.468 388.325 134.843 350.015 97.0078 355.115 c 0
 37.2207 363.172 41.2666 437.573 59.3975 506.481 c 0
 74.5674 564.139 116.859 613.072 140.293 613.289 c 2
106.856 508.741 m 0
 99.7793 508.463 92.9961 505.44 86.4248 496.507 c 1
 86.5166 486.621 95.2959 460.94 116.46 460.528 c 0
 129.506 460.268 143.801 467.114 150.125 484.678 c 1
 137.823 497.9 123.222 507.243 111.795 508.529 c 0
 110.13 508.711 108.49 508.811 106.856 508.741 c 0
EndSplineSet
Colour: ff0000
EndChar

StartChar: faa+meem.init
Encoding: 65585 -1 50
Width: 0
VWidth: 0
AnchorPoint: "cursive" 242 241 entry 0
LayerCount: 2
Fore
SplineSet
183.799 257.96 m 0
 234.308 272.226 273.662 264.832 300.591 229.673 c 0
 317.438 207.677 328.375 170.651 322.395 136.914 c 0
 316.84 105.572 296.101 67.7012 280.398 51.7373 c 0
 274.114 45.3486 259.816 40.543 250.646 42.2998 c 0
 202.994 51.4297 166.518 71.1387 118.588 97.6338 c 1
 93.6182 53.5273 21.3047 1.24023 0 0 c 0
 -26.8271 -1.56152 -38.9404 88.5938 -0.339844 90.1113 c 0
 19.2715 90.8828 86.6133 112.221 98.0898 132.709 c 0
 114.033 161.174 127.467 242.051 183.799 257.96 c 0
233.349 191.853 m 0
 209.356 204.603 179.961 205.604 159.921 187.856 c 0
 155.144 183.488 156.497 179.388 162.538 174.604 c 0
 181.124 157.657 244.523 135.488 270.866 131.998 c 0
 276.967 131.189 280.99 133.562 280.196 139.121 c 0
 278.003 154.465 257.889 178.812 233.349 191.853 c 0
242.909 578.405 m 0
 270.537 579.749 302.222 541.133 317.554 513.187 c 0
 349.358 455.216 361.751 359.184 349.136 304.105 c 0
 340.681 267.191 316.79 243.065 300.591 229.673 c 0
 265.54 200.693 138.897 242.648 183.799 257.96 c 0
 232.713 274.641 280.341 260.206 319.985 305.374 c 0
 322.459 307.641 323.817 311.058 323.519 314.134 c 0
 320.74 342.847 303.445 377.296 288.72 379.172 c 1
 264.233 315.519 221.465 320.266 195.649 323.401 c 0
 128.318 331.58 132.838 420.956 149.345 468.137 c 0
 165.694 514.866 202.665 576.447 242.909 578.405 c 0
214.167 471.639 m 0
 203.458 471.663 192.678 465.804 183.294 452.607 c 0
 179.823 447.727 180.985 441.956 185.469 437.775 c 0
 203.953 420.539 228.615 421.238 249.51 434.06 c 0
 254.223 436.951 255.127 440.603 252.017 445.479 c 0
 241.582 461.843 227.936 471.606 214.167 471.639 c 0
EndSplineSet
Colour: ff0000
EndChar

StartChar: faa+yaa.fina
Encoding: 65586 -1 51
Width: 0
VWidth: 0
AnchorPoint: "cursive" 407 79 entry 0
LayerCount: 2
Fore
SplineSet
399.78 107.788 m 0
 424.779 105.47 483.34 96.6387 511.701 80.7461 c 0
 540.54 64.585 583.765 43.3711 592.015 18.1016 c 0
 596.2 5.28809 578.484 -57.502 568.189 -69.1641 c 0
 519.286 -124.56 368.146 -190.21 242.725 -195.572 c 0
 188.603 -197.886 133.427 -198.001 92.2676 -177.68 c 0
 -6.00195 -129.162 -10.0137 -47.7822 11.3076 33.874 c 0
 32.833 116.312 65.8076 168.408 87.7432 198.068 c 0
 97.6494 211.463 115.135 197.51 105.488 184.479 c 0
 67.7197 133.458 37.7715 66.9209 44.8262 19.5791 c 0
 55.5156 -52.1504 118.14 -96.1533 235.522 -99.4795 c 0
 345.797 -102.604 464.044 -66.0762 540.649 -20.2852 c 0
 542.679 -19.0732 542.605 -16.9912 540.729 -15.6709 c 0
 483.89 24.3496 410.869 36.2607 372.711 42.6465 c 0
 369.183 43.2373 369.578 44.9209 370.445 49.1348 c 0
 373.827 65.5977 384.818 86.541 392.566 103.583 c 0
 394.738 108.361 395.186 108.214 399.78 107.788 c 0
477.047 427.096 m 0
 491.02 427.647 498.77 422.152 506.926 414.833 c 0
 540.256 384.921 555.26 340.731 562.451 280.203 c 1
 578.375 279.348 588.087 278.777 597.263 278.492 c 0
 617.189 277.873 627.97 273.373 625.096 239.48 c 0
 622.223 205.588 609.126 188.057 597.263 187.57 c 0
 586.55 187.131 572.669 185.746 558.165 186.238 c 1
 551.053 145.314 529.165 107.304 510.768 85.7236 c 0
 485.846 56.4902 432.322 36.3291 372.711 42.6465 c 0
 369.153 43.0234 369.578 44.9209 370.445 49.1348 c 0
 373.827 65.5977 384.818 86.541 392.566 103.583 c 0
 394.738 108.361 395.167 107.942 399.78 107.788 c 0
 458.993 105.802 495.565 120.828 521.212 136.986 c 0
 528.738 141.728 527.167 164.637 525.512 188.471 c 1
 456.345 192.653 392.131 204.934 380.159 237.78 c 0
 362.115 287.294 430.662 425.265 477.047 427.096 c 0
423.066 315.706 m 0
 420.797 298.462 486.625 285.596 504.335 284.222 c 1
 493.698 303.679 477.276 338.852 449.676 342.886 c 1
 437.499 342.5 424.889 329.562 423.066 315.706 c 0
EndSplineSet
Colour: ff0000
EndChar

StartChar: faa+yaa.isol
Encoding: 65587 -1 52
Width: 0
VWidth: 0
AnchorPoint: "cursive" 429 108 entry 0
LayerCount: 2
Fore
SplineSet
415.432 141.442 m 0
 434.301 142.931 498.38 130.047 535.408 117.874 c 0
 552.429 112.278 595.278 94.1426 610.878 70.4062 c 0
 622.617 52.542 613.979 -14.5889 591.352 -39.6689 c 0
 528.353 -109.503 378.312 -190.987 227.754 -200.323 c 0
 46.2305 -211.579 -15.3965 -72.9746 20.9932 52.8271 c 0
 35.4707 102.878 72.6123 179.41 112.298 229.066 c 0
 123.872 243.549 138.232 226.564 130.056 215.144 c 0
 91.085 160.709 56.2256 98.6855 58.0684 49.2334 c 0
 61.2139 -35.1719 137.375 -89.9375 245.179 -91.6885 c 0
 385.534 -93.9688 520.647 -18.3633 558.692 17.2979 c 0
 564.05 22.3203 567.567 28.4229 561.351 31.6113 c 0
 506.761 59.6045 441.704 65.5215 387.565 69.2705 c 0
 382.798 69.6006 378.862 76.5078 380.572 79.8398 c 1
 384.365 97.7471 391.404 116.697 405.081 135.126 c 0
 406.354 137.606 412.931 141.245 415.432 141.442 c 0
492.912 470.631 m 0
 547.216 470.645 594.022 345.061 593.837 281.449 c 0
 593.523 173.925 566.117 147.497 535.408 117.874 c 0
 510.593 93.9346 431.236 68.8018 387.565 69.2705 c 0
 382.788 69.3213 378.862 76.5078 380.572 79.8398 c 1
 384.365 97.7471 391.404 116.697 405.081 135.126 c 0
 406.354 137.606 412.938 141.171 415.432 141.442 c 0
 483.382 148.837 554.503 182.255 569.13 212.509 c 0
 579.574 234.112 551.505 278.729 535.349 287.319 c 1
 506.278 230.096 470.59 217.962 446.763 223.44 c 0
 379.114 238.995 378.305 305.756 399.266 364.345 c 1
 418.813 415.471 458.314 466.938 488.989 470.391 c 0
 490.301 470.538 491.609 470.63 492.912 470.631 c 0
447.332 371.503 m 0
 438.729 371.172 430.079 366.263 420.828 354.312 c 0
 416.143 348.26 419.122 342.596 423.493 339.548 c 0
 441.67 326.877 468.007 321.971 487.162 342.812 c 0
 489.192 345.021 489.284 348.941 486.474 351.228 c 0
 472.387 362.689 459.904 371.986 447.332 371.503 c 0
EndSplineSet
Colour: ff0000
EndChar

StartChar: faa.fina
Encoding: 65588 -1 53
Width: 0
VWidth: 0
LayerCount: 2
Fore
SplineSet
798.193 348.295 m 0
 848.738 349.314 910.656 246.873 834.467 99.3877 c 1
 864.956 93.1973 913.192 91.4648 943.257 90.8008 c 0
 981.775 89.9502 970.757 0.542969 943.652 0 c 0
 842.95 -2.01562 805.002 13.2344 768.359 25.3203 c 1
 606.803 -87.1758 207.797 -143.068 53.9619 -31.126 c 0
 -43.1846 39.5654 14.5264 155.474 59.8076 228.804 c 0
 67.7305 241.636 87.1797 233.335 78.4375 216.888 c 0
 40.376 145.279 30.4043 111.738 120.451 49.1006 c 0
 227.203 -25.1562 610.173 25.3203 680.583 80.6445 c 1
 663.4 103.269 657.405 120.716 664.499 154.19 c 0
 681.801 235.838 755.164 347.417 798.193 348.295 c 0
777.273 248.757 m 0
 749.247 252.049 726.999 225.056 708.727 172.911 c 1
 715.14 149.916 736.738 130.024 759 122.615 c 0
 773.691 117.725 814.498 138.386 824.354 156.438 c 1
 823.855 188.142 814.036 244.439 777.273 248.757 c 0
EndSplineSet
Colour: ff0000
EndChar

StartChar: faa.init
Encoding: 65589 -1 54
Width: 0
VWidth: 0
LayerCount: 2
Fore
SplineSet
115.188 409.31 m 0
 115.188 409.31 l 1
 115.19 409.31 l 2
 145.979 408.987 238.499 319.106 231.978 195.006 c 0
 227.413 108.15 187.723 63.1562 120.881 31.793 c 0
 79.3096 12.2871 43.9746 5.21191 0 0 c 0
 -26.5156 -3.14258 -31.6631 89.7871 -0.00976562 92.8213 c 0
 77.4492 100.246 158.686 136.569 188.078 161.557 c 1
 186.615 180.228 179.482 198.479 175.223 205.844 c 0
 170.832 213.435 163.41 209.561 161.825 205.393 c 0
 141.448 151.802 85.7783 137.009 37.752 160.863 c 0
 15.4727 171.931 6.53711 202.043 9.33105 239.022 c 0
 14.5 307.439 72.3516 409.755 115.188 409.31 c 0
82.1006 300.683 m 0
 65.8838 300.307 55.4551 281.029 54.5518 262.355 c 0
 53.9463 260.319 54.4717 256.818 56.3887 256.214 c 0
 79.6514 248.881 98.3262 251.575 116.724 259.676 c 0
 118.466 260.443 123.765 264.362 123.333 265.623 c 0
 118.127 280.846 96.3555 301.013 82.1006 300.683 c 0
EndSplineSet
Substitution2: "FaaYaaIsol subtable" faa.init_FaaYaaIsol
Substitution2: "FaaHaaInit subtable" faa.init_FaaHaaInit
Substitution2: "FaaMeemInit subtable" faa.init_FaaMeemInit
Colour: ff0000
EndChar

StartChar: faa.isol
Encoding: 65590 -1 55
Width: 0
VWidth: 0
LayerCount: 2
Fore
SplineSet
734.954 513.719 m 0
 745.083 513.799 755.42 513.869 765.034 510.224 c 0
 844.688 479.396 876.549 289.444 849.293 221.775 c 0
 797.682 93.6416 492.312 5.82715 271.778 1.64355 c 0
 -72.1074 -4.84375 -13.5947 234.771 52.502 332.35 c 0
 62.4111 346.979 79.7461 333.61 70.8369 319.303 c 0
 45.1787 278.1 32.2783 231.137 37.7627 207.401 c 0
 60.415 109.367 235.129 82.0273 399.342 105.655 c 0
 484.182 117.862 811.978 195.076 830.362 285.239 c 1
 827.427 301.8 818.677 314.295 804.114 326.597 c 1
 800.026 328.707 799.715 325.103 798.627 322.131 c 0
 785.979 288.174 737.712 240.3 669.858 273.423 c 1
 625.186 302.249 629.765 346.646 651.856 401.737 c 0
 673.749 456.33 709.434 513.593 734.954 513.719 c 0
745.304 372.644 m 0
 750.519 378.038 750.208 385.924 744.053 391.166 c 0
 721.207 408.869 703.378 412.467 688.404 385.058 c 0
 685.643 379.625 684.906 375.717 689.444 371.034 c 0
 704.764 355.228 731.6 356.119 745.304 372.644 c 0
EndSplineSet
Substitution2: "'fina' Terminal Forms in Arabic lookup 3 subtable" faa.fina
Substitution2: "'medi' Medial Forms in Arabic lookup 2 subtable" faa.medi
Substitution2: "'init' Initial Forms in Arabic lookup 1 subtable" faa.init
Colour: ff0000
EndChar

StartChar: faa.medi
Encoding: 65591 -1 56
Width: 0
VWidth: 0
LayerCount: 2
Fore
SplineSet
282.763 379.065 m 0
 286.584 379.101 289.784 378.373 292.281 376.854 c 0
 344.058 345.349 327.38 226.405 306.046 179.187 c 0
 294.465 153.556 278.381 127.685 269.988 115.335 c 1
 296.656 101.384 322.672 95.0889 347.984 89.4834 c 0
 368.04 85.042 365.706 -1.04395 347.479 0.407227 c 0
 288.255 5.12305 217.327 32.8652 171.928 57.5811 c 1
 124.293 34.3799 24.0186 0.59668 0 0 c 0
 -25.917 -0.643555 -27.2969 88.3213 -0.165039 90.5469 c 0
 39.6387 93.8105 73.6797 102.569 105.998 115.654 c 1
 84.6846 245.727 232.237 378.61 282.763 379.065 c 0
237.952 273.431 m 0
 190.58 277.953 154.265 229.919 150.666 221.997 c 0
 141.021 200.771 165.485 153.893 214.919 148.62 c 0
 226.148 147.422 269.023 171.977 278.903 186.736 c 1
 287.874 214.716 265.244 270.825 237.952 273.431 c 0
EndSplineSet
Substitution2: "FaaYaaFina subtable" faa.medi_FaaYaaFina
Colour: ff0000
EndChar

StartChar: haa+haa.init
Encoding: 65592 -1 57
Width: 0
VWidth: 0
AnchorPoint: "cursive" 32 221 entry 0
LayerCount: 2
Fore
SplineSet
147.335 232.385 m 0
 183.317 217.965 371.563 161.961 496.914 157.21 c 0
 506.521 156.846 512.318 144.65 506.215 137.843 c 2
 473.567 101.425 l 2
 470.938 98.4932 465.783 89.8672 450.741 92.1592 c 0
 384.896 102.194 331.227 92.9824 281.388 84.8457 c 0
 186.485 69.3535 84.6602 26.0947 0 0 c 0
 -15.2852 -4.71094 -43.292 85.1729 -0.555664 90.1846 c 0
 73.3926 98.8584 114.41 110.601 190.545 132.323 c 0
 196.952 134.151 194.864 138.565 190.435 140.303 c 0
 127.37 165.047 50.7422 175.021 -6.87012 187.602 c 0
 -10.0518 188.297 -10.8291 188.381 -10.7158 191.474 c 0
 -9.48047 225.333 8.70312 236.573 34.8076 251.634 c 0
 49.1895 259.931 116.098 244.903 147.335 232.385 c 0
107.845 398.701 m 0
 112.517 428.159 144.824 487.742 202.954 486.507 c 0
 264.541 485.198 324.295 431.512 379.227 403.66 c 0
 425.672 380.111 509.871 348.643 601.568 342.527 c 0
 617.762 341.447 617.949 328.581 614.915 322.158 c 0
 606.658 304.682 598.664 282.585 587.425 266.74 c 0
 584.165 262.143 579.505 261.163 574.632 262.52 c 0
 406.087 309.467 277.739 291.13 147.051 239.206 c 0
 101.809 221.23 61.8418 207.594 7.04688 184.794 c 1
 2.48535 186.055 -3.28418 186.763 -6.87012 187.602 c 0
 -10.0518 188.297 -10.8291 188.381 -10.7158 191.474 c 0
 -9.00098 238.458 30.5352 253.79 118.069 284.52 c 0
 172.152 303.507 229.674 318.921 330.263 336.327 c 0
 336.439 337.395 337.04 339.99 331.775 343.164 c 0
 230.319 404.344 182.656 409.533 120.846 393.541 c 0
 112.899 391.485 106.195 388.298 107.845 398.701 c 0
EndSplineSet
Colour: ff0000
EndChar

StartChar: haa+meem.init
Encoding: 65593 -1 58
Width: 0
VWidth: 0
AnchorPoint: "cursive" 186 238 entry 0
LayerCount: 2
Fore
SplineSet
139.881 241.779 m 0
 171.175 263.8 225.208 256.368 256.036 230.884 c 0
 293.7 199.748 294.242 114.249 266.656 72.1738 c 0
 259.715 61.5869 250.788 51.1416 237.485 51.7158 c 0
 200.646 53.3057 143.392 75.1025 97.0088 108.177 c 1
 70.9297 37.041 12.4404 5.08203 0 0 c 0
 -12.5781 -5.13867 -29.5322 82.3232 0.360352 90.5479 c 0
 15.4814 94.708 55.6123 104.701 80.7451 125.302 c 0
 83.209 127.321 84.0928 131.713 84.1133 134.753 c 0
 84.623 190.161 120.402 228.073 139.881 241.779 c 0
153.652 207.674 m 0
 139.701 208.155 125.951 204.406 119.879 190.81 c 1
 139.345 172.153 198.816 139.624 248.21 126.898 c 1
 246.983 166.265 200.846 205.436 153.652 207.674 c 0
256.362 425.919 m 0
 260.201 425.883 263.969 425.641 267.651 425.153 c 0
 330.378 418.096 380.861 362.497 452.104 327.229 c 0
 510.478 298.333 574.426 278.271 642.436 267.94 c 0
 645.618 267.457 650.229 263.884 649.444 258.991 c 0
 645.447 234.106 634.547 219.64 621.893 199.645 c 0
 619.122 195.266 613.255 192.611 607.553 194.788 c 0
 459.323 240.801 362.892 253.671 256.036 230.884 c 0
 204.146 219.818 121.605 229.989 139.881 241.779 c 0
 194.933 277.296 285.698 286.395 350.797 287.124 c 1
 314.18 314.529 261.966 361.927 143.543 343.465 c 0
 133.895 341.96 134 352.398 138.941 358.69 c 0
 175.581 405.353 219.25 426.267 256.362 425.919 c 0
EndSplineSet
Colour: ff0000
EndChar

StartChar: haa+raa.isol
Encoding: 65594 -1 59
Width: 0
VWidth: 0
AnchorPoint: "cursive" 384 82 entry 0
LayerCount: 2
Fore
SplineSet
374.364 111.793 m 0
 384.249 115.049 418.641 86.7139 411.447 45.7754 c 0
 397.525 -33.4707 362.471 -101.188 325.986 -144.538 c 0
 277.725 -201.881 220.85 -224.046 172.277 -229.875 c 0
 148.442 -232.733 63.4922 -182.224 3.58105 -137.437 c 0
 -3.61133 -132.062 3.24316 -118.227 12.125 -123.227 c 0
 52.2217 -145.804 97.0166 -164.842 132.08 -166.39 c 0
 154.406 -167.376 189.92 -153.493 220.393 -138.636 c 0
 285.904 -106.692 340.367 -65.4795 384.312 16.6787 c 0
 385.978 19.793 387.306 21.9238 385.537 25.5664 c 0
 382.55 31.7129 359.001 52.6943 347.999 58.459 c 0
 345.336 59.8516 344.512 62.958 346.412 66.5273 c 2
 368.23 107.52 l 2
 369.197 109.337 370.76 110.605 374.364 111.793 c 0
900.243 159.235 m 0
 894.778 136.908 882.121 108.217 867.294 87.8096 c 0
 864.22 83.5781 860.715 83.6924 855.55 85.5645 c 0
 807.207 103.093 720.298 116.605 657.35 108.999 c 1
 571.639 97.1133 484.805 83.0596 403.735 51.6514 c 0
 401.58 50.8164 399.45 49.7305 397.312 49.832 c 0
 391.287 50.1191 365.242 101.368 368.23 107.52 c 0
 369.13 109.37 370.703 110.787 374.364 111.793 c 0
 417.128 123.511 524.589 150.459 572.123 155.902 c 0
 578.808 156.668 581.419 158.64 574.118 164.049 c 0
 538.515 190.419 506.355 204.366 467.969 206.015 c 0
 434.221 207.465 395.351 199.209 349.37 184.332 c 0
 345.035 182.928 341.521 185.304 343.505 190.508 c 0
 356.896 225.614 367.514 250.332 383.794 267.076 c 1
 418.61 297.347 475.569 308.071 518.85 290.186 c 1
 570.907 265.979 627.957 229.162 684.127 210.421 c 0
 749.644 188.56 826.367 170.961 889.412 169.609 c 0
 898.103 169.423 901.667 165.05 900.243 159.235 c 0
EndSplineSet
Colour: ff0000
EndChar

StartChar: haa+yaa.isol
Encoding: 65595 -1 60
Width: 0
VWidth: 0
AnchorPoint: "cursive" 392 106 entry 0
LayerCount: 2
Fore
SplineSet
371.93 135.38 m 1
 388.428 134.588 410.373 130.673 430.837 126.396 c 0
 489.588 114.117 556.544 101.176 592.453 69.7305 c 0
 599.553 63.5137 602.412 59.3838 601.491 49.498 c 0
 598.746 20.0195 585.432 -11.4639 574.376 -33.8877 c 0
 552.118 -79.0322 354.163 -203.511 198.915 -198.688 c 0
 94.7725 -195.463 2.35352 -139.588 0.579102 -30.5381 c 0
 -0.783203 52.4775 22.4785 131.822 75.2734 215.419 c 0
 84.582 230.158 102.051 217.383 94.0918 203.304 c 0
 67.5586 156.369 33.8613 101.607 33.2217 50.0293 c 0
 32.2207 -30.5312 96.3555 -99.0879 207.968 -106.277 c 0
 302.743 -112.382 445.437 -71.4297 551.043 10.4736 c 0
 554.288 12.9902 552.188 14.6904 548.99 16.4531 c 0
 485.723 51.3379 417.937 59.3984 359.149 65.3398 c 0
 351.689 66.0938 349.779 77.3564 351.664 84.8428 c 0
 356.398 103.642 363.407 118.941 371.93 135.38 c 1
399.014 173.329 m 0
 477.357 211.373 559.738 242.092 651.162 255.314 c 0
 655.319 256.29 650.751 258.198 647.346 260.398 c 0
 592.346 295.934 540.133 326.17 443.37 291.536 c 0
 434.501 288.361 431.742 296.868 435.402 305.174 c 0
 451.176 340.959 471.67 373.774 529.473 391.561 c 0
 546.789 396.89 569.284 394.712 591.659 383.865 c 0
 633.477 363.593 683.161 332.294 715.58 317.565 c 0
 791.923 285.281 855.549 270.784 937.411 265.425 c 1
 946.899 263.009 953.636 258.944 950.08 252.102 c 0
 938.698 230.198 925.468 209.672 913.768 191.762 c 0
 911.159 187.767 908.94 188.474 904.014 189.474 c 0
 832.575 203.982 767.771 214.626 668.75 204.799 c 0
 605.436 198.515 510.125 177.279 430.024 137.962 c 0
 421.833 133.941 422.917 127.412 415.908 109.187 c 0
 405.742 82.7539 370.263 65.0459 359.149 65.3398 c 0
 351.662 65.5381 349.779 77.3564 351.664 84.8428 c 0
 358.804 113.194 371.118 133.589 385.996 161.928 c 0
 388.779 167.229 393.303 170.854 399.014 173.329 c 0
EndSplineSet
Colour: ff0000
EndChar

StartChar: haa.fina
Encoding: 65596 -1 61
Width: 0
VWidth: 0
LayerCount: 2
Fore
SplineSet
168.017 619.528 m 0
 207.646 619.83 250.403 612.319 286.329 606.185 c 0
 379.241 590.318 458.77 586.481 569.673 605.716 c 0
 585.811 608.515 594.872 601.618 591.829 594.81 c 2
 564.61 533.873 l 2
 562.13 528.32 558.882 525.427 553.267 524.685 c 0
 512.001 519.228 470.838 513.116 431.079 505.31 c 1
 448.804 442.429 548.54 448.05 598.275 449.636 c 0
 639.86 450.961 623.891 360.664 598.723 359.11 c 0
 500.078 353.022 367.607 358.34 390.517 496.592 c 1
 326.774 481.587 268.122 461.017 220.485 430.278 c 0
 111.128 359.713 61.292 243.207 73.8604 140.998 c 0
 82.1094 73.917 131.61 -2.2168 213.423 -38.0654 c 0
 305.958 -78.6133 536.442 -58.0205 690.704 -43.8467 c 0
 724.438 -40.7471 713.057 -65.2012 697.86 -69.6904 c 0
 618.688 -93.0811 590.994 -126.171 560.048 -140.658 c 0
 551.316 -144.746 548.503 -147.071 539.235 -147.94 c 0
 395.243 -161.437 219.867 -169.475 114.329 -92.1582 c 0
 13.9033 -18.5889 10.8555 109.782 35.0166 219.278 c 0
 59.1826 328.795 115.444 436.763 272.985 516.748 c 1
 188.229 537.027 112.996 531.838 59.8291 502.966 c 0
 52.1562 498.799 41.8574 503.536 42.0791 510.653 c 0
 44.6182 596.854 101.968 619.027 168.017 619.528 c 0
EndSplineSet
Substitution2: "SeenHaaIsol subtable" haa.fina_SeenHaaIsol
Substitution2: "SadHaaIsol subtable" haa.fina_SadHaaIsol
Colour: ff0000
EndChar

StartChar: haa.init.alt
Encoding: 65597 -1 62
Width: 0
VWidth: 0
LayerCount: 2
Fore
SplineSet
167.208 285.1 m 0
 240.409 281.945 365.823 179.328 530.066 182.308 c 0
 539.691 182.482 550.76 178.795 544.767 163.576 c 0
 535.475 139.978 524.859 118.336 513.044 98.5234 c 0
 507.945 89.9736 502.354 87.3096 497.679 87.6279 c 0
 338.847 105.471 156.887 5.82422 58.2305 -0.780273 c 0
 35.9922 -2.27637 21.8213 -1.8584 0 0 c 1
 -0.817383 29.8555 -3.96973 93.5684 2.75781 107.556 c 0
 21.0889 143.856 44.3516 181.343 70.6523 214.092 c 0
 106.15 258.293 138.064 286.356 167.208 285.1 c 0
248.247 142.135 m 0
 208.052 161.893 174.236 177.998 128.527 178.422 c 0
 86.9424 178.479 48.1123 146.062 39.0908 107.096 c 1
 90.4834 86.1543 176.677 115.253 247.671 132.929 c 0
 252.587 134.022 251.536 140.436 248.247 142.135 c 0
EndSplineSet
EndChar

StartChar: haa.init
Encoding: 65598 -1 63
Width: 0
VWidth: 0
LayerCount: 2
Fore
SplineSet
-3.68848 218.281 m 0
 4.95996 252.145 50.043 312.001 110.759 313.021 c 0
 189.462 314.351 337.318 194.88 565.866 211.754 c 0
 589.198 213.477 581.33 199.311 579.098 194.33 c 2
 551.461 132.65 l 2
 546.692 122.007 536.209 122.387 529.774 123.45 c 0
 324.199 157.529 168.156 54.5654 0 0 c 0
 -16.9365 -5.49609 -24.5273 85.334 -0.707031 90.2949 c 0
 77.5518 106.594 175.356 126.038 255.422 162.791 c 1
 166.455 207.871 114.399 225.764 12.4346 204.321 c 0
 1.77344 202.079 -6.30859 208.02 -3.68848 218.281 c 0
EndSplineSet
Substitution2: "HaaRaaIsol subtable" haa.init_HaaRaaIsol
Substitution2: "HaaMeemInit subtable" haa.init_HaaMeemInit
Substitution2: "HaaHaaInit subtable" haa.init_HaaHaaInit
Substitution2: "HaaYaaIsol subtable" haa.init_HaaYaaIsol
Colour: ff0000
EndChar

StartChar: haa.isol
Encoding: 65599 -1 64
Width: 0
VWidth: 0
LayerCount: 2
Fore
SplineSet
573.97 548.176 m 2
 546.736 487.23 l 2
 544.255 481.679 541.03 478.805 535.416 478.062 c 0
 411.821 461.717 289.167 436.046 200.611 383.652 c 0
 75.0068 309.337 25.9473 191.572 53.5127 86.8633 c 0
 70.7188 21.5039 116.235 -27.6113 198.048 -63.4609 c 0
 290.582 -104.009 518.564 -112.144 672.826 -97.9697 c 0
 706.559 -94.8711 695.205 -119.314 680.009 -123.804 c 0
 600.835 -147.194 573.143 -172.808 542.196 -187.297 c 0
 533.464 -191.385 530.631 -193.69 521.363 -194.56 c 0
 377.371 -208.056 200.767 -201.115 95.2295 -123.8 c 0
 -5.19629 -50.2285 -11.0176 63.1494 13.1436 172.646 c 0
 37.3096 282.161 97.5928 390.146 255.134 470.131 c 1
 170.378 490.41 105.743 492.273 52.5762 463.401 c 0
 44.9023 459.234 35.4873 460.453 35.71 467.57 c 0
 39.7705 605.492 180.34 576.769 275.549 556.914 c 1
 375.241 537.473 440.894 539.87 551.797 559.104 c 0
 567.934 561.903 577.013 554.984 573.97 548.176 c 2
EndSplineSet
Substitution2: "'fina' Terminal Forms in Arabic lookup 3 subtable" haa.fina
Substitution2: "'medi' Medial Forms in Arabic lookup 2 subtable" haa.medi
Substitution2: "'init' Initial Forms in Arabic lookup 1 subtable" haa.init
Colour: ff0000
EndChar

StartChar: haa.medi.alt
Encoding: 65600 -1 65
Width: 0
VWidth: 0
LayerCount: 2
Fore
SplineSet
115.587 281.082 m 0
 133.869 291.272 158.863 290.433 178.398 284.727 c 0
 243.656 265.666 322.762 229.265 420.435 219.42 c 0
 456.065 215.828 468.96 216.736 515.671 218.577 c 0
 520.588 218.771 526.863 215.539 522.869 205.155 c 2
 501.89 142.949 l 2
 498.392 133.854 490.421 134.418 483.7 134.725 c 0
 440.559 136.693 408.704 137.968 368.786 125.637 c 1
 370.005 112.423 376.184 103.675 387.57 96.5615 c 0
 406.392 84.8037 447.518 86.002 523.923 85.833 c 0
 551.604 85.7715 546.439 -4.16113 524.189 -4.2168 c 0
 481.211 -4.3252 422.324 -5.61719 379.56 -2.41309 c 0
 322.246 1.88086 322.841 42.6973 334.378 114.605 c 1
 293.973 98.9912 252.203 78.0586 214.711 61.75 c 0
 152.156 34.5391 75.207 0.421875 0 0 c 1
 -15.9424 33.0146 -14.7129 65.3174 -3.28418 97.0928 c 1
 10.4082 158.574 64.749 252.748 115.587 281.082 c 0
242.414 155.701 m 1
 178.879 178.522 135.749 195.048 95.9795 186.379 c 0
 67.8975 180.258 27.0029 132.664 17.6484 97.7695 c 1
 20.2139 94.542 29.3096 93.5049 35.082 93.2275 c 0
 100.714 97.8047 182.678 128.998 242.414 155.701 c 1
EndSplineSet
EndChar

StartChar: haa.medi
Encoding: 65601 -1 66
Width: 0
VWidth: 0
LayerCount: 2
Fore
SplineSet
118.57 310.468 m 0
 118.57 310.468 l 1
 152.949 310.468 213.265 278.93 263.518 260.465 c 0
 303.807 245.661 348.342 230.524 392.795 223.441 c 0
 450.321 214.275 503.852 206.818 573.701 215.929 c 0
 578.932 216.611 588.199 213.519 585.162 204.202 c 0
 577.732 181.418 571.812 152.315 561.515 130.895 c 0
 559.337 126.365 553.427 124.37 549.438 124.751 c 0
 518.228 127.735 489.638 129.887 462.794 130.836 c 1
 438.343 79.2041 534.454 84.3047 585.152 82.7441 c 0
 626.467 81.4717 609.686 -8.00488 585.107 -7.85254 c 0
 560.403 -7.69922 488.629 -8.21191 460.746 0.282227 c 0
 384.847 23.4033 409.377 74.8408 425.82 129.127 c 1
 359.829 126.043 294.622 114.629 233.881 97.0078 c 0
 150.951 72.9502 62.9736 14.5928 0 0 c 0
 -26.2529 -6.08301 -40.8281 81.5176 -0.425781 90.7861 c 0
 96.3242 112.981 172.32 154.239 213.956 165.861 c 0
 221.504 167.968 222.41 174.128 211.312 179.088 c 0
 110.537 224.124 61.9658 227.934 10.8301 201.229 c 0
 0.848633 196.016 -14.5625 194.795 -9.68262 213.01 c 0
 11.3604 291.553 78.9668 310.468 118.57 310.468 c 0
EndSplineSet
Substitution2: "SadHaaInit subtable" haa.medi_SadHaaInit
Substitution2: "HehHaaInit subtable" haa.medi_HehHaaInit
Substitution2: "BaaBaaHaaInit subtable" haa.medi_BaaBaaHaaInit
Substitution2: "LamMeemHaaInit subtable" haa.medi_LamMeemHaaInit
Substitution2: "AynHaaInit subtable" haa.medi_AynHaaInit
Substitution2: "SeenHaaInit subtable" haa.medi_SeenHaaInit
Substitution2: "MeemHaaMeemInit subtable" haa.medi_MeemHaaMeemInit
Substitution2: "MeemHaaInit subtable" haa.medi_MeemHaaInit
Substitution2: "HaaHaaInit subtable" haa.medi_HaaHaaInit
Substitution2: "FaaHaaInit subtable" haa.medi_FaaHaaInit
Substitution2: "LamHaaMeemInit subtable" haa.medi_LamHaaMeemInit
Substitution2: "BaaMeemHaaInit subtable" haa.medi_BaaMeemHaaInit
Substitution2: "LamLamHaaInit subtable" haa.medi_LamLamHaaInit
Substitution2: "LamHaaInit subtable" haa.medi_LamHaaInit
Colour: ff0000
EndChar

StartChar: hamza.small
Encoding: 65602 -1 67
Width: 0
VWidth: 0
LayerCount: 2
Fore
SplineSet
183.881 55.8887 m 0
 157.806 50.6836 123.185 43.0205 100.297 35.8496 c 0
 77.4082 28.6777 51.5664 16.2031 23.1279 3.57227 c 0
 5.01074 -4.47461 -4.74316 12.3379 5.55469 25.667 c 0
 13.459 35.8955 32.5674 49.9932 43.1709 56.7695 c 1
 26.1338 65.4092 6.22754 80.6621 1.68848 98.6904 c 0
 -5.40039 126.847 15.2539 170.782 35.3818 196.685 c 0
 55.5107 222.588 87.042 254.605 124.558 250.072 c 0
 169.711 244.614 149.181 186.777 131.076 160.055 c 1
 122.228 150.229 113.667 152.323 108.852 160.055 c 0
 95.8838 180.882 65.2061 186.202 45.4141 163.451 c 0
 28.418 143.915 85.2832 107.729 146.829 107.311 c 0
 170.782 107.147 186.323 116.457 208.611 116.904 c 0
 216.208 117.057 222.392 106.249 219.09 99.3057 c 0
 212.509 85.4648 200.769 59.2598 183.881 55.8887 c 0
EndSplineSet
EndChar

StartChar: hamza
Encoding: 65603 -1 68
Width: 0
VWidth: 0
LayerCount: 2
Fore
SplineSet
245.771 124.438 m 2
 244.081 118.621 239.895 109.234 232.941 104.999 c 1
 168.524 82.6992 80.7578 28.3779 46.918 4 c 1
 32.1875 -4.36133 24.958 6.93945 27.5586 18.9824 c 1
 34.9912 37.7832 55.3936 55.5742 75.4502 72.5479 c 1
 52.3174 81.1387 17.0928 100.655 9.70605 113.576 c 0
 -6.28027 141.543 0.129883 163.966 13.8691 190.795 c 0
 27.6094 217.623 82.0098 296.553 121.147 298.108 c 0
 143.013 298.978 152.385 291.508 160.055 280.115 c 0
 174.2 259.104 167.644 225.159 154.063 202.967 c 0
 146.406 190.453 136.73 191.557 129.382 198.496 c 0
 119.679 207.659 104.442 220.616 86.2646 224.25 c 0
 68.0869 227.884 55.9814 204.238 59.873 191.173 c 0
 65.752 171.435 112.653 135.824 180.572 147.726 c 0
 206.751 152.313 217.229 169.026 242.075 173.919 c 0
 250.346 175.548 257.963 166.421 255.574 158.194 c 2
 245.771 124.438 l 2
EndSplineSet
EndChar

StartChar: heh+haa.init
Encoding: 65604 -1 69
Width: 0
VWidth: 0
AnchorPoint: "cursive" 50 237 entry 0
LayerCount: 2
Fore
SplineSet
38.6797 260.688 m 0
 47.8896 270.941 86.4541 261.636 115.336 254.172 c 0
 216.857 227.936 305.857 215.758 408.421 207.701 c 0
 458.724 203.749 508.527 205.204 561.253 207.101 c 0
 576.787 207.659 583.152 199.084 577.374 186.116 c 2
 548.555 121.424 l 2
 545.824 115.296 542.699 113.049 535.557 114.159 c 0
 451.019 127.298 372.236 115.188 294.195 94.0752 c 0
 198.099 68.0791 103.268 22.1797 0 0 c 0
 -23.9756 -5.14941 -31.2314 90.8945 0 91.0576 c 0
 92.7832 91.54 182.863 121.034 273.512 141.507 c 1
 185.755 155.812 102.524 171.932 10.1162 184.375 c 0
 4.7334 185.101 3.15625 188.38 4.32227 193.982 c 0
 7.58105 209.635 19.0547 238.837 38.6797 260.688 c 0
289.393 648.425 m 0
 328.48 648.236 378.063 601.446 411.725 571.153 c 0
 454.24 532.89 506.035 483.332 512.981 439.455 c 0
 522.01 382.416 517.503 289.716 455.613 302.264 c 0
 408.881 311.739 362.062 323.785 298.458 341.17 c 1
 241.909 305.522 174.396 282.396 115.336 254.172 c 0
 80.2773 237.418 66.5996 229.056 10.1162 184.375 c 1
 4.7334 185.101 3.15527 188.38 4.32227 193.982 c 0
 8.50195 214.064 29.7695 263.138 59.7998 279.059 c 0
 104.901 302.972 174.649 331.43 241.691 366.747 c 1
 214.596 378.595 211.146 405.293 215.663 427.567 c 0
 221.584 456.766 241.01 519.747 280.926 554.612 c 1
 282.409 561.125 256.506 567.512 244.062 568.271 c 0
 238.395 568.617 236.812 575.317 238.147 579.469 c 0
 246.104 603.89 259.34 648.569 289.393 648.425 c 0
303.441 502.197 m 0
 281.372 501.635 258.703 487.682 247.244 471.757 c 1
 245.906 439.1 262.141 431.239 320.854 415.95 c 1
 330.983 421.023 345.634 429.389 353.575 438.524 c 0
 355.748 441.025 356.339 441.714 355.977 445.069 c 0
 350.183 471.861 335.399 503.013 303.441 502.197 c 0
383.535 494.212 m 0
 381.272 495.298 377.63 494.852 378.311 491.51 c 0
 379.208 463.715 368.488 413.442 360.18 405.202 c 1
 395.772 395.468 454.58 377.866 477.438 375.543 c 0
 482.527 375.025 483.87 377.232 483.111 382.928 c 0
 480.232 404.543 430.987 462.384 383.535 494.212 c 0
EndSplineSet
Colour: ff0000
EndChar

StartChar: heh+meem.init
Encoding: 65605 -1 70
Width: 0
VWidth: 0
AnchorPoint: "cursive" 264 239 entry 0
LayerCount: 2
Fore
SplineSet
424.365 602.95 m 0
 444.91 603.58 500.399 574.251 558.4 523.534 c 1
 615.081 478.256 654.43 415.863 651.796 352.598 c 0
 650.095 310.979 628.075 276.767 614.934 265.113 c 0
 609.428 260.231 603.047 258.461 596.221 258.521 c 0
 559.095 258.845 479.716 270.024 426.985 281.092 c 1
 388.277 246.969 351.331 226.403 302.772 212.833 c 0
 255.14 199.521 195.608 268.194 236.28 266.095 c 0
 319.783 261.784 354.274 276.97 378.412 295.856 c 1
 371.147 298.892 365.158 302.411 352.622 308.646 c 0
 301.044 334.294 365.025 471.277 412.435 493.584 c 1
 401.062 503.607 387.777 507.773 369.836 497.818 c 0
 362.031 493.488 354.177 503.864 355.792 511.246 c 0
 362.471 541.79 381.692 589.832 409.216 599.481 c 0
 410.149 599.808 422.996 602.91 424.365 602.95 c 0
482.082 403.244 m 1
 478.567 421.031 449.209 467.189 423.356 461.813 c 0
 404.442 457.88 373.788 424.446 365.41 404.456 c 0
 362.839 398.322 365.172 388.476 370.028 383.191 c 0
 382.312 369.821 410.407 365.181 449.912 357.556 c 1
 463.021 368.846 474.23 378.602 479.378 385.747 c 0
 483.349 391.257 485.301 397.266 482.082 403.244 c 1
507.518 449.172 m 1
 511.081 419.205 504.744 385.927 485.515 350.691 c 1
 540.377 340.379 598.089 331.705 618.052 335.684 c 0
 626.287 337.326 621.413 345.153 617.9 349.658 c 0
 586.341 402.129 540.488 431.238 507.518 449.172 c 1
236.28 266.095 m 0
 265.997 264.01 287.661 237.486 299.673 205.573 c 0
 321.392 147.867 298.727 82.7266 271.802 65.248 c 0
 263.836 60.0781 250.568 57.4824 241.271 57.6836 c 0
 202.765 58.5186 139.97 89.8027 114.581 111.523 c 1
 80.6191 53.6104 28.1221 -0.415039 0 0 c 0
 -25.1123 0.370117 -23.3232 90.3857 -0.275391 90.7236 c 0
 34.6836 91.2363 81.9004 116.15 92.0098 136.555 c 0
 101.558 155.822 112.004 195.142 131.775 225.136 c 0
 152.258 256.211 180.346 270.02 236.28 266.095 c 0
269.389 147.83 m 0
 253.006 186.213 206.382 213.447 161.663 211.857 c 0
 151.458 211.494 144.176 203.771 153.534 192.317 c 0
 170.017 172.144 232.582 143.405 261.856 139.689 c 0
 267.849 138.753 271.461 142.977 269.389 147.83 c 0
EndSplineSet
Colour: ff0000
EndChar

StartChar: heh.fina
Encoding: 65606 -1 71
Width: 0
VWidth: 0
LayerCount: 2
Fore
SplineSet
194.999 444.87 m 2
 198.674 450.701 208.08 443.607 208.601 439.261 c 0
 222.542 332.182 240.05 160.882 248.77 135.346 c 0
 260.97 99.6162 278.996 88.9434 316.188 90.4277 c 0
 354.31 91.9502 332.715 0.412109 316.076 0 c 0
 223.898 -2.28516 216.239 39.8623 195.586 147.285 c 1
 183.033 123.877 160.597 90.7832 137.768 81.7822 c 0
 111.071 71.2578 41.6689 83.3164 18.7686 101.59 c 0
 10.1885 108.436 -0.655273 117.831 1.16504 136.205 c 1
 6.66602 168.055 35.4209 223.645 46.7373 235.189 c 0
 67.5693 256.441 129.367 303.186 172.972 325.268 c 1
 170.997 353.334 168.888 370.082 169.577 392.759 c 1
 168.782 400.66 174.004 411.551 178.508 418.698 c 2
 194.999 444.87 l 2
179.654 264.37 m 1
 139.195 254.139 86.9316 226.351 67.7568 196.789 c 1
 63.8496 193.427 66.0566 189.303 70.3428 186.765 c 0
 87.7373 176.467 139.288 170.509 178.877 180.972 c 0
 183.845 182.284 187.401 185.402 189.721 187.92 c 1
 185.841 212.074 183.137 236.132 179.654 264.37 c 1
EndSplineSet
Substitution2: "Lellah subtable" heh.fina_Lellah
Substitution2: "KafHehFina subtable" heh.fina_KafHehFina
Substitution2: "LamHehFina subtable" heh.fina_LamHehFina
Substitution2: "LamHehIsol subtable" heh.fina_LamHehIsol
Substitution2: "KafHehIsol subtable" heh.fina_KafHehIsol
Colour: ff0000
EndChar

StartChar: heh.init
Encoding: 65607 -1 72
Width: 0
VWidth: 0
LayerCount: 2
Fore
SplineSet
86.1055 321.582 m 0
 94.5166 347.406 106.173 406.894 153.352 409.932 c 0
 182.178 411.76 244.723 361.049 279.13 327.433 c 0
 322.397 285.163 380.468 220.973 387.419 180.641 c 0
 395.229 135.327 370.156 35.2607 303.742 42.2109 c 0
 265.949 46.166 206.75 57.3193 132.863 85.6016 c 1
 85.6914 44.6133 35.9629 17.0195 0 0 c 0
 -15.3467 -7.2627 -44.3408 76.3037 -0.00976562 90.0791 c 0
 31.6865 99.9287 51.6445 108.396 69.5303 118.118 c 1
 49.8604 134.398 46.3105 156.306 53.9414 179.417 c 0
 63.2764 209.508 85.2168 253.395 127.427 290.263 c 1
 128.995 297.149 105.502 308.959 92.3428 309.763 c 0
 86.3486 310.128 84.6924 317.192 86.1055 321.582 c 0
160.688 248.933 m 0
 133.888 256.008 99.374 232.917 86.0439 214.279 c 1
 74.5596 195.128 96.8027 183.575 158.577 164.604 c 1
 169.29 169.971 180.994 176.414 189.117 184.689 c 0
 191.569 187.188 191.938 188.066 191.652 191.625 c 0
 189.244 221.612 185.288 241.6 160.688 248.933 c 0
234.107 236.917 m 0
 231.609 238.494 229.45 238.201 230.527 235.165 c 0
 235.109 208.29 204.667 160.858 195.881 152.146 c 1
 239.989 138.278 314.364 116.519 332.918 128.155 c 0
 337.5 131.029 340.04 130.599 337.786 136.242 c 0
 320.838 178.678 271.569 213.261 234.107 236.917 c 0
EndSplineSet
Substitution2: "HehHaaInit subtable" heh.init_HehHaaInit
Substitution2: "HehMeemInit subtable" heh.init_HehMeemInit
Colour: ff0000
EndChar

StartChar: heh.isol
Encoding: 65608 -1 73
Width: 0
VWidth: 0
LayerCount: 2
Fore
SplineSet
96.8682 349.992 m 0
 106.149 356.396 124.754 353.774 137.206 347.712 c 0
 172.771 330.397 212.75 286.437 230.922 245.233 c 0
 245.912 211.244 248.134 157.784 239.753 121.735 c 0
 224.005 53.9932 172.022 1.30859 103.124 0.545898 c 0
 8.43652 -0.510742 -13.1992 77.2129 11.5859 174.521 c 0
 25.1914 227.94 58.9805 288.284 89.4004 323.271 c 0
 94.5352 329.178 87.5869 343.589 96.8682 349.992 c 0
191.564 135.357 m 0
 214.112 152.255 136.672 224.355 97.8232 221.286 c 0
 69.1182 219.434 45.6631 168.668 50.3633 147.038 c 0
 55.2012 124.774 84.4668 109.926 114.718 110.129 c 0
 156.438 110.407 176.529 124.089 191.564 135.357 c 0
EndSplineSet
Substitution2: "'fina' Terminal Forms in Arabic lookup 3 subtable" heh.fina
Substitution2: "'medi' Medial Forms in Arabic lookup 2 subtable" heh.medi
Substitution2: "'init' Initial Forms in Arabic lookup 1 subtable" heh.init
Colour: ff0000
EndChar

StartChar: heh.medi
Encoding: 65609 -1 74
Width: 0
VWidth: 0
LayerCount: 2
Fore
SplineSet
281.414 348.529 m 1
 281.418 348.529 l 1
 281.418 348.529 l 1
 282.33 348.53 283.165 348.382 283.914 348.08 c 0
 329.423 329.74 317.18 142.644 212.1 64.0762 c 1
 273.956 60.7471 337.312 76.8809 391.229 90.4072 c 0
 413.16 95.9092 414.962 4.41504 391.229 -0.78418 c 0
 358.945 -7.85645 326.444 -11.6152 295.803 -10.6543 c 1
 336.58 -48.4004 345.435 -213.814 235.121 -232.042 c 0
 192.005 -239.208 121.943 -197.009 105.654 -29.0498 c 1
 76.8555 -25.0117 l 1
 77.0107 23.0146 l 1
 55.2637 11.9824 33.8105 0.0927734 0 -2 c 0
 -26.0488 -3.6123 -49.5713 88.124 -0.0498047 87.7432 c 0
 25.4824 87.5459 78.7109 96.5635 117.325 112.093 c 1
 149.718 208.071 253.143 348.506 281.414 348.529 c 1
235.931 231.988 m 0
 231.067 231.91 226.283 230.923 221.966 229.017 c 0
 176.508 208.939 147.11 144.528 141.852 118.757 c 1
 185.355 138.72 231.515 153.256 266.553 198.676 c 0
 269.048 201.911 270.284 210.258 267.899 214.519 c 0
 261.244 226.404 248.36 232.189 235.931 231.988 c 0
146.142 -33.5645 m 1
 149.045 -47.5195 163.012 -113.134 211.367 -134.093 c 0
 232.129 -143.093 269.979 -142.247 291.649 -123.185 c 0
 296.466 -119.885 294.057 -112.177 291.229 -107.397 c 0
 273.303 -77.0977 206.362 -43.1982 146.142 -33.5645 c 1
EndSplineSet
Substitution2: "BaaHehInit subtable" heh.medi_BaaHehInit
Substitution2: "LamHehInit subtable" heh.medi_LamHehInit
Substitution2: "BaaHehMedi subtable" heh.medi_BaaHehMedi
Colour: ff0000
EndChar

StartChar: kaf+alef.fina
Encoding: 65610 -1 75
Width: 0
VWidth: 0
AnchorPoint: "cursive" 150 4 entry 0
LayerCount: 2
Fore
SplineSet
155.209 51.9609 m 0
 180.044 45.6006 229.706 -50.7227 159.438 -53.3184 c 0
 6.00293 -58.9854 44.7041 117.681 35.3672 379.782 c 0
 32.377 463.719 17.623 600.415 5.01465 649.722 c 0
 2.91113 659.65 -3.47949 673.777 5.4873 688.025 c 2
 34.2314 733.701 l 2
 39.1992 741.596 45.4619 738.432 47.6553 731.513 c 0
 66.9863 670.536 71.7451 455.317 72.9033 418.449 c 0
 73.6855 393.549 74.5088 367.789 76.4746 321.516 c 0
 81.9248 193.215 67.1055 100.241 121.839 65.9746 c 0
 132.131 59.5312 143.414 54.9814 155.209 51.9609 c 0
76.4746 321.516 m 0
 51.3994 332.186 53.8672 380.329 68.9033 418.449 c 0
 132.32 579.221 562.636 722.655 757.268 780.177 c 0
 766.273 782.838 772.941 775.548 770.333 766.562 c 0
 763.668 743.602 757.002 720.641 750.337 697.68 c 0
 746.321 683.846 738.237 683.505 731.204 682.192 c 0
 607.478 659.102 219.169 520.634 97.6641 407.346 c 0
 96.3643 406.133 96.4902 404.518 98.2422 404.09 c 0
 161.756 388.577 239.848 350.565 288.394 314.7 c 0
 526.881 138.509 542.83 100.2 618.732 90.4814 c 0
 646.332 86.9473 645.188 -1.14062 619.467 0 c 0
 525.735 4.15625 431.273 134.571 341.686 190.75 c 1
 375.372 29.4863 293.176 -49.7949 159.438 -53.3184 c 0
 88.9785 -55.1748 90.5098 68.9609 155.209 51.9609 c 0
 220.151 34.8965 307.329 70.0928 325.119 109.812 c 0
 327.434 114.98 327.11 121.73 324.935 126.919 c 0
 280.029 234.009 135.211 296.523 76.4746 321.516 c 0
EndSplineSet
Colour: ff0000
EndChar

StartChar: kaf+alef.isol
Encoding: 65611 -1 76
Width: 0
VWidth: 0
AnchorPoint: "cursive" 225 54 entry 0
LayerCount: 2
Fore
SplineSet
225.495 102.398 m 0
 274.662 104.682 266.519 5.94141 230.287 0.981445 c 0
 177.673 -6.2207 124.825 9.85645 101.766 39.0391 c 0
 51.7891 102.287 46.5547 274.216 38.6758 442.13 c 0
 35.5977 507.729 21.3887 672.604 3.21387 729.899 c 0
 1.2373 736.13 1.84668 741.605 4.65723 745.938 c 2
 37.1797 796.111 l 2
 42.3066 804.017 45.8506 800.425 46.6934 794.777 c 0
 62.3252 690.392 74.0977 565.401 81.209 450.799 c 0
 83.3682 415.995 85.1396 382.237 87.4922 354.156 c 0
 100.247 201.878 105.225 163.781 139.994 127.891 c 0
 157.394 109.931 189.214 100.714 225.495 102.398 c 0
225.495 102.398 m 0
 267.594 106.882 328.772 130.477 363.073 168.023 c 1
 357.514 233.478 159.987 336.336 87.4922 354.156 c 0
 61.9307 360.439 75.3633 416.486 81.209 450.799 c 0
 102.976 578.571 634.276 776.698 756.999 819.027 c 0
 765.709 822.031 775.394 817.529 771.975 807.945 c 2
 771.975 807.945 757.978 768.713 750.978 749.097 c 0
 748.654 742.585 743.565 738.566 738.341 736.465 c 0
 574.945 670.749 198.686 517.238 114.728 442.292 c 1
 185.427 424.01 301.53 363.61 350.701 303.443 c 0
 387.669 258.207 407.931 175.642 389.964 121.362 c 0
 362.283 37.7393 288.879 8.22363 230.287 0.981445 c 0
 192.37 -3.70508 158.878 95.3047 225.495 102.398 c 0
EndSplineSet
Colour: ff0000
EndChar

StartChar: kaf+baa.init
Encoding: 65612 -1 77
Width: 0
VWidth: 0
AnchorPoint: "cursive" 219 68 entry 0
LayerCount: 2
Fore
SplineSet
221.211 31.2783 m 0
 182.306 40.959 142.14 68.1387 115.646 90.5049 c 0
 111.452 94.0449 108.044 94.8125 105.036 90.7002 c 0
 90.1494 70.3477 56.1826 10.7812 0 0 c 0
 -20.2646 -3.88867 -37.5986 88.4414 0.959961 90.3047 c 0
 54.3691 92.8857 96.8496 118.515 117.291 144.983 c 0
 124.315 154.077 132.514 147.204 133.871 145.99 c 0
 153.635 128.309 187.406 108.564 218.961 97.9062 c 0
 249.284 87.6631 263.997 20.6318 221.211 31.2783 c 0
-43.5771 400.682 m 0
 -47.5986 398.3 -48.9355 389.487 -44.6943 388.324 c 0
 154.334 333.738 308.651 267.91 310.438 121.013 c 0
 310.724 97.4355 307.66 51.1602 286.091 38.0166 c 0
 266.914 26.332 244.214 25.4629 221.211 31.2783 c 0
 185.877 40.2109 177.483 112.359 218.961 97.9062 c 0
 247.65 87.9082 274.747 87.1123 287.097 103.274 c 0
 287.895 104.318 289.362 105.734 288.712 107.784 c 0
 255.869 211.229 70.4053 268.763 -45.3867 296.045 c 0
 -60.0312 299.495 -69.6533 306.731 -73.7432 323.148 c 0
 -84.1172 364.785 -61.7959 441.234 -53.709 449.892 c 0
 9.9375 518.026 318.056 660.894 489.371 720.457 c 0
 499.936 724.13 516.417 721.099 508.691 700.223 c 0
 500.59 678.329 493.659 658.765 487.131 643.652 c 0
 484.133 636.714 477.646 633.068 475.431 632.328 c 0
 396.65 605.995 74.4102 469.874 -43.5771 400.682 c 0
EndSplineSet
Colour: ff0000
EndChar

StartChar: kaf+baa.medi
Encoding: 65613 -1 78
Width: 0
VWidth: 0
AnchorPoint: "cursive" 269 56 entry 0
LayerCount: 2
Fore
SplineSet
269.31 94.3359 m 0
 306.621 87.1094 290.518 12.0098 270.683 17.6143 c 0
 232.961 28.2734 196.27 52.0605 179.499 74.5488 c 1
 149.956 28.9346 116.906 5.08398 90.2881 2 c 0
 72.7197 -0.0351562 62.8447 91.748 90.8105 92.1826 c 0
 130.594 92.8008 157.194 106.201 173.7 126.678 c 0
 176.464 130.107 187.056 132.035 192.217 128.401 c 0
 214.795 112.502 239.641 100.082 269.31 94.3359 c 0
637.225 717.406 m 0
 615.18 645.827 l 2
 613.827 641.434 612.09 638.845 607.621 637.526 c 0
 419.803 582.152 83.7334 431.358 41.2656 387.229 c 0
 39.5674 385.463 39.085 380.616 41.9834 380.053 c 0
 149.932 359.087 252.538 315.483 353.633 256.872 c 0
 423.894 216.138 568.736 104.136 634.177 81.0938 c 0
 677.971 65.6738 653.85 -17.8691 634.377 -8.06641 c 0
 521.856 48.5752 441.592 128.492 357.535 173.22 c 0
 354.111 175.034 353.251 173.164 354.938 169.977 c 0
 375.163 131.779 392.889 66.4531 364.25 33.0508 c 0
 343.169 8.46289 306.239 6.43164 270.683 17.6143 c 0
 245.295 25.5996 218.642 108.104 269.309 94.3359 c 0
 292.407 88.0596 318.631 88.2793 347.466 92.0244 c 0
 352.53 92.6816 350.382 94.6299 348.911 99.8389 c 0
 318.439 207.706 122.797 271.926 24.6836 303.358 c 0
 19.6611 304.968 11.4219 309.896 8.88574 315.868 c 0
 4.27441 326.731 0.65332 349.082 0.693359 368.043 c 0
 0.759766 398.443 9.41895 425.188 16.5791 434.566 c 0
 69.8203 504.298 385.884 646.039 612.661 733.488 c 0
 626.271 738.736 641.355 730.815 637.225 717.406 c 0
EndSplineSet
Colour: ff0000
EndChar

StartChar: kaf+dal.isol
Encoding: 65614 -1 79
Width: 0
VWidth: 0
AnchorPoint: "cursive" 435 -126 entry 0
LayerCount: 2
Fore
SplineSet
963.048 783.666 m 0
 971.593 783.871 979.349 776.198 975.923 762.322 c 0
 971.259 743.426 965.496 717.017 961.767 704.76 c 0
 958.983 695.612 953.879 692.035 947.61 689.947 c 0
 741.339 621.236 452.946 519.842 349.704 448.229 c 1
 414.551 377.107 633.193 157.493 585.048 -63.3027 c 1
 563.562 -145.438 493.213 -172.385 434.818 -176.866 c 0
 409.07 -178.842 392.147 -86.2402 432.048 -83.8242 c 0
 475.466 -81.1943 526.496 -62.3174 560.289 -37.7969 c 1
 548.104 99.251 429.99 243.5 382.57 287.934 c 0
 380.195 290.449 377.707 291.43 372.82 287.121 c 2
 362.508 277.996 l 2
 358.862 274.782 353.739 275.234 350.414 278.996 c 2
 288.423 348.291 l 2
 283.836 353.482 282.727 404.71 304.947 456.31 c 1
 321.005 485.454 337.327 515.661 366.291 533.31 c 0
 550.312 645.436 791.538 720.1 958.267 782.729 c 0
 959.836 783.317 961.466 783.628 963.048 783.666 c 0
432.048 -83.8242 m 0
 468.208 -80.6924 474.269 -172.842 434.818 -176.866 c 0
 401.585 -180.256 372.147 -175.471 357.985 -170.569 c 0
 303.91 -151.854 287.646 -69.9111 277.302 -17.709 c 0
 275.711 -12.5723 267.09 -20.0166 266.321 -23.0986 c 0
 263.492 -34.4365 252.277 -67.6621 233.819 -94.3877 c 0
 226.643 -104.778 216.637 -115.318 208.196 -122.505 c 0
 188.489 -139.282 94.7686 -163.087 43.2588 -145.724 c 0
 11.2383 -134.93 14.8906 -83.668 17.9775 -51.1523 c 0
 19.8379 -31.5537 36.9307 -35.6045 39.7588 -41.0586 c 0
 46.415 -53.8965 49.4229 -57.165 68.6025 -59.7549 c 0
 108.366 -65.125 186.408 -54.6553 218.759 -37.8486 c 0
 238.3 -27.6973 255.918 -6.19238 258.884 13.6514 c 1
 256.805 50.8174 232.759 127.218 224.048 181.854 c 0
 221.367 194.707 222.264 200.338 224.923 209.322 c 0
 229.482 224.726 235.282 238.854 241.173 254.885 c 0
 244.146 262.976 255.451 263.524 257.579 252.916 c 0
 276.25 165.114 331.799 -41.2061 361.09 -65.209 c 0
 379.058 -79.9336 404.546 -86.2061 432.048 -83.8242 c 0
EndSplineSet
Colour: ff0000
EndChar

StartChar: kaf+heh.fina
Encoding: 65615 -1 80
Width: 0
VWidth: 0
AnchorPoint: "cursive" 273 10 entry 0
LayerCount: 2
Fore
SplineSet
829.037 844.213 m 0
 837.255 844.472 842.414 836.762 840.861 826.814 c 2
 830.073 757.565 l 2
 829.191 751.909 824.304 748.641 820.914 747.843 c 0
 638.047 704.833 358.613 618.188 215.941 523.452 c 1
 384.373 436.098 595.728 159.875 731.936 90.9023 c 0
 768.065 72.6074 745.745 -1.44824 731.323 0 c 0
 675.661 5.5918 572.19 129.193 484.982 213.956 c 0
 478.794 219.971 472.181 221.592 473.239 212.962 c 0
 481.096 163.448 489.805 113.133 483.634 62.7812 c 1
 453.266 -69.8506 298.196 -61.1289 267.91 -42.3066 c 0
 189.017 6.72363 261.14 78.5088 285.905 60.8789 c 0
 335.322 25.7021 418.582 56.0596 461.087 110.674 c 1
 449.127 226.825 283.56 371.406 182.963 454.054 c 0
 168.256 466.137 163.964 482.682 167.258 502.938 c 0
 171.259 527.535 175.369 553.399 190.338 578.629 c 1
 285.033 673.343 601.132 777.792 825.343 843.598 c 0
 826.632 843.977 827.863 844.173 829.037 844.213 c 0
285.905 60.8789 m 0
 326.35 30.6748 321.361 -70.4434 267.91 -42.3066 c 0
 212.157 -12.959 194.068 90.6182 189.068 116.71 c 1
 179.855 75.5537 171.344 60.3174 166.779 51.9414 c 0
 158.569 36.5498 151.645 31.292 141.875 28.7227 c 0
 98.4062 20.5713 29.2246 25.0479 17.543 35.2764 c 0
 9.9502 41.9229 -4.58301 58.832 1.89258 77.4727 c 0
 7.27832 92.9756 24.0068 134.598 27.3652 143.586 c 0
 33.4863 159.967 44.4902 171.445 44.4902 171.445 c 1
 77.96 204.459 116.465 221.37 158.002 241.267 c 1
 152.376 287.869 l 2
 151.753 293.491 150.572 306.113 153.163 315.455 c 1
 172.739 360.121 l 1
 185.774 373.771 189.087 357.524 191.035 347.173 c 0
 202.273 287.462 223.105 186.508 237.663 134.122 c 0
 243.409 113.443 257.177 82.334 285.905 60.8789 c 0
170.163 199.676 m 1
 147.82 190.852 69.3203 146.411 57.0234 119.396 c 1
 76.874 94.0918 146.246 103.185 166.336 113.77 c 0
 193.871 128.278 171.776 180.34 170.163 199.676 c 1
EndSplineSet
Colour: ff0000
EndChar

StartChar: kaf+heh.isol
Encoding: 65616 -1 81
Width: 0
VWidth: 0
AnchorPoint: "cursive" 307 23 entry 0
LayerCount: 2
Fore
SplineSet
900.499 921.244 m 0
 910.545 925.018 922.208 917.275 918.148 900.829 c 0
 913.483 881.934 907.721 855.521 903.991 843.265 c 0
 901.208 834.117 896.099 830.546 889.831 828.458 c 0
 683.559 759.747 395.162 658.344 291.92 586.729 c 1
 338.376 550.348 575.4 296.005 527.255 75.209 c 0
 496.766 -64.6162 324.009 -51.4385 300.202 -34.9424 c 0
 259.725 -6.89453 258.454 120.666 321.438 73.3066 c 0
 364.329 41.0557 443.585 66.5605 498.163 114.796 c 1
 483.449 234.506 364.044 385.095 310.494 441.789 c 0
 308.118 444.304 305.637 445.263 300.75 440.954 c 2
 290.413 431.852 l 2
 286.768 428.637 281.659 429.061 278.334 432.823 c 2
 230.651 486.797 l 2
 226.063 491.987 230.046 560.602 243.071 596.876 c 1
 259.129 626.02 275.453 656.209 304.417 673.857 c 0
 488.438 785.983 733.771 858.615 900.499 921.244 c 0
321.438 73.3066 m 0
 352.94 49.627 324.568 -50.7373 300.202 -34.9424 c 0
 246.774 -0.308594 228.783 109.262 224.309 135.722 c 1
 214.099 94.3613 205.167 79.1621 200.374 70.8027 c 0
 191.743 55.4414 184.635 50.2832 174.712 47.9033 c 0
 130.634 40.6279 60.8662 46.6719 49.2949 57.2578 c 0
 41.7734 64.1377 27.4678 81.5332 34.418 100.217 c 0
 40.1982 115.755 58.0088 157.42 61.5986 166.423 c 0
 68.1406 182.83 79.5059 194.181 79.5059 194.181 c 1
 114.033 226.784 152.551 251.113 195.853 270.272 c 1
 191.021 309.381 l 2
 190.516 315.072 189.601 327.845 192.422 337.223 c 1
 213.176 381.899 l 1
 226.64 395.397 225.883 377.235 229.348 368.466 c 1
 229.348 368.466 245.981 237.739 271.747 152.28 c 0
 278.006 131.521 292.162 95.3125 321.438 73.3066 c 0
207.043 219.924 m 1
 179.764 214.354 115.492 189.56 91.1045 145.38 c 1
 118.005 122.895 178.284 131.168 201.418 139.312 c 0
 231.394 149.865 208.246 200.361 207.043 219.924 c 1
EndSplineSet
Colour: ff0000
EndChar

StartChar: kaf+kaf.fina
Encoding: 65617 -1 82
Width: 0
VWidth: 0
AnchorPoint: "cursive" 646 25 entry 0
LayerCount: 2
Fore
SplineSet
503.061 337.541 m 0
 479.573 343.755 479.883 387.387 494.653 428.141 c 0
 537.041 545.1 872.132 724.04 1055.88 799.171 c 0
 1064.65 802.756 1069.7 794.114 1067.49 784.215 c 2
 1067.49 784.215 1058.25 742.923 1053.64 722.277 c 0
 1051.71 713.632 1044.45 708.786 1037.53 705.728 c 0
 890.498 640.818 652.868 511.477 541.754 429.092 c 1
 655.998 400.443 756.38 342.325 855.79 278.33 c 0
 955.594 214.082 1093.18 99.7461 1157.51 90.0957 c 0
 1193.94 84.6328 1198.27 -1.02539 1157.65 0 c 0
 1068.07 2.26074 871.271 207.51 798.908 233.108 c 1
 824.199 102.35 782.692 -2.37207 657.417 -21.1133 c 0
 598.172 -29.9756 577.03 65.1328 646.045 72.4609 c 0
 703.08 78.5166 766.75 116.047 790.142 145.396 c 1
 739.388 254.729 640.291 301.232 503.061 337.541 c 0
188.549 592.151 m 1
 194.346 592.009 196.452 586.317 194.806 581.724 c 2
 181.029 537.538 l 2
 177.882 527.445 173.42 524.516 170.082 523.825 c 0
 157.327 521.183 137.529 518.328 130.675 509.253 c 0
 124.286 500.796 140.163 491.628 188.304 476.154 c 0
 256.944 454.091 215.424 368.764 153.867 330.34 c 1
 118.15 314.04 55.6602 330.1 15.1152 345.107 c 0
 0.393555 350.555 1.83203 366.719 14.0059 367.526 c 0
 88.3477 372.47 136.05 373.341 160.028 386.122 c 1
 170.28 395.9 137.467 407.092 130.868 411.559 c 1
 104.424 421.55 85.0332 435.84 86.874 459.569 c 0
 91.0254 513.11 129.559 573.625 188.549 592.151 c 1
503.061 337.541 m 0
 514.601 239.066 527.308 104.599 576.537 81.0293 c 0
 596.965 71.248 619.607 70.1992 646.045 72.4609 c 0
 695.202 76.666 698.915 -13.0625 657.417 -21.1133 c 0
 493.918 -52.8301 476.964 121.65 468.742 181.697 c 1
 459.072 161.286 438.996 107.977 383.167 70.8359 c 0
 327.611 33.876 217.988 1.44922 98.5908 -9.55371 c 0
 -16.6885 -20.1768 -95.4141 13.4893 -136.356 52.2295 c 0
 -216.186 127.77 -180.321 248.453 -128.018 344.591 c 0
 -121.688 356.198 -106.476 345.307 -111.259 337.055 c 0
 -150.587 269.234 -188.436 105.063 84.1162 96.8125 c 0
 263.065 91.3945 413.3 148.572 459.798 232.526 c 1
 448.762 356.002 435.635 482.773 433.426 603.337 c 0
 433.2 615.727 432.565 633.723 435.779 646.07 c 2
 457.009 727.619 l 2
 459.753 738.168 476.242 739.462 477.086 725.216 c 2
 494.653 428.141 l 2
 496.669 394.052 499.98 363.826 503.061 337.541 c 0
EndSplineSet
Colour: ff0000
EndChar

StartChar: kaf+lam+alef.fina
Encoding: 65618 -1 83
Width: 0
VWidth: 0
AnchorPoint: "cursive" 292 153 exit 0
AnchorPoint: "cursive" 573 43 entry 0
LayerCount: 2
Fore
SplineSet
303.059 190.899 m 0
 307.777 154.461 271.202 84.4951 272.512 141.755 c 0
 274.369 222.26 201.406 389.903 62.7617 435.505 c 0
 60.3477 436.384 56.5801 436.427 56.1875 429.696 c 2
 54.7676 405.458 l 1
 52.3643 394.926 44.2402 393.274 35.6396 396.188 c 0
 -115.98 443.772 -96.1436 515.939 -84.2529 588.623 c 0
 -81.667 604.427 -68.5088 606.346 -57.4648 601.602 c 0
 114.826 527.591 272.342 428.045 303.059 190.899 c 0
576.925 92.9082 m 0
 608.428 95.4951 600.789 -3.99121 580.035 -5.71484 c 0
 393.508 -21.2041 419.468 106.33 390.286 394.129 c 1
 366.196 262.542 315.902 75.5449 203.532 -0.323242 c 0
 121.401 -55.7734 30.9697 -60.0186 -57.2061 -55.0801 c 0
 -78.3877 -53.8936 -69.1465 -42.6025 -61.8223 -39.7334 c 0
 53.8174 -2.57617 159.166 30.626 272.512 141.755 c 0
 286.824 155.788 292.954 173.48 303.059 190.899 c 0
 337.345 250.005 361.021 482.967 370.479 636.208 c 0
 372.102 651.236 373.382 665.239 379.866 676.223 c 2
 413.228 732.798 l 2
 420.092 744.426 431.513 740.246 431.729 730.374 c 2
 438.699 448.589 l 2
 439.641 410.527 440.186 383.838 442.406 349.555 c 0
 446.386 288.11 450.662 138.482 489.489 111.456 c 0
 510.372 96.9199 542.61 90.0908 576.925 92.9082 c 0
576.925 92.9082 m 0
 624.841 95.5391 680.492 118.612 711.334 161.982 c 1
 695.46 202.053 606.325 315.126 446.077 356.559 c 0
 419.028 363.553 424.746 414.232 438.699 448.589 c 0
 453.466 484.951 476.545 506.958 501.65 528.379 c 0
 615.303 628.856 953.778 761.34 1052.05 800.898 c 0
 1062.28 804.63 1076.26 802.415 1075.26 788.549 c 1
 1063.15 729.338 l 2
 1061.74 722.436 1056.31 718.793 1050.8 716.855 c 0
 906.522 669.876 499.973 477.485 479.892 440.109 c 1
 566.638 418.521 658.027 372.021 753.119 304.129 c 0
 838.753 242.989 910.824 175.208 992.599 122.012 c 0
 1025.35 100.709 1044.38 99.2695 1071.72 91.1006 c 0
 1108.96 79.9746 1101.78 -6.3916 1072.09 -0 c 0
 971.26 21.7051 785.149 210.896 727.822 238.821 c 1
 735.361 218.301 738.996 195.958 739.564 167.873 c 0
 741.451 74.6963 699.402 2.65527 580.035 -5.71484 c 0
 532.261 -9.06543 542.126 90.998 576.925 92.9082 c 0
EndSplineSet
Colour: ff0000
EndChar

StartChar: kaf+lam+alef.isol
Encoding: 65619 -1 84
Width: 0
VWidth: 0
AnchorPoint: "cursive" 375 162 exit 0
AnchorPoint: "cursive" 628 51 entry 0
LayerCount: 2
Fore
SplineSet
387.771 189.145 m 0
 388.882 159.042 360.414 120.579 361.539 159.864 c 0
 365.862 310.854 210.869 408.325 163.062 425.457 c 0
 160.087 426.523 156.053 426.001 155.553 422.401 c 0
 154.819 417.124 154.078 411.848 153.343 406.57 c 0
 152.624 401.419 150.59 395.567 139.43 399.062 c 0
 2.91699 441.811 -11.2695 508.879 4.21289 594.006 c 0
 7.30762 611.021 28.543 614.051 38.5293 610.09 c 0
 191.969 549.231 378.454 406.469 387.771 189.145 c 0
625.494 99.9805 m 0
 673.129 102.977 675.563 1.09375 631.957 -2.39746 c 0
 461.716 -16.0254 488.515 142.142 474.138 348.413 c 0
 473.825 352.904 467.896 352.32 466.855 348.152 c 0
 379.487 -2.6123 275.454 -34.1387 54.3164 -40.8203 c 0
 40.9619 -41.2236 40.3516 -29.748 50.0264 -26.0312 c 0
 186.33 27.0381 294.005 70.9951 387.771 189.145 c 0
 421.636 231.816 465.842 477.082 463.932 637.752 c 0
 463.845 644.969 465.827 652.632 468.222 660.28 c 0
 475.02 681.996 484.036 701.947 493.284 721.424 c 0
 499.66 734.858 513.518 724.798 514.567 710.02 c 1
 513.65 611.255 512.177 528.131 512.17 441.381 c 0
 512.168 412.667 515.4 373.749 516.133 349.911 c 0
 518.783 263.516 521.636 158.604 548.74 126.004 c 0
 564.498 107.051 592.55 97.9082 625.494 99.9805 c 0
625.494 99.9805 m 0
 668.741 101.817 720.652 118.214 764.908 146.678 c 0
 768.787 149.172 774.897 156.297 776.155 158.152 c 1
 735.315 262.719 579.811 327.423 516.133 349.911 c 0
 477.64 363.505 486.716 398.306 512.17 441.381 c 0
 594.008 579.87 963.741 695.323 1124.17 757.896 c 0
 1133.73 761.626 1148.57 759.878 1144.23 745.967 c 2
 1125.41 697.338 l 2
 1119.41 681.863 1111.79 674.146 1101.51 670.617 c 0
 948.715 618.15 629.133 497.092 557.939 433.709 c 1
 705.098 375.989 805.64 278.612 807.783 176.485 c 0
 809.438 97.5654 736.514 3.92773 631.957 -2.39648 c 0
 590.394 -4.91113 568.655 97.5664 625.494 99.9805 c 0
EndSplineSet
Colour: ff0000
EndChar

StartChar: kaf+lam+meem.medi
Encoding: 65620 -1 85
Width: 0
VWidth: 0
AnchorPoint: "cursive" 475 34 exit 0
AnchorPoint: "cursive" 218 146 entry 0
LayerCount: 2
Fore
SplineSet
182.729 201.968 m 0
 239.059 176.475 274.734 127.362 285.166 105.312 c 0
 300.634 72.6152 307.036 16.1504 295.366 -12.6992 c 0
 293.732 -16.7373 290.156 -18.6914 285.424 -18.7617 c 0
 225.046 -19.6602 175.195 36.3867 152.893 81.1064 c 0
 145.225 96.4805 134.32 89.0771 125.024 80.5449 c 0
 66.2061 21.3389 40.3965 6.75977 0 0 c 0
 -21.6172 -3.61719 -49.5752 88.1533 -0.0488281 91.2129 c 0
 23.2051 92.6494 113.139 91.0771 151.644 186.359 c 0
 157.195 200.099 170.437 207.531 182.729 201.968 c 0
491.381 83.0566 m 0
 523.825 65.8857 478.682 -35.0049 457.611 -8.75391 c 0
 413.305 46.4434 401.208 146.744 389.953 213.989 c 1
 382.316 194.717 346.868 124.266 285.166 105.312 c 0
 182.687 73.8301 124.113 202.896 178.562 203.061 c 0
 187.064 203.087 220.076 178.108 255.172 178.324 c 0
 273.975 178.439 351.623 188.053 368.502 241.477 c 0
 374.954 261.901 339.762 556.053 340.522 605.814 c 0
 340.722 618.859 338.742 634.445 344.621 647.365 c 2
 364.556 691.124 l 2
 372.695 709.013 383.609 693.507 384.382 683.529 c 0
 391.382 593.171 398.307 509.047 408.658 418.816 c 0
 410.327 404.265 419.645 340.049 422.673 309.948 c 0
 430.376 233.396 448.589 105.705 491.381 83.0566 c 0
422.673 309.948 m 0
 385.29 311.953 392.83 366.662 417.149 418.467 c 0
 482.109 556.844 792.396 685.917 1012.22 785.904 c 0
 1021.46 790.108 1028.84 785.232 1028.82 774.52 c 2
 1028.74 729.065 l 2
 1028.96 721.971 1026.66 710.991 1016.57 705.875 c 1
 867.76 654.899 571.649 509.493 451.806 399.075 c 1
 626.333 371.962 752.644 239.457 876.601 148.995 c 0
 916.063 120.195 937.694 98.1445 996.906 75.8613 c 0
 1027.04 64.5205 1025.05 -20.3535 996.613 -13.8408 c 0
 908.758 6.27734 780.771 159.352 690.426 209.889 c 1
 705.499 112.802 705.226 14.9717 589.822 -22.7881 c 0
 524.709 -44.1348 480.74 -38.0322 457.611 -8.75391 c 0
 427.132 29.8271 437.407 111.508 491.381 83.0566 c 0
 555.271 49.3779 648.217 99.585 672.831 130.387 c 1
 686.209 194.928 543.682 303.459 422.673 309.948 c 0
EndSplineSet
Colour: ff0000
EndChar

StartChar: kaf+lam.init
Encoding: 65621 -1 86
Width: 0
VWidth: 0
AnchorPoint: "cursive" 230 32 entry 0
LayerCount: 2
Fore
SplineSet
222.88 81.625 m 0
 275.104 84.7588 276.384 -14.7832 232.166 -17.2588 c 0
 118.999 -23.5947 93.877 21.4863 80.4795 122.038 c 1
 62.9941 64.209 38.6572 11.7725 0 0 c 0
 -22.1982 -6.75977 -35.0117 88.5498 0.609375 90.3145 c 0
 27.3477 91.6396 62.0693 119.35 64.9746 151.007 c 0
 69.8213 203.798 53.6104 458.799 42.9072 622.787 c 0
 42.502 628.992 40.8672 636.26 44.4219 644.785 c 2
 66.6953 698.077 l 2
 68.4131 702.807 79.5137 704.699 80.1572 695.414 c 2
 100.407 411.078 l 2
 102.859 376.648 102.981 353.524 104.523 327.087 c 0
 109.716 238.121 111.821 114.657 156.376 91.2939 c 0
 175.827 81.0947 199.229 80.2061 222.88 81.625 c 0
98.0332 411.869 m 0
 121.572 537.55 559.296 673.462 675.774 717.1 c 0
 686.201 720.517 695.47 717.675 691.584 705.91 c 2
 674.891 653.109 l 2
 672.615 644.667 669.883 638.696 661.704 635.676 c 0
 502.816 577.004 187.347 481.776 133.725 412.948 c 0
 130.155 408.367 131.174 407.993 135.675 406.213 c 0
 257.472 358.031 377.895 248.446 376.774 155.508 c 0
 375.286 33.6045 291.098 -14.9678 232.166 -17.2588 c 0
 188.482 -18.957 188.465 78.1895 222.88 81.625 c 0
 271.061 86.4346 323.188 111.952 354.46 142.596 c 0
 356.998 145.093 357.024 147.039 356.331 149.334 c 0
 304.389 238.337 166.783 314.582 104.06 333.584 c 0
 73.0332 342.984 92.625 382.996 98.0332 411.869 c 0
EndSplineSet
Colour: ff0000
EndChar

StartChar: kaf+lam.isol
Encoding: 65622 -1 87
Width: 0
VWidth: 0
AnchorPoint: "cursive" 557 159 entry 0
LayerCount: 2
Fore
SplineSet
411.291 521.476 m 0
 495.406 686.48 811.852 802.67 1021.94 872.609 c 0
 1024.58 873.488 1026.84 874.169 1028.86 874.271 c 0
 1036.07 874.641 1039.42 869.416 1037.11 860.553 c 2
 1020.87 805.628 l 2
 1016.13 787.449 1006.73 784.568 998.896 781.545 c 0
 838.339 719.586 639.872 665.026 448.446 519.909 c 1
 522.504 498.857 694.821 451.376 716.74 297.077 c 1
 722.456 197.614 647.122 114.409 561.06 111.5 c 0
 515.295 109.952 515.903 199.853 555.247 202.36 c 0
 594.59 204.868 638.818 231.083 688.299 274.539 c 0
 690.552 276.518 690.73 279.755 689.457 281.784 c 0
 627.003 381.255 514.334 411.252 420.182 439.347 c 0
 399.554 445.502 389.413 478.56 411.291 521.476 c 0
561.061 111.5 m 0
 481.847 106.537 457.097 158.597 432.909 206.204 c 1
 440.731 146.096 451.704 41.168 442.085 -13.0645 c 0
 424.973 -109.537 338.855 -170.643 260.864 -189.426 c 0
 164.31 -212.681 55.9512 -188.165 15.376 -92.7988 c 0
 -31.915 18.3555 51.8428 149.824 74.499 192.393 c 0
 83.8525 209.967 101.085 198.766 92.8203 183.484 c 0
 46.623 98.0645 -22.4502 -69.5088 176.531 -94.877 c 0
 248.697 -104.078 369.929 -71.1729 412.896 -6 c 1
 415.258 118.296 366.657 465.9 339.597 706.726 c 0
 337.475 725.612 357.372 754.746 366.827 767.423 c 0
 378.102 783.155 382.409 769.636 383.04 761.127 c 0
 388.234 691.654 402.987 591.771 411.291 521.476 c 0
 415.646 484.605 417.396 458.273 420.183 439.347 c 0
 432.499 355.666 441.35 253.877 501.813 215.922 c 0
 518.521 205.435 536.475 199.831 555.247 202.36 c 0
 590.587 207.121 605.746 114.299 561.061 111.5 c 0
EndSplineSet
Colour: ff0000
EndChar

StartChar: kaf+lam.medi
Encoding: 65623 -1 88
Width: 0
VWidth: 0
AnchorPoint: "cursive" 197 41 entry 0
LayerCount: 2
Fore
SplineSet
193.524 93.6768 m 0
 275.476 64.3359 375.365 135.185 382.405 149.749 c 1
 378.304 250.155 206.934 318.066 113.855 347.482 c 0
 81.54 357.695 91.1738 397.434 104.737 435.172 c 0
 157.119 580.916 512.777 751.804 663.931 810.983 c 0
 677.564 816.321 689.066 811.206 685.395 795.5 c 2
 685.395 795.5 675.509 753.204 670.563 732.057 c 0
 668.622 723.758 665.532 717.069 655.079 713.258 c 0
 512.646 661.32 206.81 497.249 144.881 432.598 c 1
 448.061 319.711 583.078 121.605 683.291 87.6426 c 0
 712.739 77.6621 703.856 -4.16016 683.468 -3.20801 c 0
 637.729 -1.06934 487.712 157.246 403.246 221.351 c 1
 406.725 174.522 408.601 17.5977 261.496 -8.22363 c 0
 233.862 -13.0742 211.14 -13.0303 192.217 -10.3047 c 0
 149.007 -4.0791 172.625 101.159 193.524 93.6768 c 0
109.934 337.149 m 0
 112.962 296.518 118.479 115.109 193.524 93.6768 c 0
 249.186 77.7793 230.847 -16.7734 192.217 -10.3047 c 0
 110.098 3.44727 101.908 80.8096 89.0156 127.752 c 1
 78.2715 83.876 46.1895 18.1035 6.9209 6.79297 c 0
 -17.3916 -0.208984 -49.9609 86.9004 6.9209 96.2109 c 0
 23.0488 98.8516 66.75 111.052 70.4531 132.756 c 1
 74.8203 196.078 53.8574 441.097 42.3877 674.648 c 0
 42.1787 682.729 38.9277 690.627 43.9873 699.429 c 2
 72.2305 748.542 l 2
 75.8252 754.795 81.417 754.169 82.2949 742.147 c 2
 104.737 435.171 l 2
 106.779 407.24 108.03 362.694 109.934 337.149 c 0
EndSplineSet
Colour: ff0000
EndChar

StartChar: kaf+meem+alef.fina
Encoding: 65624 -1 89
Width: 0
VWidth: 0
AnchorPoint: "cursive" 131 -12 exit 0
AnchorPoint: "cursive" 167 29 entry 0
LayerCount: 2
Fore
SplineSet
72.7754 379.905 m 0
 71.6514 158.661 112.601 75.1699 150.581 32.6113 c 0
 182.371 -3.01172 163.127 -126.003 106.597 -41.9932 c 0
 40.9658 55.541 26.7119 211.292 27.3262 421.697 c 0
 27.5732 506.297 14.9189 600.243 1.08203 673.899 c 0
 -0.587891 682.833 -2.24023 689.794 1.08203 694.81 c 2
 32.8984 742.806 l 2
 38.3828 751.086 45.9014 751.631 47.8193 737.294 c 0
 62.0908 630.596 69.5293 534.829 70.7832 470.831 c 0
 71.3643 441.179 72.9326 410.784 72.7754 379.905 c 0
150.581 32.6113 m 0
 152.328 31.2422 155.644 30.9521 156.184 33.4805 c 0
 160.05 51.5859 166.71 64.5488 175.327 39.9814 c 0
 191.142 -5.10547 247.605 -38.6904 303.645 -48.4307 c 0
 309.979 -49.5312 314.924 -53.5186 314.67 -66.7061 c 2
 313.172 -144.361 l 2
 312.913 -157.854 312.214 -161.287 303.645 -160.241 c 0
 211.097 -145.001 150.073 -106.276 106.597 -41.9932 c 0
 71.4434 9.9834 117.18 58.7842 150.581 32.6113 c 0
66.7832 470.831 m 0
 165.194 611.42 522.719 724.769 716.857 770.639 c 0
 717.953 771.004 719.155 771.169 720.393 771.119 c 2
 720.394 771.119 l 2
 725.758 770.904 731.591 766.906 730.46 760.184 c 2
 720.004 698.047 l 2
 718.468 688.912 713.061 688.809 709.578 687.591 c 0
 512.887 631.259 305.58 576.408 112.46 464.754 c 1
 193.151 439.714 316.579 380.147 418.931 295.986 c 0
 526.255 207.736 612.809 115.218 667.503 90.209 c 0
 712.57 69.6016 682.438 -5.83105 667.43 0 c 0
 586.956 31.2666 473.18 181.996 373.961 247.939 c 1
 378.862 213.903 383.473 173.071 367.31 134.114 c 0
 324.914 31.9307 222.316 96.707 177.274 50.167 c 0
 174.097 47.5801 174.441 45.6934 175.327 39.9814 c 0
 182.418 -5.7373 149.396 -3.3418 156.184 33.4805 c 0
 175.647 139.078 276.02 136.854 349.124 140.356 c 0
 356.556 140.712 354.994 150.398 355.305 153.257 c 0
 360.362 267.36 135.289 366.918 72.7754 379.905 c 0
 48.332 384.982 42.9404 436.771 66.7832 470.831 c 0
EndSplineSet
Colour: ff0000
EndChar

StartChar: kaf+meem+alef.isol
Encoding: 65625 -1 90
Width: 0
VWidth: 0
AnchorPoint: "cursive" 148 -42 exit 0
AnchorPoint: "cursive" 206 -16 entry 0
LayerCount: 2
Fore
SplineSet
84.1846 313.205 m 0
 88.6826 240.024 83.2812 67.958 176.717 -8 c 0
 250.172 -67.7158 181.23 -133.723 136.704 -83.0908 c 0
 112.66 -55.75 93.4287 -27.1338 81.3789 2.04883 c 0
 27.0244 133.948 53.2217 332.193 1.58301 663.201 c 0
 0.137695 672.494 -2.67285 678.514 1.67285 685.171 c 2
 32.0645 731.739 l 2
 36.0566 737.857 45.1328 742.209 47.4863 724.556 c 0
 60.2188 629.04 68.3213 537.916 76.2178 446.147 c 0
 80.2939 398.771 80.8398 367.612 84.1846 313.205 c 0
136.704 -83.0908 m 0
 65.8281 -2.16699 128.546 35.458 176.717 -8 c 0
 180.247 -11.1846 187.972 -11.6309 187.159 -3.14062 c 0
 185.241 16.917 203.322 11.3369 223.164 -10.1426 c 0
 256.281 -45.9922 293.618 -68.8965 351.357 -88.3555 c 0
 359.008 -90.9336 368.58 -99.041 364.49 -111.062 c 2
 340.457 -181.7 l 2
 335.69 -195.709 324.664 -201.04 309.051 -196.51 c 0
 247.185 -178.562 182.729 -135.641 136.704 -83.0908 c 0
187.159 -3.14062 m 0
 186.523 23.2695 200.689 61.1016 226.725 81.752 c 0
 270.201 116.236 350.791 107.064 419.876 128.805 c 0
 428.663 131.57 427.379 140.43 422.291 148.211 c 0
 367.137 232.562 193.152 286.409 84.1846 313.205 c 0
 53.9697 320.635 39.2773 387.199 76.2178 446.147 c 0
 156.167 573.727 481.284 675.73 683.527 780.661 c 0
 687.288 782.613 690.845 783.589 693.908 783.679 c 2
 693.909 783.679 l 1
 693.909 783.679 l 1
 693.909 783.679 l 1
 693.909 783.679 l 1
 701.741 783.894 706.453 778.2 703.748 767.382 c 2
 688.327 705.694 l 2
 683.166 685.052 675.415 682.098 665.994 678.562 c 0
 572.159 643.354 187.872 493.167 100.905 414.156 c 0
 97.5957 411.149 97.1201 407.597 102.053 406.188 c 0
 453.352 306.11 478.584 185.434 453.226 101.04 c 0
 430.679 26.0039 279.963 42.3457 235.984 27.9785 c 0
 215.562 21.3066 210.079 4.27441 223.164 -10.1426 c 0
 245.102 -34.3135 188.775 -70.251 187.159 -3.14062 c 0
EndSplineSet
Colour: ff0000
EndChar

StartChar: kaf+meem+lam.fina
Encoding: 65626 -1 91
Width: 0
VWidth: 0
AnchorPoint: "cursive" 432 -31 exit 0
AnchorPoint: "cursive" 491 -10 entry 0
LayerCount: 2
Fore
SplineSet
311.603 314.501 m 0
 317.32 266.281 327.793 96.6777 436.922 13.9062 c 0
 483.864 -21.6973 465.133 -103.904 426.478 -77.9824 c 0
 388.916 -52.7949 355.655 -16.7178 324.105 32.832 c 1
 336.512 -71.2754 339.842 -234.055 309.028 -280.74 c 0
 256.563 -360.232 143.595 -398.711 30.3633 -388.958 c 0
 -69.5518 -380.352 -122.109 -310.961 -127.029 -232.544 c 0
 -132.43 -146.459 -92.2217 -42.0635 -44.9023 36.6426 c 0
 -36.8086 50.1035 -21.6377 39.1885 -27.6084 28.6543 c 0
 -78.1729 -60.5625 -140.533 -251.832 33.4072 -287.949 c 0
 133.083 -308.646 261.803 -250.989 304.506 -194.665 c 1
 233.973 551.788 l 2
 231.909 573.618 230.699 584.084 233.293 591.766 c 0
 241.73 616.746 251.151 641.362 263.348 665.51 c 0
 271.256 681.169 278.964 668.545 279.795 659.604 c 2
 304.542 393.274 l 2
 306.911 367.788 308.487 340.766 311.603 314.501 c 0
436.922 13.9062 m 0
 446.411 7.05664 456.222 0.112305 467.035 -6 c 1
 465.662 25.874 483.342 28.9414 499.568 14.5518 c 0
 522.742 -6 557.771 -33.9541 617.427 -44.2334 c 0
 622.186 -45.0537 625.554 -50.1533 625.271 -55.5078 c 2
 620.929 -137.557 l 2
 620.453 -146.548 615.089 -147.363 610.416 -146.824 c 0
 554.805 -140.408 479.566 -116.016 426.478 -77.9824 c 0
 389.432 -51.4434 389.605 48.0654 436.922 13.9062 c 0
467.035 -6 m 0
 466.944 1.78027 454.796 40.2041 485.528 80.3652 c 0
 529.377 137.666 617.08 125.083 648.815 153.974 c 1
 596.373 245.986 438.217 295.929 309.603 314.501 c 0
 276.908 319.25 287.376 353.967 304.542 393.274 c 0
 369.681 542.426 695.705 700.904 991.856 811.225 c 0
 1000.6 814.482 1011.45 809.863 1008.73 800.333 c 2
 1008.73 800.333 995.72 754.653 989.212 731.814 c 0
 983.501 711.773 973.729 710.474 965.179 707.34 c 0
 825.21 656.028 431.752 482.576 370.392 414.501 c 0
 367.844 411.675 369.23 409.094 373.062 408.326 c 0
 465.476 389.725 587.528 345.54 694.424 284.55 c 0
 794.897 227.223 915.185 100.115 1006.14 90.6973 c 0
 1036.46 87.5586 1040.27 4.14648 1006 0.0107422 c 0
 937.567 -8.24805 763.505 168.05 663.063 214.626 c 1
 680.847 143.202 645.123 81.001 617.307 67.293 c 0
 577.338 47.5977 532.213 55.3467 500.144 28.6982 c 0
 493.509 23.1855 494.19 19.5059 499.568 14.5518 c 0
 561.34 -42.3711 467.439 -40.8242 467.035 -6 c 0
EndSplineSet
Colour: ff0000
EndChar

StartChar: kaf+meem+lam.init
Encoding: 65627 -1 92
Width: 0
VWidth: 0
AnchorPoint: "cursive" 190 47 exit 0
AnchorPoint: "cursive" 228 104 entry 0
LayerCount: 2
Fore
SplineSet
109.633 394.096 m 0
 131.354 213.662 147.458 141.522 206.5 89.4775 c 0
 244.234 56.2158 209.018 -24.3291 180.395 3.8291 c 0
 148.713 34.9932 121.351 77.874 98.041 138.29 c 1
 69.5547 47.7822 20.5088 4.00684 0 0 c 0
 -18.998 -3.71191 -41.4307 83.5605 0.0351562 91.167 c 0
 31.1162 96.8691 72.5947 111.104 71.8955 151.756 c 0
 71.2129 191.531 47.2422 479.744 27.2178 649.465 c 1
 26.2197 670.135 25.5322 680.054 28.3115 687.184 c 0
 37.3486 710.367 44.9756 720.35 53.6709 742.586 c 0
 59.7012 758.005 68.6973 750.061 69.0928 741.595 c 2
 98.3359 481.095 l 2
 101.438 453.47 105.028 432.345 109.633 394.096 c 0
206.5 89.4775 m 1
 228.437 162.186 298.308 137.929 253.102 101.273 c 0
 246.778 96.1465 245.145 88.918 249.945 83.9609 c 0
 271.861 61.3369 300.863 34.5762 370.772 21.0146 c 0
 375.246 20.1475 377.9 15.1016 377.679 10.0459 c 2
 363.508 -72.4453 l 1
 363.135 -80.9346 357.515 -81.7539 353.195 -80.7266 c 0
 285.686 -64.6533 228.141 -43.0469 179.346 4.87305 c 0
 138.409 45.0742 164.543 118.868 206.5 89.4775 c 1
109.633 394.096 m 0
 74.8818 400.774 76.5303 437.422 98.3359 481.095 c 0
 151.099 586.767 375.221 678.583 669.56 772.456 c 0
 677.363 774.938 687.049 771.199 684.997 761.456 c 2
 684.997 761.456 679.088 721.521 671.961 700.272 c 0
 665.708 681.626 656.61 680.201 648.242 678.241 c 0
 511.496 646.201 243.198 553.844 156.928 481.499 c 0
 154.177 479.192 155.599 476.452 159.178 475.562 c 0
 300.882 448.146 403.92 369.873 436.758 281.492 c 0
 460.805 216.772 420.498 156.639 394.758 142.711 c 0
 335.943 110.888 282.808 124.286 253.102 101.273 c 0
 220.009 75.6367 193.438 31.998 206.5 89.4775 c 0
 209.85 104.214 216.701 130.069 248.598 162.348 c 0
 296.121 210.44 381.352 178.555 418.695 222.93 c 1
 373.245 311.949 229.992 370.962 109.633 394.096 c 0
EndSplineSet
Colour: ff0000
EndChar

StartChar: kaf+meem.fina
Encoding: 65628 -1 93
Width: 0
VWidth: 0
AnchorPoint: "cursive" 162 106 entry 0
LayerCount: 2
Fore
SplineSet
775.321 814.991 m 1
 744.824 750.961 l 2
 741.942 744.911 738.876 739.516 730.805 738.151 c 0
 469.389 693.97 182.108 629.085 61.459 580.221 c 1
 56.7715 574.656 54.7842 566.209 73.2598 552.396 c 0
 131.4 508.926 234.844 425.32 332.267 336.089 c 0
 465.662 213.904 550.345 120.143 627.015 91.8789 c 0
 645.757 84.9697 651.528 65.6963 652.021 45.5938 c 0
 652.513 25.4912 643.147 0.186523 627.296 0 c 0
 533.077 -1.1084 369.768 231.999 267.784 299.104 c 1
 280.957 258.752 291.36 223.438 284.163 192.301 c 0
 277.717 164.414 242.308 125.246 225.947 109.321 c 0
 188.834 73.1943 87.2207 69.3008 101.929 125.694 c 0
 103.771 132.754 107.485 136.812 116.067 137.261 c 0
 139.155 138.488 223.646 161.282 264.507 196.981 c 1
 231.198 313.048 81.957 430.108 22.4414 497.353 c 0
 14.3525 506.492 2.78027 520.243 6.50977 533.217 c 0
 14.2725 560.216 56.5127 624.218 69.209 634.862 c 0
 184.339 731.386 607.639 800.971 767.045 830.003 c 0
 775.58 831.557 781.134 827.196 775.321 814.991 c 1
116.067 137.261 m 0
 143.044 138.424 194.146 123.58 225.947 109.321 c 0
 259.9 94.0977 296.147 70.2295 331.732 49.1504 c 0
 336.997 46.0352 339.646 39.4941 337.057 30.4385 c 2
 315.227 -45.9678 l 2
 313.725 -51.2227 310.57 -58.6963 302.887 -56.1377 c 0
 217.638 -27.7588 122.789 -20.8643 42.165 -86.0859 c 0
 37.1855 -90.1162 37.2295 -165.418 43.5049 -215.232 c 0
 58.2852 -332.544 92.5166 -481.457 81.1289 -573.9 c 0
 78.623 -594.244 55.8223 -598.127 56.4746 -571.115 c 0
 57.7217 -517.893 2.08008 -238.23 0.226562 -154.115 c 0
 -1.52051 -74.9502 54.7979 19.9434 103.221 36.5576 c 1
 98.6152 38.96 93.6641 42.6113 90.4014 45.7061 c 0
 85.9541 49.9238 82.6064 53.6797 84.4121 60.4092 c 2
 101.929 125.694 l 2
 103.82 132.741 107.481 136.891 116.067 137.261 c 0
EndSplineSet
Colour: ff0000
EndChar

StartChar: kaf+meem.init
Encoding: 65629 -1 94
Width: 0
VWidth: 0
AnchorPoint: "cursive" 218 213 entry 0
LayerCount: 2
Fore
SplineSet
154.844 227.908 m 0
 170.602 236.424 229.624 249.748 273.582 192.345 c 0
 312.704 141.256 269 31 234.146 37.3076 c 0
 198.046 43.8408 138.041 66.0566 100.98 102.141 c 1
 80.2314 68.8105 61.1973 2.23438 0.0976562 0.235352 c 0
 -28.9707 -0.71582 -31.7188 89.2812 0.147461 90.8525 c 0
 26.9854 92.1768 62.7324 105.607 81.8438 127.257 c 0
 105.692 154.271 125.101 211.834 154.844 227.908 c 0
182.323 169.581 m 0
 173.001 169.525 163.468 167.908 154.078 164.355 c 0
 150.02 162.819 150.616 158.326 152.951 156.418 c 0
 186.108 129.321 220.061 119.22 252.479 113.001 c 0
 257.217 112.092 262.029 112.939 261.129 117.635 c 0
 256.468 141.961 219.188 169.823 182.323 169.581 c 0
685.176 785.033 m 0
 696.207 785.494 701.05 771.299 693.828 763.627 c 1
 657.739 712.522 l 1
 651.065 705.431 639.965 703.945 633.68 703.508 c 0
 505.606 696.273 223.407 664.093 126.297 594.445 c 0
 122.675 591.494 126.854 588.722 129.011 586.998 c 0
 190.512 537.858 310.482 401.459 322.361 313.851 c 0
 325.738 288.947 329.948 210.244 273.64 183.644 c 0
 250.643 172.779 127.769 211.276 153.934 227.174 c 0
 185.04 246.073 253.338 224.78 291.72 238.174 c 0
 295.14 239.367 297.96 242.891 297.75 247.34 c 0
 295.235 300.622 226.393 391.577 165.017 439.687 c 0
 162.065 442.518 157.104 443.541 153.981 441.104 c 0
 148.985 437.168 147.201 432.486 141.161 425.241 c 0
 138.781 422.387 131.569 421.232 126.539 425.482 c 0
 102.345 446.354 88.3027 460.55 68.2383 481.815 c 0
 63.9971 486.311 58.6123 491.577 58.5303 499.423 c 0
 58.3311 518.475 73.3711 588.227 104.6 621.62 c 0
 219.6 744.599 564.245 779.978 685.176 785.033 c 0
EndSplineSet
Colour: ff0000
EndChar

StartChar: kaf+meem.isol.alt
Encoding: 65630 -1 95
Width: 0
VWidth: 0
AnchorPoint: "cursive" 443 206 entry 0
LayerCount: 2
Fore
SplineSet
362.166 167.238 m 0
 388.428 142.946 429.212 124.462 469.998 118.98 c 0
 475.466 118.246 484.23 123.854 478.015 133.679 c 0
 445.663 184.811 385.535 188.014 369.515 184.608 c 0
 358.655 182.3 355.007 173.86 362.166 167.238 c 0
515.358 172.276 m 0
 525.454 118.682 497.58 55.0547 471.734 45.5693 c 0
 444.919 35.7285 371.951 62.2031 347.77 79.5479 c 1
 338.431 59.1602 321.877 29.6016 300.992 17.8252 c 0
 206.646 -35.374 98.2705 -64.4717 22.7891 -80.5166 c 1
 0.458984 -87.1104 -3.9541 -74.0801 16.7061 -61.7158 c 0
 112.21 -4.55664 310.562 85.5635 317.787 107.434 c 1
 299.136 140.349 334.125 243.188 386.33 245.388 c 0
 407.108 246.262 503.225 236.691 515.358 172.276 c 0
851.113 777.672 m 0
 703.839 766.422 554.996 752.511 400.489 653.844 c 1
 459.407 587.986 546.409 475.565 572.488 373.142 c 0
 591.583 298.149 576.87 212.245 515.358 172.276 c 0
 463.759 138.749 322.654 242.598 386.33 245.388 c 0
 450.962 248.219 510.145 230.47 549.749 270.018 c 1
 548.047 307.92 471.323 468.304 409.461 520.699 c 0
 401.027 527.842 384.675 515.344 374.09 511.484 c 0
 366.926 509.018 357.821 511.082 349.445 525.399 c 2
 323.035 570.538 l 2
 318.601 578.119 315.362 586.861 320.165 602.029 c 0
 329.249 630.722 340.361 662.785 356.814 684.967 c 1
 526.44 815.171 699.94 848.518 902.27 862.287 c 0
 910.486 862.846 918.313 853.596 907.948 839.571 c 2
 867.92 785.415 l 2
 861.902 776.666 860.938 778.504 851.113 777.672 c 0
EndSplineSet
EndChar

StartChar: kaf+meem.isol
Encoding: 65631 -1 96
Width: 0
VWidth: 0
AnchorPoint: "cursive" 155 187 entry 0
LayerCount: 2
Fore
SplineSet
110.194 203.177 m 0
 120.11 207.679 187.162 210.55 228.599 194.309 c 0
 271.153 177.63 314.719 152.504 336.397 131.433 c 0
 340.343 127.599 346.331 118.68 341.393 103.538 c 2
 318.386 32.9971 l 2
 316.961 28.6279 312.124 23.7969 307.422 24.9082 c 0
 245.329 39.583 148.715 49.4121 52.2588 2.52734 c 0
 48.6094 0.753906 46.4238 -8.44824 46.7539 -12.3975 c 0
 56.7158 -131.462 124.642 -362.096 98.1436 -470.021 c 0
 94.3682 -485.399 79.4463 -485.764 78.2305 -470.303 c 0
 67.8066 -337.774 42.3418 -224.374 14.9561 -94.4648 c 0
 -2.75879 -10.4297 42.2734 72.8652 114.494 110.141 c 1
 80.7236 121.408 l 2
 77.0752 122.626 73.5244 124.19 75.1094 130.298 c 2
 75.1094 130.298 82.4229 155.473 93.1211 186.912 c 0
 95.1855 192.979 102.443 199.657 110.194 203.177 c 0
671.445 855.432 m 2
 652.114 791.957 l 2
 649.191 782.358 642.5 779.274 636.048 778.196 c 0
 441.568 745.703 144.18 696.85 86.0703 643.602 c 1
 111.921 622.534 307.788 412.141 271.135 277.373 c 0
 263.379 248.854 262.55 235.997 228.599 194.309 c 0
 205.338 165.747 92.5449 131.331 95.9932 184.562 c 0
 96.4062 190.932 103.079 199.838 110.194 203.177 c 0
 157.821 225.523 206.119 234.183 243.247 272.124 c 1
 236.11 373.309 150.477 449.741 117.65 484.442 c 0
 113.837 488.474 111.338 489.461 103.021 486.531 c 0
 92.6982 482.895 82.377 479.258 72.0557 475.622 c 0
 65.0693 473.161 61.8652 477.299 57.6943 483.324 c 0
 38.8652 510.523 20.0371 537.723 1.20801 564.922 c 0
 -2.9043 570.861 -2.75391 581.561 -0.714844 590.241 c 0
 8.33105 628.759 40.0723 680.415 58.1816 696.821 c 0
 156.414 785.819 446.135 836.122 656.581 873.911 c 0
 660.476 874.61 678.795 879.563 671.445 855.432 c 2
EndSplineSet
Colour: ff0000
EndChar

StartChar: kaf+meem.medi
Encoding: 65632 -1 97
Width: 0
VWidth: 0
AnchorPoint: "cursive" 217 207 entry 0
LayerCount: 2
Fore
SplineSet
154.746 227.673 m 0
 170.504 236.189 229.526 249.513 273.484 192.11 c 0
 312.607 141.021 268.903 30.7646 234.048 37.0723 c 0
 197.949 43.6055 137.943 65.8223 100.883 101.906 c 1
 80.1338 68.5762 61.0996 1.99902 0 0 c 0
 -29.0674 -0.951172 -31.8164 89.0459 0.0498047 90.6182 c 0
 26.8887 91.9414 62.6348 105.372 81.7461 127.021 c 0
 105.595 154.036 125.003 211.599 154.746 227.673 c 0
182.226 169.346 m 0
 172.904 169.29 163.37 167.673 153.981 164.12 c 0
 149.922 162.584 150.519 158.091 152.854 156.183 c 0
 186.011 129.086 219.963 118.985 252.381 112.766 c 0
 257.119 111.857 261.932 112.704 261.032 117.4 c 0
 256.37 141.726 219.091 169.588 182.226 169.346 c 0
787.875 855.785 m 0
 787.872 855.785 l 1
 787.872 855.785 l 1
 799.704 855.86 802.983 844.857 798.878 837.135 c 2
 763.118 769.868 l 2
 759.09 762.292 755.392 762.771 751.408 761.959 c 0
 639.68 739.036 307.73 698.171 125.143 600.119 c 0
 119.935 597.483 102.003 584.355 106.357 581.933 c 0
 214.062 535.14 342.438 437.032 450.788 340.377 c 0
 580.812 224.39 665.806 124.966 757.27 101.957 c 1
 757.736 11.3066 l 1
 658.537 9.97461 426.932 299.674 317.148 366.071 c 1
 350.422 225.838 293.413 204.158 281.948 189.994 c 1
 236.568 159.631 133.97 209.535 154.746 227.673 c 1
 194.755 249.423 269.126 230.662 301.711 269.735 c 1
 294.536 339.26 137.439 460.511 62.8447 523.128 c 0
 59.627 525.83 59.2881 528.83 59.0156 533.167 c 0
 55.6914 586.159 76.5859 631.337 90.8154 646.044 c 0
 176.361 734.494 631.78 827.195 783.931 855.392 c 0
 785.338 855.653 786.651 855.775 787.875 855.785 c 0
EndSplineSet
Colour: ff0000
EndChar

StartChar: kaf+raa.fina
Encoding: 65633 -1 98
Width: 0
VWidth: 0
AnchorPoint: "cursive" 389 59 entry 0
LayerCount: 2
Fore
SplineSet
880.382 802.346 m 1
 880.382 802.346 l 1
 860.132 749.09 l 2
 857.678 742.637 849.462 739.192 846.397 738.573 c 0
 755.965 720.275 355.922 591.197 310.582 537.585 c 1
 422.816 458.899 592.203 259.813 670.47 174.288 c 0
 703.632 138.051 736.721 101.398 773.394 88.7617 c 0
 803.45 78.4053 794.455 -5.78711 773.778 -2.13184 c 0
 722.859 6.87109 692.606 43.9111 634.673 110.93 c 0
 600.116 150.906 543.026 223.824 512.431 249.131 c 1
 525.432 141.026 517.043 58.1953 484.262 24.6289 c 0
 467.308 7.26953 424.645 2.59961 394.552 0 c 0
 373.318 -1.83398 343.9 132.046 385.942 117.372 c 0
 415.814 106.945 459.021 105.446 494.295 130.719 c 1
 491.959 217.596 377.07 363.58 260.065 465.557 c 1
 260.065 465.557 256.279 513.423 261.132 533.963 c 0
 265.64 553.049 302.696 605.371 302.696 605.371 c 2
 318.541 632.591 688.579 781.963 868.965 819.064 c 0
 879.924 821.318 883.515 810.586 880.382 802.346 c 1
385.942 117.372 m 0
 430 101 396.485 19.4287 394.552 -0 c 0
 380.633 -139.85 257.428 -265.992 185.46 -270.811 c 0
 145.589 -273.479 55.0107 -218.609 36.3633 -208.463 c 0
 25.9326 -202.787 29.418 -190.534 39.0273 -191.41 c 0
 87.0459 -195.785 100.177 -206.684 152.72 -201.271 c 0
 191.771 -197.248 314.669 -131.019 353.8 -41.9424 c 1
 358.049 -18.0488 346.892 1.01172 333.029 19.1328 c 0
 328.2 25.2129 325.299 31.5244 326.947 38.5 c 2
 348.438 129.384 l 2
 348.886 131.277 358.657 133.175 362.498 130.173 c 0
 368.875 125.188 376.855 120.749 385.942 117.372 c 0
EndSplineSet
Colour: ff0000
EndChar

StartChar: kaf+raa.isol
Encoding: 65634 -1 99
Width: 0
VWidth: 0
AnchorPoint: "cursive" 248 84 entry 0
LayerCount: 2
Fore
SplineSet
221.761 155.006 m 1
 240.518 141.604 279.862 81.3857 276.32 25.8125 c 0
 269.683 -78.3369 208.482 -228.835 100.329 -255.067 c 0
 48.0303 -267.701 -41.0518 -223.966 -99.4336 -204.606 c 0
 -110.241 -201.022 -107.472 -183.143 -91.5439 -184.588 c 0
 -42.1016 -189.076 11.2285 -194.336 48.4941 -185.542 c 0
 109.659 -171.109 213.312 -90.6055 237.071 -34.3145 c 1
 248.542 10.0703 216.295 50.3857 194.794 65.584 c 0
 191.332 68.0312 193.642 76.7295 194.593 81.1562 c 2
 209.573 150.871 l 2
 211.165 158.278 219.284 158.812 221.761 155.006 c 1
757.648 815.891 m 1
 744.192 750.062 l 2
 742.646 742.497 736.781 740.914 731.07 739.498 c 0
 559.229 696.908 391.524 655.167 185.416 556.752 c 1
 280.702 460.518 410.799 313.857 385.351 140.593 c 0
 380.087 104.758 357.162 36.8018 276.32 25.8115 c 0
 249.75 22.2002 205.156 143.496 240.198 135.689 c 0
 273.971 128.165 319.97 140.008 353.227 157.23 c 1
 375.629 210.448 289.561 318.988 208.98 399.76 c 0
 205.519 403.23 197.992 405.799 192.146 401.242 c 2
 182.966 394.09 l 2
 179.021 391.015 169.946 388.45 162.959 396.243 c 0
 144.405 416.939 125.927 435.499 107.208 460.679 c 0
 104.029 464.955 103.469 477.699 104.512 482.466 c 0
 116.615 537.781 140.458 611.674 218.321 655.593 c 0
 300.39 701.884 542.799 774.188 748.881 826.155 c 0
 756.649 828.113 758.672 820.9 757.648 815.891 c 1
EndSplineSet
Colour: ff0000
EndChar

StartChar: kaf+yaa.fina
Encoding: 65635 -1 100
Width: 0
VWidth: 0
AnchorPoint: "cursive" 412 -6 entry 0
LayerCount: 2
Fore
SplineSet
391.738 30.667 m 0
 400.575 32.7393 457.343 28.0811 503.599 21.4395 c 0
 558.6 13.542 607.83 -5.375 620.034 -41.5391 c 0
 626.792 -61.5635 595.273 -144.316 568.317 -167.661 c 0
 478.164 -245.739 348.135 -304.474 238.71 -313.015 c 0
 54.7979 -326.191 -12.6572 -198.189 4.00977 -62.7119 c 0
 10.4062 -10.7188 38.5898 59.2412 59.7236 92.4863 c 0
 67.4053 104.57 85.8672 94.5771 75.4346 76.9561 c 0
 33.7646 6.56738 2.1748 -159.037 174.336 -204.787 c 0
 338.639 -248.448 563.614 -95.3623 575 -81.5664 c 1
 525.937 -49.376 450.951 -49.4531 382.091 -44.3057 c 0
 373.875 -43.6914 372.415 -38.6318 373.687 -30.5508 c 2
 381.718 20.4639 l 2
 382.509 25.4883 385.222 29.1396 391.738 30.667 c 0
976.433 815.933 m 0
 961.195 758.504 l 2
 956.713 741.61 946.743 735.612 931.744 730.943 c 0
 634.43 638.396 348.741 527.873 284.214 476.03 c 0
 282.085 474.32 284.938 471.423 286.898 470.322 c 0
 589.438 300.41 726.038 132.355 898.938 91.2354 c 0
 921.39 85.8965 934.004 82.8438 926.82 49.0742 c 0
 919.638 15.3047 908.983 -0.953125 898.803 0 c 0
 810.063 8.30664 645.392 149.734 519.201 236.115 c 1
 555.412 123.011 555.088 74.2803 503.599 21.4395 c 0
 469.807 -13.2393 426.328 -42.0381 382.091 -44.3057 c 0
 373.875 -44.7266 372.415 -38.6318 373.687 -30.5508 c 2
 381.718 20.4639 l 2
 382.509 25.4883 385.309 28.6875 391.738 30.667 c 0
 444.843 47.0186 524.064 87.7178 526.779 111.086 c 1
 493.817 212.529 348.485 312.891 253.605 381.494 c 1
 244.68 400.932 236.394 451.625 244.147 476.76 c 0
 252.156 502.722 300.786 567.526 326.596 581.2 c 0
 488.105 666.766 761.94 764.852 960.275 829.878 c 0
 973.656 834.265 978.19 822.558 976.433 815.933 c 0
EndSplineSet
Colour: ff0000
EndChar

StartChar: kaf+yaa.isol
Encoding: 65636 -1 101
Width: 0
VWidth: 0
AnchorPoint: "cursive" 413 125 entry 0
LayerCount: 2
Fore
SplineSet
388.39 145.251 m 1
 431.034 149.551 473.242 147.897 507.177 143.815 c 0
 536.678 140.267 577.334 132.512 602.264 110.762 c 1
 632.213 81.0811 593.62 -12.3789 582.413 -27.9746 c 0
 554.728 -66.5039 363.732 -213.61 183.84 -200.188 c 0
 70.792 -191.768 13.8125 -128.914 0.464844 -64.0137 c 0
 -19.3828 32.4883 19.9824 159.404 77.0918 234.13 c 0
 85.9971 245.781 102.846 233.65 92.707 218.336 c 0
 47.3271 149.795 34.7822 99.0732 35.7275 53.9111 c 0
 37.9463 -52.2012 105.372 -103.886 222.411 -105.61 c 0
 331.433 -107.217 497.565 -22.3896 564.188 42.9863 c 0
 566.343 45.1016 565.793 47.3896 563.408 49.3779 c 0
 521.814 84.0547 435.735 78.0576 368.789 83.2812 c 0
 362.618 83.7627 363.634 88.709 364.926 91.3447 c 2
 388.39 145.251 l 1
838.096 927.158 m 0
 850.714 932.147 856.666 925.415 854.88 912.002 c 2
 854.88 912.002 849.61 872.434 846.976 852.649 c 0
 845.682 842.933 838.746 840.024 832.678 838.033 c 0
 693.299 792.307 350.637 659.61 293.858 602.179 c 0
 291.299 599.821 287.523 594.688 295.254 589.024 c 0
 359.101 542.253 435.595 487.239 483.509 424.606 c 0
 527.471 367.141 549.457 299.778 541.664 218.629 c 0
 539.796 199.18 522.012 166.419 509.805 155.357 c 0
 471.307 120.471 432.003 98.625 368.789 83.2812 c 0
 362.788 81.8252 363.755 88.6533 364.927 91.3447 c 2
 388.391 145.251 l 1
 441.846 164.752 478.074 179.603 511.974 201.238 c 0
 513.797 202.402 515.138 204.848 514.691 207.127 c 0
 499.258 324.196 412.928 394.805 336.945 446.072 c 0
 334.882 447.464 331.089 448.444 329.289 445.414 c 2
 311.695 407.788 l 2
 309.951 404.851 307.553 405.194 305.035 406.868 c 0
 264.409 433.89 236.427 453.757 225.643 481.738 c 0
 206.435 531.574 243.931 625.632 270.776 654.243 c 1
 393.43 762.902 727.496 883.429 838.096 927.158 c 0
EndSplineSet
Colour: ff0000
EndChar

StartChar: kaf.fina
Encoding: 65637 -1 102
Width: 0
VWidth: 0
LayerCount: 2
Fore
SplineSet
639.377 707.211 m 0
 653.598 547.686 661.598 393.073 681.013 235.681 c 0
 695.408 119.814 749.983 96.8242 760.014 94.0098 c 0
 804.161 81.6211 778.374 -1.6416 760.338 0 c 0
 718.36 3.82129 660.47 15.9561 643.381 174.624 c 1
 622.31 124.903 574.43 60.666 525.442 35.5713 c 0
 443.464 -6.42578 361.234 -24.8096 271.058 -27.7764 c 0
 113.244 -32.9688 42.7373 7.71484 13.6406 62.292 c 0
 -31.6826 147.305 46.2949 268.107 62.4424 286.224 c 0
 72.6348 297.658 92.7324 289.562 77.8271 269.423 c 0
 50.5215 232.529 37.9678 192.009 40.4648 172.246 c 0
 50.3047 93.8457 166.569 67.335 255.049 66.5215 c 0
 292.395 66.1758 536.026 79.4639 602.012 177.532 c 0
 627.339 215.174 594.706 410.375 585.464 636.904 c 0
 585.262 641.869 585.446 645.48 587.065 648.005 c 2
 626.565 709.59 l 2
 632.464 718.784 638.954 711.926 639.377 707.211 c 0
379.13 575.767 m 1
 384.928 575.625 387.033 569.933 385.388 565.339 c 2
 363.913 512.173 l 2
 359.953 502.369 356.304 499.15 352.966 498.459 c 0
 340.21 495.818 320.412 486.548 313.558 477.473 c 0
 307.17 469.016 331.682 455.792 378.886 448.864 c 0
 426.184 441.922 410.987 404.669 408.129 396.684 c 0
 397.506 367.01 363.016 311.683 336.75 304.975 c 0
 308.091 297.655 225.071 306.018 184.526 321.024 c 0
 169.806 326.473 171.243 342.637 183.417 343.443 c 0
 257.759 348.388 325.348 344.126 349.326 356.907 c 0
 355.415 360.153 351.583 367.758 342.803 369.315 c 2
 313.752 375.928 l 2
 282.555 383.029 261.041 405.277 266.55 428.43 c 0
 284.174 502.5 316.291 559.165 379.13 575.767 c 1
EndSplineSet
Substitution2: "LamKafFina subtable" kaf.fina_LamKafFina
Substitution2: "KafKafFina subtable" kaf.fina_KafKafFina
Substitution2: "LamKafIsol subtable" kaf.fina_LamKafIsol
Colour: ff0000
EndChar

StartChar: kaf.init.alt
Encoding: 65638 -1 103
Width: 0
VWidth: 0
LayerCount: 2
Fore
SplineSet
-34.5771 389.416 m 0
 53.8027 480.299 255.888 607.248 426.968 642.303 c 0
 436.658 644.288 441.869 643.959 441.146 633.366 c 0
 439.53 609.85 432.348 581.527 426.471 562.189 c 0
 424.324 555.127 418.586 551.432 413.285 549.989 c 0
 250.657 505.732 53.2988 413.183 -23.4531 338.116 c 0
 -25.9414 335.683 -28.0166 330.963 -24.7871 328.601 c 0
 31.8154 287.189 376.161 291.536 522.886 298.407 c 1
 858.428 319.58 1023.94 355.055 1235.58 352.067 c 0
 1328.11 350.762 1387.78 290.883 1393.66 212.015 c 0
 1394.53 200.362 1389.93 190.52 1386.29 184.299 c 0
 1369.77 156.089 1342.91 114.144 1323.69 99.6436 c 0
 1318.32 95.5957 1309.54 91.9238 1302.55 91.4404 c 0
 1092.89 76.9561 741.057 39.7627 514.42 21.3818 c 0
 306.425 4.5127 -26.6572 2.11914 -177.82 4.06641 c 0
 -214.938 4.54492 -215.745 96.2393 -177.669 94.7725 c 0
 16.5889 87.2852 346.504 87.0293 548.177 108.801 c 0
 748.293 130.405 1266.19 178.772 1320.86 183.581 c 0
 1328.13 184.221 1327.48 189.956 1324.78 196.018 c 0
 1307.19 235.458 1264.14 267.558 1229.77 268.777 c 0
 1003.54 276.804 802.386 235.199 539.817 224.331 c 0
 341.583 215.279 232.808 211.647 36.998 220.215 c 0
 -6.52344 222.119 -74.748 235.88 -93.1211 270.436 c 0
 -98.0811 279.766 -96.9053 291.374 -92.6797 300.703 c 0
 -76.7246 335.935 -62.71 360.487 -34.5771 389.416 c 0
EndSplineSet
EndChar

StartChar: kaf.init
Encoding: 65639 -1 104
Width: 0
VWidth: 0
LayerCount: 2
Fore
SplineSet
514.216 766.593 m 2
 494.876 721.414 l 2
 491.921 714.513 489.909 708.862 483.272 706.993 c 0
 318.144 660.491 171.574 610.045 22.8037 527.676 c 0
 19.4131 525.798 17.3096 521.816 20.6777 516.983 c 0
 99.3848 404.024 190.098 290.235 152.129 122.172 c 0
 132.883 36.9844 38.0645 1.27148 0 0 c 0
 -22.1494 -0.739258 -48.7451 89.0566 -0.136719 89.6865 c 0
 32.502 90.1094 115.601 112.312 131.897 127.428 c 1
 151.826 182.968 73.0791 325.222 43.0469 362.518 c 0
 35.5625 371.812 31.5225 376.446 24.2119 374.189 c 2
 6.18945 368.627 l 2
 -1.26465 366.326 -8.35059 372.668 -12.1074 378.145 c 2
 -55.3555 441.213 l 2
 -61.9502 450.832 -61.1533 461.514 -60.0713 467.484 c 0
 -53.7002 502.633 -33.5146 540.583 -19.626 557.987 c 0
 42.2451 635.513 319.473 746.258 496.395 791.492 c 0
 517.609 796.916 520.717 781.78 514.216 766.593 c 2
EndSplineSet
Substitution2: "KafMeemAlefIsol subtable" kaf.init_KafMeemAlefIsol
Substitution2: "KafDalIsol subtable" kaf.init_KafDalIsol
Substitution2: "KafAlefIsol subtable" kaf.init_KafAlefIsol
Substitution2: "KafRaaIsol subtable" kaf.init_KafRaaIsol
Substitution2: "KafLamInit subtable" kaf.init_KafLamInit
Substitution2: "KafLamAlefIsol subtable" kaf.init_KafLamAlefIsol
Substitution2: "KafMeemIsol subtable" kaf.init_KafMeemIsol
Substitution2: "KafBaaInit subtable" kaf.init_KafBaaInit
Substitution2: "KafLamIsol subtable" kaf.init_KafLamIsol
Substitution2: "KafYaaIsol subtable" kaf.init_KafYaaIsol
Substitution2: "KafMeemInit subtable" kaf.init_KafMeemInit
Substitution2: "KafMeemLamInit subtable" kaf.init_KafMeemLamInit
Substitution2: "KafHehIsol subtable" kaf.init_KafHehIsol
Colour: ff0000
EndChar

StartChar: kaf.isol
Encoding: 65640 -1 105
Width: 0
VWidth: 0
LayerCount: 2
Fore
SplineSet
430.038 782.261 m 0
 436.039 765.536 460.581 731.073 483.168 712.311 c 0
 488.222 708.113 487.184 699.232 483.797 692.814 c 0
 478.188 682.181 460.866 658.796 462.011 652.931 c 0
 488.937 514.976 531.288 319.909 532.607 223.71 c 0
 533.13 185.701 535.986 120.798 503.825 49.377 c 0
 473.137 -18.7734 86.1816 0.439453 11.3408 11.9238 c 0
 6.51953 12.6641 4.64062 17.7314 4.44824 21.0312 c 0
 2.77246 49.8086 -0.192383 78.5654 2.25293 107.409 c 0
 2.52637 110.625 4.81055 113.594 7.27344 112.591 c 0
 68.1631 87.8027 430.792 80.8271 494.489 132.185 c 1
 498.214 151.352 478.752 287.854 466.279 355.083 c 0
 442.551 482.988 412.004 664.131 394.114 717.057 c 0
 391.187 725.721 389.087 733.233 396.545 747.694 c 0
 403.133 760.466 415.206 785.459 415.206 785.459 c 2
 419.151 793.108 426.269 792.762 430.038 782.261 c 0
229.224 573.139 m 1
 235.022 572.996 237.128 567.304 235.482 562.711 c 2
 214.008 509.544 l 2
 210.048 499.741 206.398 496.522 203.061 495.831 c 0
 190.305 493.189 170.506 483.919 163.652 474.845 c 0
 157.264 466.387 181.775 453.164 228.979 446.235 c 0
 276.277 439.293 261.081 402.041 258.223 394.056 c 0
 247.6 364.381 213.109 309.055 186.844 302.347 c 0
 158.185 295.027 75.165 303.389 34.6201 318.396 c 0
 19.8994 323.845 21.3369 340.008 33.5107 340.814 c 0
 107.853 345.76 175.441 341.498 199.42 354.279 c 0
 205.509 357.524 201.677 365.13 192.896 366.687 c 2
 163.845 373.3 l 2
 132.647 380.401 111.134 402.648 116.643 425.801 c 0
 134.267 499.871 166.385 556.537 229.224 573.139 c 1
EndSplineSet
Substitution2: "'fina' Terminal Forms in Arabic lookup 3 subtable" kaf.fina
Substitution2: "'medi' Medial Forms in Arabic lookup 2 subtable" kaf.medi
Substitution2: "'init' Initial Forms in Arabic lookup 1 subtable" kaf.init
Colour: ff0000
EndChar

StartChar: kaf.medi
Encoding: 65641 -1 106
Width: 0
VWidth: 0
LayerCount: 2
Fore
SplineSet
51.2334 576.588 m 0
 117.323 630.346 367.883 741.86 603.672 772.977 c 0
 618.411 774.922 629.318 763.518 624.041 753.885 c 0
 614.623 736.691 595.784 702.304 595.784 702.304 c 2
 593.092 697.388 588.723 695.944 584.604 695.383 c 0
 404.045 670.774 64.1201 550.26 23.1982 503.42 c 1
 131.409 384.927 208.566 161.867 368.848 90.9219 c 0
 407.107 73.9873 391.035 -7.54297 369.966 0 c 0
 255.152 41.1045 180.63 179.073 128.775 245.194 c 1
 129.868 99.1611 46.707 3.53418 2.0791 -14.5449 c 0
 -26.0439 -25.9375 -28.9375 73.5127 2.0791 75.6621 c 0
 21.4531 77.0049 75.3164 98.001 88.9697 122.145 c 1
 126.31 224.309 71.2842 319.957 -6.70605 425.828 c 1
 -9.75195 434.632 -13.4521 443.156 -11.7207 454.009 c 0
 0.118164 501.546 19.6514 550.9 51.2334 576.588 c 0
EndSplineSet
Substitution2: "KafAlefFina subtable" kaf.medi_KafAlefFina
Substitution2: "KafMeemAlefFina subtable" kaf.medi_KafMeemAlefFina
Substitution2: "KafBaaMedi subtable" kaf.medi_KafBaaMedi
Substitution2: "KafYaaFina subtable" kaf.medi_KafYaaFina
Substitution2: "KafRaaFina subtable" kaf.medi_KafRaaFina
Substitution2: "KafMeemFina subtable" kaf.medi_KafMeemFina
Substitution2: "KafMeemLamFina subtable" kaf.medi_KafMeemLamFina
Substitution2: "KafKafFina subtable" kaf.medi_KafKafFina
Substitution2: "KafLamMeemMedi subtable" kaf.medi_KafLamMeemMedi
Substitution2: "KafHehFina subtable" kaf.medi_KafHehFina
Substitution2: "KafLamAlefFina subtable" kaf.medi_KafLamAlefFina
Substitution2: "KafMeemMedi subtable" kaf.medi_KafMeemMedi
Substitution2: "KafLamMedi subtable" kaf.medi_KafLamMedi
Colour: ff0000
EndChar

StartChar: lam+alef.fina
Encoding: 65642 -1 107
Width: 0
VWidth: 0
AnchorPoint: "cursive" 384 152 entry 0
LayerCount: 2
Fore
SplineSet
393.935 198.047 m 0
 399.604 150.29 385.513 98.7197 372.413 153.077 c 0
 345.453 264.954 265.499 338.842 175.313 395.078 c 0
 170.302 398.203 161.037 404.846 156.205 395.016 c 0
 154.176 390.887 148.955 379.523 146.494 374.875 c 0
 138.169 359.148 127.19 364.672 109.234 377.067 c 2
 22.0615 437.245 l 2
 5.59082 448.614 1.71094 456.297 2.58789 467.888 c 1
 2.58789 467.888 0.62207 569.846 0.536133 574.098 c 0
 0.285156 586.562 19.8477 600.357 37.7568 591.371 c 0
 200.734 509.603 374.291 363.508 393.935 198.047 c 0
452.491 633.914 m 0
 481.433 679.158 l 2
 488.716 690.544 499.646 686.518 499.016 672.935 c 0
 497.957 650.114 521.895 326.319 549.913 205.037 c 0
 560.103 160.932 577.613 115.434 619.353 91.3027 c 0
 634.34 82.6377 634.981 -0.585938 619.184 0 c 0
 587.275 1.18359 530.952 35.9746 514.365 104.08 c 0
 490.206 203.274 476.969 365.021 470.94 396.537 c 0
 469.736 402.833 465.99 411.077 464.774 397.035 c 0
 449.873 224.823 391.938 8.00879 238.08 -31.126 c 0
 170.827 -48.2324 90.7812 -60.3379 79.4443 -56.084 c 0
 72.5127 -53.4834 71.5068 -43.6123 79.6338 -40.583 c 0
 148.387 -14.9561 320.338 77.5225 372.413 153.077 c 0
 381.036 165.588 386.987 183.759 393.935 198.047 c 0
 426.067 264.139 448.006 465.948 445.058 585.855 c 0
 444.652 602.356 447.176 625.604 452.491 633.914 c 0
EndSplineSet
Colour: ff0000
EndChar

StartChar: lam+alef.isol
Encoding: 65643 -1 108
Width: 0
VWidth: 0
AnchorPoint: "cursive" 277 68 entry 0
LayerCount: 2
Fore
SplineSet
263.508 84.8232 m 0
 273.451 83.9727 318.963 83.0674 334.194 82.8799 c 0
 349.425 82.6924 389.13 85.9932 400.571 90.3193 c 1
 398.098 114.193 391.534 134.62 387.032 146.766 c 0
 382.53 158.911 374.947 178.806 371.621 185.66 c 0
 311.598 309.363 175.572 493.279 118.891 546.672 c 1
 104.633 520.758 l 1
 97.9424 516.455 87.4639 516.462 80.2451 524.938 c 2
 11.0684 599.251 l 2
 1.75391 610.189 -3.19336 618.105 -0.407227 638.033 c 2
 12.5977 725.622 l 2
 15.3145 745.052 30.4385 740.434 36.9795 733.187 c 1
 99.3145 684.515 336.079 392.487 399.099 232.036 c 0
 402.743 222.756 407.352 213.554 414.496 190.621 c 0
 427.762 148.041 442.834 101.518 443.27 65.1504 c 0
 443.637 34.4873 425.059 9.35254 413.405 6.25879 c 0
 368.019 -5.78809 230.184 -1.79688 214.584 0.0546875 c 0
 206.776 0.982422 198.931 2.01562 195.762 7.55469 c 0
 185.417 25.6357 191.206 68.8076 200.762 79.9551 c 0
 203.411 83.0449 207.304 90.3975 214.812 89.2812 c 0
 228.048 87.3145 251.535 85.8477 263.508 84.8232 c 0
334.194 82.8799 m 0
 292.915 36.8438 190.065 46.6455 261.739 86.5918 c 0
 305.271 110.854 343.3 145.4 371.621 185.66 c 0
 381.734 200.036 393.912 223.379 399.061 232.149 c 0
 449.676 318.38 459.285 516.672 448.276 659.934 c 0
 446.83 678.756 445.176 698.076 451.47 709.314 c 0
 461.19 726.671 468.848 740.789 477.113 754.562 c 0
 481.266 761.482 491.88 759.326 493.925 751.396 c 0
 499.395 730.188 510.859 691.014 525.548 674.356 c 0
 534.162 664.587 531.684 653.026 525.376 646.584 c 0
 516.005 637.013 510.063 630.725 497.263 617.87 c 1
 504.65 403.629 439.114 232.148 414.458 190.476 c 0
 405.8 175.842 401.768 168.505 387.032 146.766 c 0
 372.681 125.593 352.99 103.841 334.194 82.8799 c 0
EndSplineSet
Colour: ff0000
EndChar

StartChar: lam+baa+meem.init
Encoding: 65644 -1 109
Width: 0
VWidth: 0
AnchorPoint: "cursive" 315 281 exit 0
AnchorPoint: "cursive" 174 132 entry 0
LayerCount: 2
Fore
SplineSet
119.92 123.486 m 0
 152.837 143.016 152.303 171.709 201.221 148.534 c 0
 236.323 131.905 260.281 135.798 299.521 113.299 c 0
 307.014 109.002 314.734 98.2031 311.896 88.5801 c 1
 312.703 68.4766 308.835 35.1494 303 5.62988 c 0
 301.319 -0.0664062 299.19 -8.08008 287.312 -2.40137 c 0
 228.648 25.6484 202.71 46.2129 163.381 48.1328 c 0
 109.223 50.7754 61.8613 -0.378906 0 0 c 0
 -23.4072 0.143555 -38.2314 88.1504 0.0859375 90.6016 c 0
 41.9697 93.2803 91.9346 106.883 119.92 123.486 c 0
322.719 324.922 m 0
 337.964 319.769 331.022 236.514 307.531 240.734 c 0
 269.162 247.628 261.233 317.109 226.83 320.619 c 0
 188.227 324.557 146.473 294.085 133.57 277.056 c 0
 130.788 273.925 129.746 268.611 129.781 264.702 c 0
 130.011 239.146 159.697 171.027 201.221 148.534 c 0
 273.133 109.579 146.59 75.3174 119.92 123.486 c 0
 95.2803 167.984 86.792 221.4 104.307 277.593 c 1
 126.294 340.966 189.826 396.272 249.105 398.807 c 0
 291.466 400.618 289.445 336.17 322.719 324.922 c 0
385.205 693.762 m 0
 388.701 700.75 396.457 702.164 399.243 694.604 c 0
 408.32 669.972 436.312 634.582 452.369 619.183 c 0
 457.917 613.863 456.282 604.306 451.859 597.979 c 0
 444.807 587.889 430.6 567.12 431.151 563.997 c 0
 442.523 499.612 453.616 415.571 449.709 384.202 c 0
 438.979 298.066 404.906 223.323 307.531 240.734 c 0
 276.846 246.221 285.718 337.288 322.719 324.922 c 0
 349.422 315.998 409.433 337.715 414.468 371.886 c 1
 409.222 418.645 396.066 485.345 382.469 569.484 c 0
 378.262 591.257 367.076 615.229 363.667 625.584 c 0
 360.733 634.497 360.843 643.313 363.818 650.3 c 0
 370.108 665.066 377.974 679.309 385.205 693.762 c 0
EndSplineSet
Colour: ff0000
EndChar

StartChar: lam+dal.isol
Encoding: 65645 -1 110
Width: 0
VWidth: 0
AnchorPoint: "cursive" 370 90 entry 0
LayerCount: 2
Fore
SplineSet
389.493 774.641 m 0
 394.322 785.266 403.035 782.125 405.725 773.725 c 0
 415.012 744.721 431.287 725.685 448.897 709.026 c 0
 455.748 702.546 459.521 696.015 453.409 686.498 c 0
 448.467 678.803 441.598 665.783 434.041 653.155 c 1
 442.948 600.007 482.015 419.159 499.885 295.124 c 0
 509.377 229.234 503.602 129.182 502.416 128.843 c 1
 500.067 96.8125 492.422 65.0088 478.541 36.1553 c 0
 454.016 -14.8262 390.521 -1.07715 369.916 19.999 c 0
 337.572 53.0811 321.602 184.631 393.291 126.53 c 0
 418.965 105.723 454.142 113.127 463.072 114.749 c 1
 480.725 120.315 467.574 210.537 465.853 223.843 c 0
 446.116 360.836 402.028 560.349 384.228 654.718 c 0
 379.49 679.836 364.274 713.691 370.769 731.35 c 0
 374.696 742.027 380.14 754.058 389.493 774.641 c 0
393.291 126.53 m 1
 432.106 100.082 391.547 0.0224609 369.916 19.999 c 0
 337.925 49.543 307.668 117.399 289.072 174.78 c 1
 276.376 135.172 254.076 95.7539 236.916 83.2803 c 0
 195.734 53.3447 95.7256 28.292 44.541 39.6553 c 0
 -5.69238 50.8066 -9.0293 112.315 16.916 182.937 c 0
 20.6748 193.167 28.7119 195.101 34.416 184.499 c 0
 58.1484 140.989 102.728 137.123 145.791 143.249 c 0
 232.856 155.633 271.569 194.898 274.291 229.687 c 1
 274.291 229.687 245.166 360.457 230.603 425.843 c 0
 228.975 433.155 229.34 451.169 232.228 456.28 c 0
 238.979 468.228 252.478 492.124 252.478 492.124 c 2
 255.688 497.803 260.418 494.913 262.603 485.499 c 0
 293.522 378.805 318.963 179.597 393.291 126.53 c 1
EndSplineSet
Colour: ff0000
EndChar

StartChar: lam+haa+haa.init
Encoding: 65646 -1 111
Width: 0
VWidth: 0
AnchorPoint: "cursive" 183 435 exit 0
AnchorPoint: "cursive" 70 231 entry 0
LayerCount: 2
Fore
SplineSet
159.403 464.607 m 0
 191.061 470.933 277.023 457.85 329.783 436.194 c 0
 409.648 403.415 445.42 386.455 601.424 359.103 c 0
 608.602 357.719 612.505 353.233 608.801 343.571 c 0
 601.348 324.134 587.488 304.098 575.752 286.635 c 0
 571.986 281.031 569.138 281.634 566.294 282.28 c 0
 500.729 297.191 458.072 305.848 388.166 301.937 c 0
 325.685 298.441 249.214 280.093 159.179 244.661 c 0
 89.6113 217.284 52.0723 198.932 18.0488 186.51 c 0
 13.3027 184.777 5.29785 187.054 9.80762 196.846 c 0
 16.3428 211.033 29.7021 235.576 41.7217 249.238 c 1
 152.715 319.524 247.272 332.978 311.329 357.162 c 1
 243.465 391.468 158.29 394.601 116.995 393.65 c 0
 111.744 393.529 108.02 395.144 111.188 404.187 c 0
 116.655 419.779 129.985 443.715 143.04 456.364 c 0
 147.949 461.122 152.653 463.258 159.403 464.607 c 0
40.4541 247.465 m 0
 49.792 258.788 115.505 256.758 159.179 244.661 c 0
 227.337 225.782 289.215 202.416 358.866 186.471 c 0
 411.815 174.349 474.193 166.507 534.262 166.854 c 0
 545.114 166.917 546.681 161.831 541.631 151.442 c 0
 529.762 127.011 519.992 103.351 501.793 86.5674 c 0
 498.691 83.7051 492.139 83.2236 488.521 83.8467 c 0
 412.518 96.9395 340.115 102.365 266.322 88.9639 c 0
 211.602 79.0254 45.9521 10.8252 0 0 c 0
 -24.251 -5.71289 -40.1738 84.626 -0.373047 90.9365 c 0
 77.0566 103.213 145.168 117.358 218.445 140.801 c 1
 158.737 167.652 64.3994 188.832 18.5557 185.75 c 0
 13.4863 185.411 5.29785 187.054 9.80762 196.846 c 0
 16.3428 211.033 30.1904 235.018 40.4541 247.465 c 0
315.921 764.154 m 0
 318.996 768.906 326.531 766.654 327.885 761.306 c 0
 335.594 730.845 357.912 696.64 371.265 681.984 c 0
 376.982 675.71 376.352 667.716 368.916 658.785 c 0
 360.966 649.237 344.503 630.796 344.901 626.3 c 0
 347.671 595.041 350.679 517.269 345.526 490.968 c 0
 342.011 473.025 340.249 453.062 329.783 436.194 c 0
 305.938 397.764 167.354 397.458 116.995 393.65 c 0
 111.758 393.254 108.02 395.144 111.188 404.187 c 0
 116.655 419.779 129.985 443.715 143.04 456.364 c 0
 147.949 461.122 152.668 463.18 159.403 464.607 c 0
 217.354 476.891 254.567 463.064 308.67 477.146 c 1
 309.527 505.975 302.705 582.561 296.818 645.626 c 0
 296.166 652.612 289.119 677.574 286.34 691.037 c 0
 285.548 694.877 280.975 706.53 285.78 716.974 c 0
 292.412 731.386 307.714 751.472 315.921 764.154 c 0
EndSplineSet
EndChar

StartChar: lam+haa+meem.init
Encoding: 65647 -1 112
Width: 0
VWidth: 0
AnchorPoint: "cursive" 148 202 exit 0
AnchorPoint: "cursive" 154 361 entry 0
LayerCount: 2
Fore
SplineSet
226.779 787.734 m 0
 229.885 794.014 238.438 794.244 240.95 787.365 c 0
 247.281 770.03 258.677 737.116 288.761 708.784 c 0
 293.5 704.322 293.218 696.327 289.012 690.601 c 0
 280.39 678.859 271.541 666.783 264.046 656.161 c 0
 261.838 653.031 263.392 645.371 264.775 637.677 c 0
 270.673 604.896 288.867 522.17 291.844 466.844 c 0
 293.844 429.674 290.354 405.708 271.125 386.312 c 0
 251.443 366.461 156.476 326.158 92.6885 311.75 c 0
 86.207 310.286 86.1211 313.595 86.8135 319.312 c 0
 103.698 421.281 193.732 384.815 265.219 412.094 c 1
 256.805 507.745 234.825 577.883 220.962 661.88 c 0
 218.789 675.043 210.156 707.391 205.857 721.236 c 0
 204.215 726.531 202.396 733.879 204.647 738.478 c 0
 212.145 753.789 221.002 776.049 226.779 787.734 c 0
130.861 218.847 m 0
 140.02 226.221 166.315 208.171 179.5 196.938 c 0
 239.735 145.618 294.526 135.062 253 44.7188 c 0
 247.734 33.2617 234.183 32.9785 225.906 39.6562 c 0
 185.484 72.2705 142.422 94.8955 93.3135 116.031 c 1
 65.0518 71.4365 42.0557 19.8125 2 0 c 0
 -11.3428 -6.59961 -44.8076 81.8652 2.125 90.0938 c 0
 85.6699 104.741 97.3867 173.548 108.563 191.094 c 0
 116.141 202.99 122.188 211.863 130.861 218.847 c 0
86.8135 319.312 m 0
 89.4678 339.257 97.5586 357.369 109.471 370.514 c 0
 135.315 399.034 214.931 409.368 271.125 386.312 c 0
 377.991 342.466 449.139 304.29 582.562 298.031 c 0
 587.85 297.614 587.134 293.624 586.156 289.062 c 0
 581.148 265.671 570.8 241.721 558.656 224.406 c 0
 557.448 222.685 552.587 221.517 550.438 222 c 0
 459.114 242.552 343.723 256.931 179.5 196.938 c 0
 155.309 188.1 108.457 197.461 131.606 218.656 c 0
 158.641 243.409 254.907 264.344 304.875 275.75 c 0
 311.996 277.376 311.46 281.358 304.875 284.344 c 0
 233.298 316.088 170.034 333.491 92.6885 311.75 c 0
 86.2314 310.184 86.1211 313.595 86.8135 319.312 c 0
EndSplineSet
Colour: ff0000
EndChar

StartChar: lam+haa.init
Encoding: 65648 -1 113
Width: 0
VWidth: 0
AnchorPoint: "cursive" 85 247 entry 0
LayerCount: 2
Fore
SplineSet
36.0674 279.432 m 0
 84.0674 297.862 172.787 284.728 231.559 265.463 c 0
 285.09 247.916 328.18 235.032 403.93 219.627 c 0
 446.499 210.97 491.828 205.368 560.678 200.746 c 0
 566.718 200.34 573.45 192.959 571.368 180.603 c 0
 567.349 156.747 556.449 133.026 550.75 121.145 c 0
 543.064 105.12 533.244 108.736 527.876 109.852 c 0
 469.04 122.076 388.8 127.637 296.044 106.777 c 0
 203.289 85.918 125.344 30.4473 0 0 c 1
 -16.9512 -1.74023 -43.7627 81.1992 0.491211 90.5645 c 1
 79.0547 105.327 169.613 123.675 249.2 163.208 c 1
 218.426 177.537 138.336 195.483 104.729 198.546 c 0
 71.1533 201.606 31.084 204.837 -1.34961 202.346 c 0
 -4.18945 202.128 -6.44238 206.623 -5.94043 208.283 c 0
 2.11816 234.923 11.1768 255.634 16.9844 265.196 c 0
 21.1035 271.979 28.0439 276.351 36.0674 279.432 c 0
184.357 610.42 m 0
 181.489 631.234 166.077 652.098 176.522 671.941 c 0
 184.806 687.676 196.956 705.255 201.896 712.974 c 0
 206.683 720.452 214.774 721.649 217.259 710.344 c 0
 222.032 688.625 245.654 652.262 261.785 635.633 c 0
 266.629 630.639 267.764 622.685 262.396 615.376 c 0
 255.484 605.967 251.376 600.448 241.122 587.108 c 0
 237.57 582.488 237.54 575.838 238.331 565.515 c 0
 245.947 466.299 276.577 319.642 231.559 269.463 c 0
 178.62 210.456 64.2041 205.864 0.00390625 202.452 c 0
 -3.94238 202.242 -6.84766 205.217 -5.5625 209.539 c 0
 1.99609 234.956 11.2686 255.785 16.9844 265.196 c 0
 21.1035 271.979 28.0322 276.381 36.0674 279.432 c 0
 80.416 296.267 141.614 293.286 188.669 300.448 c 0
 200.455 302.242 218.055 318.719 217.548 334.073 c 1
 212.094 383.016 194.451 536.797 184.357 610.42 c 0
EndSplineSet
Colour: ff0000
EndChar

StartChar: lam+heh.fina
Encoding: 65649 -1 114
Width: 0
VWidth: 0
AnchorPoint: "cursive" 364 -37 entry 0
LayerCount: 2
Fore
SplineSet
370.215 16.7012 m 0
 401.545 14.5107 397.527 88.1348 390.084 133.503 c 0
 364.107 291.861 341.934 425.132 318.676 592.746 c 0
 316.795 606.299 313.913 615.818 319.213 635.976 c 1
 341.23 688.604 l 1
 353.385 710.321 360.395 701.019 362.979 693.436 c 1
 379.459 560.163 423.896 235.863 448.678 170.02 c 0
 463.304 131.156 498.234 98.3916 536.69 90.8096 c 0
 575.602 83.1387 563.253 -0.162109 536.912 -0 c 0
 495.236 0.256836 438.355 51.9551 418.146 86.6006 c 1
 421.995 6.09863 411.143 -94.875 349.54 -96.3398 c 0
 324.344 -96.9395 320.176 20.2012 370.215 16.7012 c 0
161.474 95.1953 m 0
 153.288 79.6455 146.349 74.3164 136.521 71.6748 c 0
 92.7773 63.2217 29.0752 67.3701 17.25 77.6084 c 0
 9.56445 84.2627 -5.17188 101.201 1.24805 120.017 c 0
 6.58789 135.664 23.1924 177.675 26.5264 186.748 c 0
 32.6016 203.283 43.6455 214.911 43.6455 214.911 c 1
 77.1787 248.354 118.812 273.666 161.459 293.945 c 1
 155.579 332.794 l 2
 154.921 338.454 153.65 351.176 156.208 360.6 c 1
 175.671 405.71 l 1
 188.727 419.532 188.469 401.404 192.161 392.756 c 1
 199.034 345.312 220.477 234.646 237.733 159.953 c 0
 251.244 101.476 290.106 18.8535 370.215 16.7012 c 0
 412.677 15.5605 388.988 -95.209 349.54 -96.3398 c 0
 266.769 -98.7129 208.871 37.1064 183.597 160.583 c 1
 178.937 137.895 172.237 115.729 161.474 95.1953 c 0
56.5273 166.586 m 1
 83.9561 144.901 137.839 154.716 160.647 163.549 c 0
 188.089 174.176 173.587 220.926 168.488 243.291 c 1
 116.949 228.874 77.9463 205.028 56.5273 166.586 c 1
EndSplineSet
Colour: ff0000
EndChar

StartChar: lam+heh.init
Encoding: 65650 -1 115
Width: 0
VWidth: 0
AnchorPoint: "cursive" 240 266 entry 0
LayerCount: 2
Fore
SplineSet
194.725 344.821 m 0
 207.366 353.017 235.427 352.969 248.56 299.319 c 0
 250.139 293.72 257.203 285.208 262.797 282.655 c 0
 311.736 260.32 368.296 226.28 389.391 202.176 c 0
 395.963 194.666 399.979 182.698 401.103 172.932 c 0
 406.406 126.838 392.897 74.4727 364.278 46.3223 c 0
 357.932 40.082 347.062 35.6904 338.311 34.2148 c 0
 291.563 26.333 200.15 24.2471 111.894 50.9482 c 1
 79.875 29.8369 34.0322 9.50391 0 0 c 0
 -24.8896 -6.9502 -30.4512 87.1621 0.536133 89.9512 c 0
 8.6377 90.6797 39.626 95.2656 54.8486 103.335 c 1
 50.6045 131.084 53.0322 155.5 58.6904 178.323 c 0
 75.9521 247.939 147.912 314.474 194.725 344.821 c 0
165.451 260.319 m 0
 147.825 260.468 102.469 226.924 77.1221 176.841 c 0
 75.749 174.125 75.8516 171.686 76.2725 169.895 c 0
 80.9668 149.964 98.0576 137.311 139.506 128.458 c 1
 158.479 136.535 185.935 150.641 195.878 161.558 c 1
 212.058 193.908 195.803 260.065 165.451 260.319 c 0
238.966 211.336 m 1
 233.985 177.098 222.322 148.725 195.362 117.906 c 1
 223.543 111.367 300.775 106.865 337.38 108.664 c 0
 356.007 109.579 358.692 126.007 353.621 132.55 c 0
 330.164 162.812 277.353 192.066 238.966 211.336 c 1
171.815 647.701 m 0
 175.881 655.562 192.127 683.6 199.358 694.191 c 0
 204.141 701.194 212.266 696.418 213.097 690.593 c 0
 216.227 668.649 230.269 633.735 250.614 609.36 c 0
 255.321 603.721 256.113 598.832 249.687 590.227 c 0
 240.763 578.275 219.734 562.127 218.294 554.937 c 1
 225.419 467.254 232.832 355.088 248.56 299.319 c 0
 250.139 293.72 257.141 285.068 262.797 282.655 c 0
 331.622 253.291 275.625 173.246 229.693 219.427 c 0
 208.125 241.113 197.531 303.178 194.725 344.821 c 0
 193.288 366.142 185.32 459.502 178.349 571.908 c 0
 177.83 580.318 173.288 605.44 171.68 620.521 c 0
 170.302 633.438 169.42 643.07 171.815 647.701 c 0
EndSplineSet
Colour: ff0000
EndChar

StartChar: lam+heh.isol
Encoding: 65651 -1 116
Width: 0
VWidth: 0
AnchorPoint: "cursive" 344 59 entry 0
LayerCount: 2
Fore
SplineSet
303.291 779.594 m 0
 306.576 790.604 319.521 790.452 324.616 777.622 c 0
 334.512 752.708 350.748 727.154 370.381 711.1 c 0
 377.682 705.13 379.983 698.029 374.109 688.363 c 0
 369.046 680.029 364.959 672.639 350.613 651.768 c 1
 359.521 598.62 398.575 417.751 416.445 293.716 c 0
 425.938 227.826 420.162 127.773 418.977 127.435 c 1
 418.977 127.435 416.852 79.6787 395.695 35.1533 c 0
 385.021 12.6875 367.791 3.2793 349.627 1.32031 c 1
 292.859 -7.99902 306.891 116.864 348.203 113.53 c 0
 367.537 110.972 382.271 113.514 382.633 114.216 c 0
 390.469 129.417 391.093 162.204 382.414 222.435 c 0
 362.678 359.428 319.188 559.322 300.789 653.303 c 0
 295.426 680.7 292.554 693.836 292.548 693.868 c 0
 290.296 705.349 283.137 718.406 287.914 732.271 c 0
 293.224 747.682 297.685 760.803 303.291 779.594 c 0
348.203 113.53 m 0
 385.42 109.827 372.33 3.61035 349.627 1.32031 c 0
 326.29 -1.0332 301.446 8.57227 286.945 18.7471 c 0
 247.794 46.2197 208.549 136.771 194.89 205.754 c 1
 185.606 163.188 176.551 147.082 171.884 138.403 c 0
 163.489 122.459 156.366 116.988 146.289 114.278 c 0
 101.434 105.61 29.9766 109.874 17.8516 120.372 c 0
 9.97168 127.195 -5.1377 144.548 1.44531 163.841 c 0
 6.91992 179.886 23.9336 222.975 27.3516 232.278 c 0
 33.5811 249.233 44.9141 261.153 44.9141 261.153 c 1
 79.3008 295.446 117.996 321.391 161.727 342.185 c 1
 155.695 382.028 l 2
 155.021 387.832 153.698 400.864 156.32 410.528 c 1
 176.289 456.81 l 1
 189.677 470.983 189.409 452.365 193.195 443.497 c 1
 193.195 443.497 213.687 308.229 253.164 203.435 c 0
 265.157 171.6 282.72 139.827 310.289 125.278 c 0
 323.17 118.481 336.483 114.696 348.203 113.53 c 0
172.195 290.247 m 1
 144.465 283.791 81.7988 257.434 58.1016 211.591 c 1
 86.2275 189.355 147.971 198.621 171.039 208.466 c 0
 194.664 218.549 177.989 266.949 172.195 290.247 c 1
EndSplineSet
Colour: ff0000
EndChar

StartChar: lam+kaf.fina
Encoding: 65652 -1 117
Width: 0
VWidth: 0
AnchorPoint: "cursive" 751 11 entry 0
LayerCount: 2
Fore
SplineSet
619.598 671.723 m 2
 621.801 678.471 635.833 682.998 637.569 663.197 c 0
 640.455 630.318 668.049 347.991 688.408 232.171 c 0
 694.988 194.731 703.699 105.575 747.291 64.7051 c 0
 780.095 33.9492 788.007 -62.8242 768.291 -60.4561 c 0
 711.878 -53.6777 670.835 54.167 653.856 136.705 c 1
 631.651 98.8115 581.999 56.3633 555.165 41.3047 c 0
 473.756 -4.38184 361.012 -40.9062 254.829 -42.3398 c 0
 164.963 -43.5527 79.2363 -20.3232 20.8125 59.8379 c 1
 -4.93555 104.761 -20.3086 172.904 65.7305 297.077 c 0
 80.2793 318.074 92.0664 300.695 82.7549 287.935 c 0
 28.6533 213.795 46.3477 162.579 80.7949 127.062 c 0
 107.383 99.6504 158.752 50.7275 293.68 59.0283 c 0
 402.491 65.7227 527.518 94.8193 596.431 143.775 c 0
 615.771 157.515 637.012 192.3 634.512 219.702 c 0
 632.507 241.448 613.352 380.567 595.628 578.625 c 0
 594.854 587.262 594.807 595.791 597.656 604.519 c 2
 619.598 671.723 l 2
387.538 555.009 m 1
 393.336 554.867 395.44 549.174 393.795 544.581 c 2
 372.32 491.414 l 2
 368.36 481.611 364.712 478.393 361.374 477.701 c 0
 348.618 475.06 328.819 465.79 321.966 456.715 c 0
 315.578 448.257 340.09 435.034 387.294 428.105 c 0
 434.591 421.163 419.395 383.911 416.537 375.926 c 0
 405.914 346.251 371.423 290.925 345.158 284.217 c 0
 316.499 276.897 233.479 285.259 192.935 300.266 c 0
 178.214 305.715 179.651 321.878 191.825 322.685 c 0
 266.167 327.63 333.756 323.368 357.734 336.149 c 0
 363.822 339.395 359.991 347 351.211 348.557 c 2
 322.16 355.17 l 2
 290.962 362.271 269.449 384.519 274.957 407.672 c 0
 292.582 481.741 324.699 538.407 387.538 555.009 c 1
768.291 -60.4561 m 0
 718.984 -53.7012 701.857 112.244 747.291 64.7051 c 0
 769.819 41.1318 803.599 30.8682 838.78 51.0742 c 1
 820.858 221.174 781.981 429.007 767.086 616.75 c 0
 766.444 624.839 765.416 630.53 768.933 637.627 c 0
 776.811 653.523 788.418 667.479 794.079 677.015 c 0
 797.169 682.219 805.058 683.882 808.076 669.908 c 1
 812.884 634.814 831.996 450.259 845.743 364.408 c 0
 865.776 239.31 866.537 153.819 929.978 90.2598 c 0
 956.236 63.9512 948.872 -12.6113 930.111 0 c 0
 901.229 19.417 877.226 51.002 861.854 84.0322 c 1
 858.735 23.6289 844.072 -70.8369 768.291 -60.4561 c 0
EndSplineSet
Colour: ff0000
EndChar

StartChar: lam+kaf.isol
Encoding: 65653 -1 118
Width: 0
VWidth: 0
AnchorPoint: "cursive" 775 60 entry 0
LayerCount: 2
Fore
SplineSet
616.242 726.011 m 2
 619.715 732.284 630.302 736.292 631.688 723.83 c 0
 635.374 690.696 663.976 418.59 685.563 301.77 c 1
 695.038 258.587 715.212 144.7 772.657 118.184 c 0
 790.11 110.127 807.994 2.96875 776.144 4.29395 c 0
 711.271 6.99414 668.276 127.333 656.061 212.926 c 0
 653.745 229.148 649.87 217.191 645.898 206.766 c 0
 634.846 174.322 616.744 119.783 578.752 95.5137 c 0
 460.185 19.7754 244.612 -16.6836 134.061 8.09961 c 0
 68.0713 22.8936 35.7783 55.4277 18.251 82.0049 c 0
 -10.543 125.669 -2.12793 229.704 40.2725 311.298 c 0
 50.1475 330.3 67.5371 313.99 61.46 302.14 c 0
 31.3076 243.343 23.3975 185.438 62.4873 154.3 c 0
 100.434 124.073 135.593 108.57 251.044 106.554 c 0
 361.997 104.619 530.825 140.929 595.496 195.087 c 0
 617.393 213.426 636.852 248.523 631.341 288.26 c 0
 628.311 310.111 608.389 450.388 587.114 650.116 c 0
 586.186 658.828 584.232 668.19 588.725 676.304 c 2
 616.242 726.011 l 2
351.368 609.912 m 1
 357.166 609.771 359.271 604.077 357.625 599.484 c 2
 336.151 546.317 l 2
 332.191 536.514 328.542 533.295 325.204 532.604 c 0
 312.448 529.963 292.65 520.693 285.796 511.618 c 0
 279.408 503.16 303.92 489.938 351.124 483.009 c 0
 398.421 476.066 383.226 438.814 380.367 430.828 c 0
 369.744 401.154 335.253 345.828 308.988 339.12 c 0
 280.329 331.8 197.31 340.162 156.766 355.169 c 0
 142.044 360.618 143.482 376.781 155.655 377.588 c 0
 229.997 382.533 297.586 378.271 321.565 391.052 c 0
 327.653 394.298 323.821 401.903 315.041 403.46 c 2
 285.99 410.073 l 2
 254.792 417.174 233.279 439.422 238.787 462.574 c 0
 256.412 536.645 288.529 593.311 351.368 609.912 c 1
776.144 4.29395 m 0
 726.581 9.02344 738.965 134.398 772.657 118.184 c 0
 789.235 110.205 809.084 109.515 832.697 119.428 c 1
 837.648 182.281 783.466 478.698 763.551 606.755 c 1
 749.847 651.998 l 2
 747.063 661.186 744.736 672.9 748.193 679.371 c 2
 748.193 679.371 764.273 709.874 772.584 724.946 c 0
 777.315 733.528 784.879 728.605 786.434 723.839 c 0
 796.611 692.632 820.779 664.608 837.504 647.53 c 0
 842.317 642.615 840.722 635.879 838.728 632.77 c 2
 821.041 605.188 l 2
 817.881 600.26 813.233 595.473 815.562 581.438 c 0
 835.189 463.148 859.662 354.591 869.448 232.246 c 0
 873.886 176.772 872.717 73.6201 847.742 35.6367 c 0
 832.446 12.375 796.575 2.34473 776.144 4.29395 c 0
EndSplineSet
Colour: ff0000
EndChar

StartChar: lam+lam+alef.isol
Encoding: 65654 -1 119
Width: 0
VWidth: 0
AnchorPoint: "cursive" 402 188 exit 0
AnchorPoint: "cursive" 614 60 entry 0
LayerCount: 2
Fore
SplineSet
405.912 220.28 m 0
 414.359 194.961 394.455 142.461 384.381 175.311 c 0
 354.138 274.251 282.018 348.651 191.833 404.888 c 0
 186.821 408.013 177.571 414.656 172.739 404.825 c 0
 170.71 400.697 165.481 389.317 163.021 384.669 c 0
 154.695 368.942 133.242 369.916 115.286 382.312 c 1
 32.3408 428.863 l 1
 15.8701 440.233 11.9951 447.929 12.8721 459.52 c 1
 12.8721 459.52 9.19824 549.638 9.1123 553.89 c 0
 8.86035 566.354 29.2119 581.589 46.3311 571.171 c 1
 247.719 484.285 366.298 339.023 405.912 220.28 c 0
547.508 194.819 m 1
 562.575 157.821 577.049 127.852 617.456 112.315 c 0
 652.386 98.8857 634.833 3.01758 617.534 2.06543 c 0
 574.357 -0.310547 520.433 35.6875 495.727 146.226 c 0
 482.583 205.03 472.546 276.213 460.227 347.256 c 1
 438.988 186.64 377.986 5.22363 239.039 -30.1191 c 0
 171.786 -47.2246 87.6846 -48.4209 76.1406 -44.9062 c 0
 65.1738 -41.5664 67.9668 -31.7139 76.3281 -29.4062 c 0
 251.749 19.0029 332.765 99.4297 384.381 175.311 c 0
 396.49 193.112 402.561 209.896 405.912 220.28 c 0
 445.547 343.073 436.738 442.543 426.789 573.194 c 0
 425.861 585.371 424.206 597.586 431.07 609.663 c 2
 455.539 652.694 l 2
 464.198 667.93 472.967 662.028 474.227 647.569 c 0
 484.538 529.122 504.762 328.091 547.508 194.819 c 1
604.489 604.812 m 0
 611.961 620.897 619.944 638.608 627.865 653.034 c 0
 631.964 660.498 640.898 659.362 643.297 648.868 c 0
 647.354 631.11 662.303 597.479 686.358 574.447 c 0
 689.805 571.147 691.385 560.539 685.918 553.386 c 0
 681.326 547.377 667.514 529.354 667.514 529.354 c 2
 664.155 523.672 660.456 518.142 661.952 510.354 c 0
 680.646 373.431 710.263 204.471 696.695 117.506 c 0
 690.293 76.4736 661.305 2.88672 617.534 2.06543 c 0
 571.125 1.19531 562.013 129.133 617.456 112.315 c 0
 636.898 106.418 654.657 108.579 664.945 116.882 c 1
 674.004 193.537 635.494 398.186 612.09 554.647 c 0
 611.163 560.836 600.215 595.611 604.489 604.812 c 0
EndSplineSet
Colour: ff0000
EndChar

StartChar: lam+lam+haa.init
Encoding: 65655 -1 120
Width: 0
VWidth: 0
AnchorPoint: "cursive" 427 328 exit 0
AnchorPoint: "cursive" 67 243 entry 0
LayerCount: 2
Fore
SplineSet
55.3066 286.951 m 0
 65.292 289.09 139.842 266.275 173.444 257.403 c 0
 316.338 219.674 432.392 210.189 560.266 207.646 c 0
 564.884 207.555 568.047 206.127 566.388 200.92 c 2
 554.53 144.605 l 2
 553.281 138.675 550.396 133.566 543.328 133.705 c 0
 410.736 136.335 344.554 126.828 284.967 110.839 c 0
 206.556 89.7988 37.2471 -0.236328 0 0 c 0
 -17.4102 0.110352 -30.2275 87.1758 -0.0800781 90.6309 c 0
 75.4707 99.291 182.892 141.383 232.707 155.172 c 1
 170.725 177.652 98.416 194.237 18.4473 197.418 c 0
 13.542 197.61 10.4023 199.221 13.5723 204.396 c 2
 47.1445 281.805 l 2
 48.6602 285.299 52.4268 286.335 55.3066 286.951 c 0
441.006 375.854 m 0
 468.778 387.11 430.31 278.438 414.102 276.324 c 0
 334.263 265.914 309.866 366.161 293.927 455.785 c 1
 291.598 381.984 258.186 311.401 173.444 257.403 c 0
 127.967 228.425 68.4355 200.696 18.4473 197.418 c 0
 13.5518 197.097 10.4023 199.221 13.5723 204.396 c 2
 47.1455 281.805 l 2
 48.6602 285.299 52.3496 286.854 55.3066 286.951 c 0
 114.973 288.903 157.719 307.196 189.156 325.426 c 0
 224.82 346.107 244.383 371.159 258.624 403.357 c 0
 277.493 446.016 253.859 592.162 248.686 687.444 c 0
 248.513 690.628 250.062 696.02 252.239 698.71 c 2
 286.51 741.053 l 2
 288.684 743.739 295.758 742.769 296.448 735.095 c 0
 306.964 617.986 319.604 495.947 345.604 436.277 c 0
 364.671 392.516 407.471 362.264 441.006 375.854 c 0
407.112 667.252 m 0
 405.661 673.119 407.006 681.141 409.24 687.134 c 2
 425.341 730.3 l 2
 429.083 740.332 439.995 737.394 443.438 729.422 c 0
 453.941 705.111 467.203 677.416 490.792 654.863 c 0
 497.974 647.997 494.97 639.136 490.334 632.531 c 0
 484.551 624.292 472.024 607.34 468.044 600.345 c 1
 479.263 535.93 494.908 449.448 491.726 417.994 c 0
 486.469 365.54 469.747 280.327 410.885 276.031 c 0
 387.755 274.344 426.572 370.313 441.006 375.854 c 0
 449.072 378.952 453.367 389.897 452.359 399.273 c 0
 447.327 446.054 433.222 521.142 419.624 605.281 c 0
 415.68 629.686 412.761 644.428 407.112 667.252 c 0
EndSplineSet
Colour: ff0000
EndChar

StartChar: lam+lam.init
Encoding: 65656 -1 121
Width: 0
VWidth: 0
AnchorPoint: "cursive" 217 39 entry 0
LayerCount: 2
Fore
SplineSet
211.297 96.6504 m 0
 258.514 86.4209 253.208 -10.75 214.366 -17.9922 c 0
 172.531 -25.792 121.422 -0.948242 85.6885 129.257 c 1
 74.8496 89.0957 43.1035 9.89355 0.0947266 -0.615234 c 0
 -17.0039 -4.79297 -30.8916 74.5244 0.125 90.3477 c 0
 41.1396 111.272 65.0566 128.675 70.3369 184.603 c 1
 33.7295 571.502 l 2
 32.5791 583.66 31.1475 595.877 38.0117 607.954 c 2
 62.4727 650.992 l 2
 71.1318 666.227 79.8906 660.339 81.1504 645.88 c 0
 91.4619 527.433 105.603 290.361 137.473 177.855 c 0
 151.21 129.359 183.215 102.735 211.297 96.6504 c 0
206.908 609.774 m 0
 212.772 625.304 221.271 639.046 225.898 652.722 c 0
 230.394 666.004 242.632 663.837 247.083 651.478 c 0
 259.772 616.244 268.589 599.21 286.509 579.522 c 0
 292.127 573.35 294.49 565.519 287.57 556.363 c 0
 282.825 550.086 275.493 539.782 268.667 532.149 c 0
 264.04 526.975 260.607 523.213 262.104 515.425 c 1
 270.617 376.805 300.233 187.496 286.667 100.531 c 0
 280.265 59.499 266.592 -9.65527 214.366 -17.9922 c 0
 187.643 -22.2588 176.045 106.304 211.297 96.6504 c 0
 227.221 92.291 239.697 94.8057 248.129 101.609 c 1
 254.143 172.176 223.277 413.617 209.67 570.033 c 0
 209.127 576.269 202.172 597.233 206.908 609.774 c 0
EndSplineSet
Colour: ff0000
EndChar

StartChar: lam+meem+haa.init
Encoding: 65657 -1 122
Width: 0
VWidth: 0
AnchorPoint: "cursive" 442 367 exit 0
AnchorPoint: "cursive" 56 246 entry 0
LayerCount: 2
Fore
SplineSet
54.0576 276.066 m 0
 67.7754 280.55 100.371 272.739 121.062 266.334 c 0
 211.872 238.228 260.014 229.793 322.092 220.987 c 0
 440.285 204.222 500.008 209.137 560.031 217.746 c 0
 569.607 219.119 570.333 218.635 569.696 208.467 c 0
 567.747 177.303 556.091 151.684 545.012 122.978 c 0
 542.949 117.632 541.429 115.563 535.079 116.138 c 0
 412.68 127.198 337.534 104.668 251.921 78.6797 c 0
 168.07 53.2266 66.8057 11.3867 0 0 c 0
 -25.1172 -4.28125 -40.7197 87.0127 -0.263672 90.665 c 0
 81.4482 98.042 180.921 119.613 246.329 141.699 c 1
 235.442 154.609 98.0049 183.526 14.3242 192.407 c 0
 5.25684 193.369 4.48633 196.927 7.93066 205.611 c 0
 17.1748 228.921 31.834 248.051 46.3545 269.346 c 0
 48.4775 272.458 50.3408 274.852 54.0576 276.066 c 0
348.948 411.713 m 0
 366.275 415.814 391.772 421.365 416.37 418.612 c 0
 448.296 415.04 470.36 406.465 503.376 379.683 c 0
 507.43 376.394 508.764 372.337 508.224 366.924 c 0
 505.252 337.17 499.853 307.213 490.468 279.517 c 0
 489.418 276.418 487.225 273.155 483.539 275.918 c 0
 437.495 310.438 389.725 336.834 340.518 339.34 c 0
 277.444 342.55 200.668 309.27 121.062 266.334 c 0
 82.9785 245.793 25.6777 194.171 15.3271 192.908 c 0
 6.47363 191.828 4.48633 196.927 7.93066 205.611 c 0
 17.1748 228.921 31.834 248.051 46.3545 269.346 c 0
 48.4775 272.458 50.6738 274.057 54.0576 276.066 c 0
 150.673 333.459 262.408 391.225 348.948 411.713 c 0
324.874 763.173 m 0
 328.177 772.39 339.896 769.513 343.071 762.712 c 0
 354.375 738.507 366.025 710.438 389.8 689.972 c 0
 392.901 687.302 398.089 677.892 393.188 669.895 c 0
 386.229 658.536 370.464 637.47 368.225 632.462 c 1
 376.015 570.772 387.746 453.57 399.819 433.959 c 0
 404.303 426.676 411.14 419.254 416.37 418.612 c 0
 446.216 414.954 471.864 403.458 503.375 379.683 c 0
 507.543 376.538 508.764 372.337 508.224 366.924 c 0
 505.252 337.17 499.853 307.213 490.468 279.517 c 0
 489.418 276.418 487.354 273.336 483.539 275.918 c 0
 419.107 319.519 360.18 370.604 355.923 423.46 c 0
 354.345 443.056 327.166 610.631 315.268 673.726 c 0
 314.231 679.219 311.227 686.481 309.765 690.455 c 0
 308.688 693.381 304.271 707.484 308.283 718.54 c 0
 314.593 735.93 319.038 746.888 324.874 763.173 c 0
EndSplineSet
Colour: ff0000
EndChar

StartChar: lam+meem.fina
Encoding: 65658 -1 123
Width: 0
VWidth: 0
AnchorPoint: "cursive" 151 50 entry 0
LayerCount: 2
Fore
SplineSet
256.304 239.482 m 1
 250.203 142.211 229.386 93.4756 190.597 50.2041 c 0
 162.987 19.4043 83.8604 51.457 119.615 64.4238 c 0
 210.141 97.2559 232.132 181.862 230.087 268.955 c 1
 226.909 336.747 227.537 403.426 200.508 667.49 c 0
 199.728 679.756 203.347 683.541 206.349 689.941 c 2
 230.936 736.982 l 1
 238.779 746.771 246.461 742.543 247.896 723.566 c 0
 263.16 567.635 274.354 427.899 294.95 266.473 c 0
 302.503 207.271 325.88 136.492 383.187 90.0283 c 0
 427.393 54.1875 402.048 -4.00391 383.087 0 c 0
 323.735 12.5332 275.694 100.669 256.304 239.482 c 1
119.615 64.4238 m 0
 138.539 71.6777 162.619 64.9619 190.597 50.2041 c 0
 247.566 20.1533 263.3 9.80957 297.007 -14.3467 c 0
 303.547 -19.0342 312.108 -22.1162 309.287 -36.793 c 1
 309.287 -36.793 295.249 -88.7324 291.267 -102.98 c 0
 288.207 -115.065 276.29 -113.027 264.292 -112.512 c 0
 177.829 -108.794 79.2441 -108.37 21.5664 -177.364 c 1
 16.3945 -197.433 24.1025 -276.807 39.3076 -348.745 c 0
 57.79 -436.185 87.9531 -528.531 86.9775 -629.621 c 0
 86.4648 -682.697 59.8193 -681.652 56.1533 -640.358 c 1
 36.3301 -485.353 -39.3643 -288.455 -12.8525 -176.93 c 0
 4.19824 -105.203 30.6934 -58.6592 106.521 -39.1357 c 1
 98.4854 -33.8965 92.6621 -31.5 85.4043 -27.46 c 1
 84.6797 28.2832 l 2
 84.3896 50.6641 108.979 60.3477 119.615 64.4238 c 0
EndSplineSet
Colour: ff0000
EndChar

StartChar: lam+meem.init
Encoding: 65659 -1 124
Width: 0
VWidth: 0
AnchorPoint: "cursive" 221 94 entry 0
LayerCount: 2
Fore
SplineSet
89.5078 702.391 m 0
 96.5322 715.318 104.118 707.034 105.104 702.24 c 0
 109.45 681.082 131.006 646.122 150.687 625.151 c 0
 153.992 621.63 155.774 613.695 152.635 609.244 c 0
 145.018 598.445 137.35 587.62 127.94 575.925 c 0
 123.87 570.867 125.095 564.417 125.695 558.474 c 0
 139.32 422.995 156.277 230.51 173.173 171.706 c 0
 180.578 145.934 242.156 129.232 281.317 102.941 c 0
 285.628 100.047 297.15 94.8682 291.719 84.2188 c 0
 280.293 61.8184 273.697 48.7803 264.991 35.4033 c 0
 261.262 29.6709 249.58 30.5176 242.657 33.1816 c 0
 225.461 39.7969 158.677 74.0186 138.855 126.747 c 0
 104.769 217.423 91.502 456.818 75.4199 587.771 c 1
 70.7041 606.163 66.7812 623.242 64.0547 633.949 c 0
 61.127 645.445 59.8613 650.805 64.5215 661.68 c 0
 69.4785 673.249 81.1318 686.977 89.5078 702.391 c 0
138.855 126.747 m 0
 182.711 143.869 244.17 126.49 281.317 102.941 c 0
 286.488 99.6631 294.658 95.5547 293.264 85.5928 c 0
 289.069 55.6191 283.894 18.6748 273.732 -8.78418 c 0
 271.358 -15.1973 256.668 -16.2246 251.398 -11.0059 c 0
 234.432 5.79492 194.499 43.2861 163.378 51.2227 c 0
 107.558 65.4561 54.1211 16.0752 0 0 c 0
 -21.8125 -6.47852 -25.4092 86.2344 0.558594 89.4844 c 0
 47.2178 95.3232 92.1426 108.51 138.855 126.747 c 0
EndSplineSet
Colour: ff0000
EndChar

StartChar: lam+meem.isol
Encoding: 65660 -1 125
Width: 0
VWidth: 0
AnchorPoint: "cursive" 161 229 entry 0
LayerCount: 2
Fore
SplineSet
181.103 811.771 m 0
 183.781 817.36 192.217 820.098 195.541 811.633 c 0
 206.064 784.834 234.499 757.265 253.75 742.601 c 0
 261.252 736.886 262.779 729.153 257.83 719.987 c 0
 248.392 703.836 237.042 687.905 227.62 672.436 c 1
 229.324 655.224 249.221 492.299 253.668 448.562 c 0
 258.115 404.826 254.223 350.843 248.418 314.844 c 0
 242.612 278.845 230.724 256.563 218.761 228.625 c 0
 197.568 179.131 99.6719 225.07 125.449 250.312 c 0
 143.882 268.364 194.473 259.889 223.418 302.719 c 1
 219.562 430.027 190.816 572.644 174.64 681.921 c 0
 170.284 711.345 153.815 753.584 159.895 766.843 c 0
 167.411 783.234 173.108 795.091 181.103 811.771 c 0
125.449 250.312 m 0
 135.775 258.639 189.857 239.069 218.761 228.625 c 0
 261.871 213.047 295.472 189.454 325.854 166.375 c 0
 338.111 157.065 341.351 148.545 335.479 130.562 c 0
 326.95 104.428 321.404 86.7832 318.324 79.4375 c 0
 315.243 72.0918 312.345 58.0342 298.261 62.3125 c 1
 220.921 75.459 84.8594 66.6797 36.2295 16 c 1
 30.2158 3.41016 75.1445 -215.802 83.168 -317.312 c 0
 86.7627 -362.795 81.667 -420.462 72.3545 -449.531 c 0
 67.6035 -465.162 44.0703 -471.057 48.2295 -432.688 c 0
 50.5596 -411.187 46.5488 -376.513 38.8242 -316.781 c 0
 31.3105 -258.689 17.7744 -187.89 7.26074 -135.156 c 1
 -9.27539 -41.4307 13.793 21.7188 13.793 21.7188 c 1
 35.9121 91.8496 73.0176 124.317 123.699 148.656 c 1
 118.633 151.447 109.573 153.238 96.6992 159.156 c 0
 90.7773 161.879 86.0117 166.777 89.8242 177.438 c 0
 97.0137 197.544 112.192 239.624 125.449 250.312 c 0
EndSplineSet
Colour: ff0000
EndChar

StartChar: lam+meem.medi
Encoding: 65661 -1 126
Width: 0
VWidth: 0
AnchorPoint: "cursive" 237 83 entry 0
LayerCount: 2
Fore
SplineSet
215.716 132.971 m 0
 240.478 123.847 273.652 85.7305 291.472 52.7803 c 0
 304.752 28.2236 308.988 -30.7471 301.386 -60.0332 c 0
 296.994 -76.9531 294.288 -77.8457 277.499 -75.3564 c 0
 212.616 -65.7344 158.514 0.771484 146.472 52.6504 c 0
 142.18 71.1426 145.073 90.4277 128.305 90.5957 c 0
 106.745 90.8115 61.0889 15.2373 0 0 c 0
 -24.7412 -6.1709 -24.5117 86.5566 0.334961 90.7236 c 0
 26.8945 95.1768 83.2949 121.842 113.031 150.835 c 0
 121.569 159.16 134.711 182.188 150.721 183.736 c 0
 176.761 186.252 180.498 145.949 215.716 132.971 c 0
344.311 683.214 m 2
 348.819 692.113 357.892 688.298 359.038 679.941 c 0
 382.713 507.396 398.947 255.425 423.949 176.745 c 0
 434.008 145.09 440.316 121.161 469.676 94.1064 c 0
 492.33 73.2295 486.009 -3.4082 470.197 1.56543 c 0
 413.015 19.5498 382.275 86.1201 372.965 146.251 c 1
 366.764 104.471 334.449 64.6729 291.472 52.7803 c 0
 211.233 30.5781 142.406 146.817 215.716 132.971 c 0
 271.646 122.408 340.365 136.029 357.266 172.801 c 1
 368.487 199.651 330.321 448.427 315.946 591.575 c 0
 314.644 604.543 310.888 617.239 318.128 631.53 c 2
 344.311 683.214 l 2
EndSplineSet
Colour: ff0000
EndChar

